<?xml version="1.0" encoding="utf-8"?>
<svg version="1.1" xmlns:xlink="http://www.w3.org/1999/xlink" width="17px" height="17px" xmlns="http://www.w3.org/2000/svg">
  <g transform="matrix(1 0 0 1 -178 -993 )">
    <path d="M 16.7457737321196 7.00780234070221  L 15.2204161248375 8.5  L 16.7457737321196 9.99219765929779  C 16.9668400520156 10.198526224534  17.0405288253143 10.4564369310793  16.9668400520156 10.7659297789337  C 16.8784135240572 11.0680537494582  16.6868227134807 11.2559601213697  16.3920676202861 11.3296488946684  L 14.314044213264 11.8602080624187  L 14.8998699609883 13.9161248374512  C 14.9882964889467 14.2182488079757  14.918292154313 14.476159514521  14.6898569570871 14.6898569570871  C 14.476159514521 14.918292154313  14.2182488079757 14.9882964889467  13.9161248374512 14.8998699609883  L 11.8602080624187 14.314044213264  L 11.3296488946684 16.3920676202861  C 11.2559601213697 16.6868227134807  11.0680537494582 16.8784135240572  10.7659297789337 16.9668400520156  C 10.6775032509753 16.9815778066753  10.6074989163416 16.9889466840052  10.5559167750325 16.9889466840052  C 10.3274815778067 16.9889466840052  10.1395752058951 16.9078890333767  9.99219765929779 16.7457737321196  L 8.5 15.2204161248375  L 7.00780234070221 16.7457737321196  C 6.80147377546597 16.9668400520156  6.54356306892068 17.0405288253143  6.23407022106632 16.9668400520156  C 5.93194625054183 16.8857824013871  5.74403987863026 16.6941915908106  5.6703511053316 16.3920676202861  L 5.13979193758127 14.314044213264  L 3.08387516254876 14.8998699609883  C 2.78175119202427 14.9882964889467  2.52384048547898 14.918292154313  2.31014304291287 14.6898569570871  C 2.08170784568704 14.476159514521  2.01170351105332 14.2182488079757  2.1001300390117 13.9161248374512  L 2.68595578673602 11.8602080624187  L 0.607932379713914 11.3296488946684  C 0.313177286519289 11.2559601213697  0.121586475942783 11.0680537494582  0.0331599479843953 10.7659297789337  C -0.0405288253142609 10.4564369310793  0.0331599479843953 10.198526224534  0.254226267880364 9.99219765929779  L 1.77958387516255 8.5  L 0.254226267880364 7.00780234070221  C 0.0331599479843953 6.80147377546597  -0.0405288253142609 6.54356306892068  0.0331599479843953 6.23407022106632  C 0.121586475942783 5.93194625054183  0.313177286519289 5.74403987863026  0.607932379713914 5.6703511053316  L 2.68595578673602 5.13979193758127  L 2.1001300390117 3.08387516254876  C 2.01170351105332 2.78175119202427  2.08170784568704 2.52384048547898  2.31014304291287 2.31014304291287  C 2.52384048547898 2.08170784568704  2.78175119202427 2.01170351105332  3.08387516254876 2.1001300390117  L 5.13979193758127 2.68595578673602  L 5.6703511053316 0.607932379713914  C 5.74403987863026 0.305808409189422  5.93194625054183 0.117902037277849  6.23407022106632 0.044213263979193  C 6.53619419159081 -0.044213263979193  6.79410489813611 0.0257910706545296  7.00780234070221 0.254226267880365  L 8.5 1.79063719115735  L 9.99219765929779 0.254226267880365  C 10.2058951018639 0.0331599479843957  10.4638058084092 -0.0368443866493307  10.7659297789337 0.044213263979193  C 11.0680537494582 0.117902037277849  11.2559601213697 0.305808409189422  11.3296488946684 0.607932379713914  L 11.8602080624187 2.68595578673602  L 13.9161248374512 2.1001300390117  C 14.2182488079757 2.01170351105332  14.476159514521 2.08170784568704  14.6898569570871 2.31014304291287  C 14.918292154313 2.52384048547898  14.9882964889467 2.78175119202427  14.8998699609883 3.08387516254876  L 14.314044213264 5.13979193758127  L 16.3920676202861 5.6703511053316  C 16.6868227134807 5.74403987863026  16.8784135240572 5.93194625054183  16.9668400520156 6.23407022106632  C 17.0405288253143 6.54356306892068  16.9668400520156 6.80147377546597  16.7457737321196 7.00780234070221  Z " fill-rule="nonzero" fill="#a30014" stroke="none" transform="matrix(1 0 0 1 178 993 )" />
  </g>
</svg>