<?xml version="1.0" encoding="utf-8"?>
<svg version="1.1" xmlns:xlink="http://www.w3.org/1999/xlink" width="96px" height="96px" xmlns="http://www.w3.org/2000/svg">
  <g transform="matrix(1 0 0 1 -19 -182 )">
    <path d="M 19 182  L 115 182  L 115 278  L 19 278  L 19 182  " fill-rule="nonzero" fill="#cccccc" stroke="none" />
    <path d="M 26 189  L 108 189  L 108 271  L 26 271  L 26 189  " fill-rule="nonzero" fill="#ffffff" stroke="none" />
    <path d="M 76.12 210.8  C 72.088 210.8  68.92 207.632  68.92 203.6  C 68.92 199.568  72.088 196.4  76.12 196.4  C 80.152 196.4  83.32 199.568  83.32 203.6  C 83.32 207.632  80.152 210.8  76.12 210.8  " fill-rule="nonzero" fill="#cccccc" stroke="none" />
    <path d="M 29 269  L 29 226.65  L 48.25 207.4  L 75.2 222.8  L 90.6 218.95  L 106 222.8  L 106 269  L 29 269  " fill-rule="nonzero" fill="#169bd5" stroke="none" />
  </g>
</svg>