<?xml version="1.0" encoding="utf-8"?>
<svg version="1.1" xmlns:xlink="http://www.w3.org/1999/xlink" width="12px" height="12px" viewBox="331 378  12 12" xmlns="http://www.w3.org/2000/svg">
  <path d="M 337 378  C 340.36 378  343 380.64  343 384  C 343 387.36  340.36 390  337 390  C 333.64 390  331 387.36  331 384  C 331 380.64  333.64 378  337 378  Z " fill-rule="nonzero" fill="#ffffff" stroke="none" />
  <path d="M 337 378.5  C 340.08 378.5  342.5 380.92  342.5 384  C 342.5 387.08  340.08 389.5  337 389.5  C 333.92 389.5  331.5 387.08  331.5 384  C 331.5 380.92  333.92 378.5  337 378.5  Z " stroke-width="1" stroke="#797979" fill="none" />
  <path d="M 337 387  C 335.32 387  334 385.68  334 384  C 334 382.32  335.32 381  337 381  C 338.68 381  340 382.32  340 384  C 340 385.68  338.68 387  337 387  " fill-rule="nonzero" fill="#797979" stroke="none" />
</svg>