<?xml version="1.0" encoding="utf-8"?>
<svg version="1.1" xmlns:xlink="http://www.w3.org/1999/xlink" width="19px" height="20px" xmlns="http://www.w3.org/2000/svg">
  <g transform="matrix(1 0 0 1 -312 -58 )">
    <path d="M 18.6221590909091 7.67045454545455  C 18.874053030303 7.93560606060606  19 8.25757575757576  19 8.63636363636363  L 19 11.3636363636364  C 19 11.7424242424242  18.874053030303 12.0643939393939  18.6221590909091 12.3295454545455  C 18.3702651515152 12.594696969697  18.0643939393939 12.7272727272727  17.7045454545455 12.7272727272727  L 12.0909090909091 12.7272727272727  L 12.0909090909091 18.6363636363636  C 12.0909090909091 19.0151515151515  11.9649621212121 19.3371212121212  11.7130681818182 19.6022727272727  C 11.4611742424242 19.8674242424242  11.155303030303 20  10.7954545454545 20  L 8.20454545454546 20  C 7.84469696969697 20  7.53882575757576 19.8674242424242  7.28693181818182 19.6022727272727  C 7.03503787878788 19.3371212121212  6.90909090909091 19.0151515151515  6.90909090909091 18.6363636363636  L 6.90909090909091 12.7272727272727  L 1.29545454545455 12.7272727272727  C 0.935606060606061 12.7272727272727  0.629734848484849 12.594696969697  0.377840909090909 12.3295454545455  C 0.12594696969697 12.0643939393939  0 11.7424242424242  0 11.3636363636364  L 0 8.63636363636363  C 0 8.25757575757576  0.12594696969697 7.93560606060606  0.377840909090909 7.67045454545455  C 0.629734848484849 7.40530303030303  0.935606060606061 7.27272727272727  1.29545454545455 7.27272727272727  L 6.90909090909091 7.27272727272727  L 6.90909090909091 1.36363636363636  C 6.90909090909091 0.984848484848484  7.03503787878788 0.662878787878787  7.28693181818182 0.397727272727273  C 7.53882575757576 0.132575757575757  7.84469696969697 0  8.20454545454546 0  L 10.7954545454545 0  C 11.155303030303 0  11.4611742424242 0.132575757575757  11.7130681818182 0.397727272727273  C 11.9649621212121 0.662878787878787  12.0909090909091 0.984848484848484  12.0909090909091 1.36363636363636  L 12.0909090909091 7.27272727272727  L 17.7045454545455 7.27272727272727  C 18.0643939393939 7.27272727272727  18.3702651515152 7.40530303030303  18.6221590909091 7.67045454545455  Z " fill-rule="nonzero" fill="#555555" stroke="none" transform="matrix(1 0 0 1 312 58 )" />
  </g>
</svg>