<?xml version="1.0" encoding="utf-8"?>
<svg version="1.1" xmlns:xlink="http://www.w3.org/1999/xlink" width="108px" height="108px" xmlns="http://www.w3.org/2000/svg">
  <g transform="matrix(1 0 0 1 -133 -66 )">
    <path d="M 187 73  C 213.32 73  234 93.68  234 120  C 234 146.32  213.32 167  187 167  C 160.68 167  140 146.32  140 120  C 140 93.68  160.68 73  187 73  Z " fill-rule="nonzero" fill="#ffffff" stroke="none" />
    <path d="M 187 70  C 215 70  237 92  237 120  C 237 148  215 170  187 170  C 159 170  137 148  137 120  C 137 92  159 70  187 70  Z " stroke-width="8" stroke="#d9001b" fill="none" />
  </g>
</svg>