<?xml version="1.0" encoding="utf-8"?>
<svg version="1.1" xmlns:xlink="http://www.w3.org/1999/xlink" width="78px" height="78px" xmlns="http://www.w3.org/2000/svg">
  <g transform="matrix(1 0 0 1 -148 -80 )">
    <path d="M 64.2890625 33.05859375  C 64.8984375 32.44921875  65.203125 31.6875  65.203125 30.7734375  C 65.203125 29.8255208333333  64.8984375 29.046875  64.2890625 28.4375  L 59.66796875 23.8671875  C 59.0247395833333 23.2239583333333  58.2630208333333 22.90234375  57.3828125 22.90234375  C 56.5026041666667 22.90234375  55.7408854166667 23.2239583333333  55.09765625 23.8671875  L 34.37890625 44.53515625  L 22.90234375 33.05859375  C 22.2591145833333 32.4153645833333  21.4973958333333 32.09375  20.6171875 32.09375  C 19.7369791666667 32.09375  18.9752604166667 32.4153645833333  18.33203125 33.05859375  L 13.7109375 37.62890625  C 13.1015625 38.23828125  12.796875 39.0169270833333  12.796875 39.96484375  C 12.796875 40.87890625  13.1015625 41.640625  13.7109375 42.25  L 32.09375 60.6328125  C 32.7369791666667 61.2760416666667  33.4986979166667 61.59765625  34.37890625 61.59765625  C 35.29296875 61.59765625  36.0716145833333 61.2760416666667  36.71484375 60.6328125  L 64.2890625 33.05859375  Z M 72.76953125 19.423828125  C 76.2565104166667 25.3990885416667  78 31.9244791666667  78 39  C 78 46.0755208333333  76.2565104166667 52.6009114583333  72.76953125 58.576171875  C 69.2825520833333 64.5514322916667  64.5514322916667 69.2825520833333  58.576171875 72.76953125  C 52.6009114583333 76.2565104166667  46.0755208333333 78  39 78  C 31.9244791666667 78  25.3990885416667 76.2565104166667  19.423828125 72.76953125  C 13.4485677083333 69.2825520833333  8.71744791666667 64.5514322916667  5.23046875 58.576171875  C 1.74348958333333 52.6009114583333  0 46.0755208333333  0 39  C 0 31.9244791666667  1.74348958333333 25.3990885416667  5.23046875 19.423828125  C 8.71744791666667 13.4485677083333  13.4485677083333 8.71744791666666  19.423828125 5.23046875  C 25.3990885416667 1.74348958333333  31.9244791666667 0  39 0  C 46.0755208333333 0  52.6009114583333 1.74348958333333  58.576171875 5.23046875  C 64.5514322916667 8.71744791666666  69.2825520833333 13.4485677083333  72.76953125 19.423828125  Z " fill-rule="nonzero" fill="#95f204" stroke="none" transform="matrix(1 0 0 1 148 80 )" />
  </g>
</svg>