<?xml version="1.0" encoding="utf-8"?>
<svg version="1.1" xmlns:xlink="http://www.w3.org/1999/xlink" width="100px" height="100px" xmlns="http://www.w3.org/2000/svg">
  <g transform="matrix(1 0 0 1 -22 -456 )">
    <path d="M 22 456  L 122 456  L 122 556  L 22 556  L 22 456  " fill-rule="nonzero" fill="#cccccc" stroke="none" />
    <path d="M 29 463  L 115 463  L 115 549  L 29 549  L 29 463  " fill-rule="nonzero" fill="#ffffff" stroke="none" />
    <path d="M 81.5 486  C 77.3 486  74 482.7  74 478.5  C 74 474.3  77.3 471  81.5 471  C 85.7 471  89 474.3  89 478.5  C 89 482.7  85.7 486  81.5 486  " fill-rule="nonzero" fill="#cccccc" stroke="none" />
    <path d="M 32 547  L 32 502.45  L 52.25 482.2  L 80.6 498.4  L 96.8 494.35  L 113 498.4  L 113 547  L 32 547  " fill-rule="nonzero" fill="#169bd5" stroke="none" />
  </g>
</svg>