<?xml version="1.0" encoding="utf-8"?>
<svg version="1.1" xmlns:xlink="http://www.w3.org/1999/xlink" width="96px" height="96px" xmlns="http://www.w3.org/2000/svg">
  <g transform="matrix(1 0 0 1 -18 -180 )">
    <path d="M 18 180  L 114 180  L 114 276  L 18 276  L 18 180  " fill-rule="nonzero" fill="#cccccc" stroke="none" />
    <path d="M 25 187  L 107 187  L 107 269  L 25 269  L 25 187  " fill-rule="nonzero" fill="#ffffff" stroke="none" />
    <path d="M 75.12 208.8  C 71.088 208.8  67.92 205.632  67.92 201.6  C 67.92 197.568  71.088 194.4  75.12 194.4  C 79.152 194.4  82.32 197.568  82.32 201.6  C 82.32 205.632  79.152 208.8  75.12 208.8  " fill-rule="nonzero" fill="#cccccc" stroke="none" />
    <path d="M 28 267  L 28 224.65  L 47.25 205.4  L 74.2 220.8  L 89.6 216.95  L 105 220.8  L 105 267  L 28 267  " fill-rule="nonzero" fill="#169bd5" stroke="none" />
  </g>
</svg>