<?xml version="1.0" encoding="utf-8"?>
<svg version="1.1" xmlns:xlink="http://www.w3.org/1999/xlink" width="30px" height="30px" xmlns="http://www.w3.org/2000/svg">
  <g transform="matrix(1 0 0 1 -29 -196 )">
    <path d="M 8.00232964472918 24.2341292952825  L 9.87186953989517 24.2341292952825  L 11.4618520675597 22.6441467676179  L 7.35585323238206 18.5381479324403  L 5.76587070471753 20.1281304601048  L 5.76587070471753 21.9976703552708  L 8.00232964472918 21.9976703552708  L 8.00232964472918 24.2341292952825  Z M 18.8875946418171 8.31683168316831  C 18.9691322073384 8.23529411764707  19.009900990099 8.13628421665696  19.009900990099 8.01980198019803  C 19.009900990099 7.76354105998836  18.8817705299942 7.63541059988352  18.6255096097845 7.63541059988352  C 18.5090273733256 7.63541059988352  18.4100174723355 7.67617938264415  18.3284799068142 7.75771694816539  L 8.85847408270239 17.2277227722772  C 8.77693651718113 17.3092603377985  8.7361677344205 17.4082702387886  8.7361677344205 17.5247524752475  C 8.7361677344205 17.7810133954572  8.86429819452534 17.909143855562  9.120559114735 17.909143855562  C 9.23704135119394 17.909143855562  9.33605125218404 17.8683750728014  9.4175888177053 17.7868375072801  L 18.8875946418171 8.31683168316831  Z M 4.76470588235294 18.5381479324403  L 18.0663948747816 4.66511357018055  L 25.2475247524753 11.8235294117647  L 11.4618520675597 25.0588235294117  L 0.369357045143643 29.281805745554  L 4.76470588235294 18.5381479324403  Z M 29.3535235876529 4.75247524752476  C 29.784507862551 5.20675596971462  30 5.73675014560281  30 6.34245777518929  C 30 6.95981362842166  29.784507862551 7.4839836924869  29.3535235876529 7.91496796738498  L 26.4531158998253 10.8153756552126  L 19.009900990099 3.61764705882352  L 22.085032032615 0.663948747815962  C 22.5043680838672 0.221316249271979  23.0285381479324 0  23.6575422248107 0  C 24.2748980780431 0  24.8048922539313 0.221316249271979  25.2475247524753 0.663948747815962  L 29.3535235876529 4.75247524752476  Z " fill-rule="nonzero" fill="#a30014" stroke="none" transform="matrix(1 0 0 1 29 196 )" />
  </g>
</svg>