<?xml version="1.0" encoding="utf-8"?>
<svg version="1.1" xmlns:xlink="http://www.w3.org/1999/xlink" width="30px" height="18px" xmlns="http://www.w3.org/2000/svg">
  <g transform="matrix(1 0 0 1 -29 -121 )">
    <path d="M 3.75 0.900000000000001  L 3.75 10.8  L 29.0625 10.8  C 29.31640625 10.8  29.5361328125 10.8890625  29.7216796875 11.0671875  C 29.9072265625 11.2453125  30 11.45625  30 11.7  L 30 18  L 26.25 18  L 26.25 14.4  L 3.75 14.4  L 3.75 18  L 0 18  L 0 0.900000000000001  C 0 0.656249999999999  0.0927734375 0.445312499999999  0.2783203125 0.267187500000001  C 0.4638671875 0.0890624999999989  0.68359375 0  0.9375 0  L 2.8125 0  C 3.06640625 0  3.2861328125 0.0890624999999989  3.4716796875 0.267187500000001  C 3.6572265625 0.445312499999999  3.75 0.656249999999999  3.75 0.900000000000001  Z M 11.0888671875 8.8453125  C 11.8212890625 8.1421875  12.1875 7.29375  12.1875 6.3  C 12.1875 5.30625  11.8212890625 4.4578125  11.0888671875 3.7546875  C 10.3564453125 3.0515625  9.47265625 2.7  8.4375 2.7  C 7.40234375 2.7  6.5185546875 3.0515625  5.7861328125 3.7546875  C 5.0537109375 4.4578125  4.6875 5.30625  4.6875 6.3  C 4.6875 7.29375  5.0537109375 8.1421875  5.7861328125 8.8453125  C 6.5185546875 9.5484375  7.40234375 9.9  8.4375 9.9  C 9.47265625 9.9  10.3564453125 9.5484375  11.0888671875 8.8453125  Z M 13.125 10  L 30 10  L 30 9  C 30 7.509375  29.45068359375 6.23671875  28.35205078125 5.18203125  C 27.25341796875 4.12734375  25.927734375 3.6  24.375 3.6  L 14.0625 3.6  C 13.80859375 3.6  13.5888671875 3.6890625  13.4033203125 3.8671875  C 13.2177734375 4.0453125  13.125 4.25625  13.125 4.5  L 13.125 10  Z " fill-rule="nonzero" fill="#a30014" stroke="none" transform="matrix(1 0 0 1 29 121 )" />
  </g>
</svg>