<?xml version="1.0" encoding="utf-8"?>
<svg version="1.1" xmlns:xlink="http://www.w3.org/1999/xlink" width="40px" height="32px" xmlns="http://www.w3.org/2000/svg">
  <g transform="matrix(1 0 0 1 -23 -368 )">
    <path d="M 37.1354166666667 23.8020833333333  C 37.2673611111111 23.6701388888889  37.3333333333333 23.5138888888889  37 23.3333333333333  L 37 3.33333333333333  C 37.3333333333333 3.15277777777778  37.2673611111111 2.99652777777778  37.1354166666667 2.86458333333333  C 37.0034722222222 2.73263888888889  36.8472222222222 2.66666666666667  36.6666666666667 3  L 3.33333333333333 3  C 3.15277777777778 2.66666666666667  2.99652777777778 2.73263888888889  2.86458333333333 2.86458333333333  C 2.73263888888889 2.99652777777778  2.66666666666667 3.15277777777778  3 3.33333333333333  L 3 23.3333333333333  C 2.66666666666667 23.5138888888889  2.73263888888889 23.6701388888889  2.86458333333333 23.8020833333333  C 2.99652777777778 23.9340277777778  3.15277777777778 24  3.33333333333333 24  L 36.6666666666667 24  C 36.8472222222222 24  37.0034722222222 23.9340277777778  37.1354166666667 23.8020833333333  Z M 39.0208333333333 0.979166666666668  C 39.6736111111111 1.63194444444444  40 2.41666666666667  40 3.33333333333333  L 40 23.3333333333333  C 40 24.25  39.6736111111111 25.0347222222222  39.0208333333333 25.6875  C 38.3680555555556 26.3402777777778  37.5833333333333 26.6666666666667  36.6666666666667 26.6666666666667  L 21.3333333333333 26.6666666666667  L 21.3333333333333 29.3333333333333  L 28.6666666666667 29.3333333333333  C 28.8611111111111 29.3333333333333  29.0208333333333 29.3958333333333  29.1458333333333 29.5208333333333  C 29.2708333333333 29.6458333333333  29.3333333333333 29.8055555555556  29.3333333333333 30  L 29.3333333333333 31.3333333333333  C 29.3333333333333 31.5277777777778  29.2708333333333 31.6875  29.1458333333333 31.8125  C 29.0208333333333 31.9375  28.8611111111111 32  28.6666666666667 32  L 11.3333333333333 32  C 11.1388888888889 32  10.9791666666667 31.9375  10.8541666666667 31.8125  C 10.7291666666667 31.6875  10.6666666666667 31.5277777777778  10.6666666666667 31.3333333333333  L 10.6666666666667 30  C 10.6666666666667 29.8055555555556  10.7291666666667 29.6458333333333  10.8541666666667 29.5208333333333  C 10.9791666666667 29.3958333333333  11.1388888888889 29.3333333333333  11.3333333333333 29.3333333333333  L 18.6666666666667 29.3333333333333  L 18.6666666666667 26.6666666666667  L 3.33333333333333 26.6666666666667  C 2.41666666666667 26.6666666666667  1.63194444444444 26.3402777777778  0.979166666666667 25.6875  C 0.326388888888889 25.0347222222222  0 24.25  0 23.3333333333333  L 0 3.33333333333333  C 0 2.41666666666667  0.326388888888889 1.63194444444444  0.979166666666667 0.979166666666668  C 1.63194444444444 0.326388888888886  2.41666666666667 0  3.33333333333333 0  L 36.6666666666667 0  C 37.5833333333333 0  38.3680555555556 0.326388888888886  39.0208333333333 0.979166666666668  Z " fill-rule="nonzero" fill="#a30014" stroke="none" transform="matrix(1 0 0 1 23 368 )" />
  </g>
</svg>