<?xml version="1.0" encoding="utf-8"?>
<svg version="1.1" xmlns:xlink="http://www.w3.org/1999/xlink" width="50px" height="28px" xmlns="http://www.w3.org/2000/svg">
  <g transform="matrix(1 0 0 1 -28 -37 )">
    <path d="M 47.2222222222222 3.5  L 47.2222222222222 7  C 47.9890046296296 7  48.6436631944444 7.2734375  49.1861979166667 7.8203125  C 49.7287326388889 8.3671875  50 9.02708333333333  50 9.8  L 50 18.2  C 50 18.9729166666667  49.7287326388889 19.6328125  49.1861979166667 20.1796875  C 48.6436631944444 20.7265625  47.9890046296296 21  47.2222222222222 21  L 47.2222222222222 24.5  C 47.2222222222222 25.4625  46.8822337962963 26.2864583333333  46.2022569444444 26.971875  C 45.5222800925926 27.6572916666667  44.7048611111111 28  43.75 28  L 3.47222222222222 28  C 2.51736111111111 28  1.69994212962963 27.6572916666667  1.01996527777778 26.971875  C 0.339988425925926 26.2864583333333  0 25.4625  0 24.5  L 0 3.5  C 0 2.5375  0.339988425925926 1.71354166666667  1.01996527777778 1.028125  C 1.69994212962963 0.342708333333329  2.51736111111111 0  3.47222222222222 0  L 43.75 0  C 44.7048611111111 0  45.5222800925926 0.342708333333329  46.2022569444444 1.028125  C 46.8822337962963 1.71354166666667  47.2222222222222 2.5375  47.2222222222222 3.5  Z M 44.4444444444444 18.2  L 47.2222222222222 18.2  L 47.2222222222222 9.8  L 44.4444444444444 9.8  L 44.4444444444444 3.5  C 44.4444444444444 3.29583333333333  44.3793402777778 3.128125  44.2491319444444 2.996875  C 44.1189236111111 2.865625  43.9525462962963 2.8  43.75 3  L 3.47222222222222 3  C 3.26967592592593 2.8  3.10329861111111 2.865625  2.97309027777778 2.996875  C 2.84288194444444 3.128125  2.77777777777778 3.29583333333333  3 3.5  L 3 24.5  C 2.77777777777778 24.7041666666667  2.84288194444444 24.871875  2.97309027777778 25.003125  C 3.10329861111111 25.134375  3.26967592592593 25.2  3.47222222222222 25  L 43.75 25  C 43.9525462962963 25.2  44.1189236111111 25.134375  44.2491319444444 25.003125  C 44.3793402777778 24.871875  44.4444444444444 24.7041666666667  44.4444444444444 24.5  L 44.4444444444444 18.2  Z " fill-rule="nonzero" fill="#a30014" stroke="none" transform="matrix(1 0 0 1 28 37 )" />
  </g>
</svg>