<?xml version="1.0" encoding="utf-8"?>
<svg version="1.1" xmlns:xlink="http://www.w3.org/1999/xlink" width="25px" height="26px" xmlns="http://www.w3.org/2000/svg">
  <g transform="matrix(1 0 0 1 -31 -29 )">
    <path d="M 15.7876712328767 8.92057291666667  L 24.4006849315068 22.34375  C 25.0399543378995 23.3480902777778  25.1626712328767 24.2085503472222  24.7688356164384 24.9251302083333  C 24.375 25.6417100694444  23.5730593607306 26  22.3630136986301 26  L 2.63698630136986 26  C 1.42694063926941 26  0.625 25.6417100694444  0.231164383561644 24.9251302083333  C -0.162671232876712 24.2085503472222  -0.0399543378995433 23.3480902777778  0.599315068493151 22.34375  L 9.21232876712329 8.92057291666667  L 9.21232876712329 2.16666666666667  L 8.11643835616438 2.16666666666667  C 7.81963470319635 2.16666666666667  7.56278538812785 2.05946180555555  7.3458904109589 1.84505208333333  C 7.12899543378995 1.63064236111111  7.02054794520548 1.37673611111111  7.02054794520548 1.08333333333333  C 7.02054794520548 0.789930555555552  7.12899543378995 0.536024305555552  7.3458904109589 0.321614583333332  C 7.56278538812785 0.10720486111111  7.81963470319635 0  8.11643835616438 0  L 16.8835616438356 0  C 17.1803652968037 0  17.4372146118721 0.10720486111111  17.6541095890411 0.321614583333332  C 17.87100456621 0.536024305555552  17.9794520547945 0.789930555555552  17.9794520547945 1.08333333333333  C 17.9794520547945 1.37673611111111  17.87100456621 1.63064236111111  17.6541095890411 1.84505208333333  C 17.4372146118721 2.05946180555555  17.1803652968037 2.16666666666667  16.8835616438356 2.16666666666667  L 15.7876712328767 2.16666666666667  L 15.7876712328767 8.92057291666667  Z M 11.4041095890411 9.546875  L 11.0616438356164 10.0716145833333  L 6.4041095890411 17  L 18.5958904109589 17  L 13.9383561643836 10.0716145833333  L 13.5958904109589 9.546875  L 13.5958904109589 8.92057291666667  L 13.5958904109589 2.16666666666667  L 11.4041095890411 2.16666666666667  L 11.4041095890411 8.92057291666667  L 11.4041095890411 9.546875  Z " fill-rule="nonzero" fill="#a30014" stroke="none" transform="matrix(1 0 0 1 31 29 )" />
  </g>
</svg>