<?xml version="1.0" encoding="utf-8"?>
<svg version="1.1" xmlns:xlink="http://www.w3.org/1999/xlink" width="34px" height="44px" xmlns="http://www.w3.org/2000/svg">
  <g transform="matrix(1 0 0 1 -37 -28 )">
    <path d="M 14.9957386363636 0.466517857142859  C 15.3016098484849 0.777529761904756  15.4545454545455 1.14583333333333  16 1.57142857142857  L 16 17.2857142857143  C 15.4545454545455 18.2842261904762  15.1687973484849 19.1927083333333  14.5973011363636 20.0111607142857  C 14.0258049242424 20.8296130952381  13.28125 21.4025297619048  13 21.7299107142857  L 13 40.8571428571429  C 12.3636363636364 41.7083333333333  12.0577651515152 42.4449404761905  11.4460227272727 43.0669642857143  C 10.8342803030303 43.6889880952381  10.1098484848485 44  9.27272727272727 44  L 6.18181818181818 44  C 5.34469696969697 44  4.62026515151515 43.6889880952381  4.00852272727273 43.0669642857143  C 3.3967803030303 42.4449404761905  3.09090909090909 41.7083333333333  3 40.8571428571429  L 3 21.7299107142857  C 2.17329545454545 21.4025297619048  1.42874053030303 20.8296130952381  0.857244318181818 20.0111607142857  C 0.285748106060606 19.1927083333333  0 18.2842261904762  0 17.2857142857143  L 0 1.57142857142857  C 0 1.14583333333333  0.152935606060606 0.777529761904756  0.458806818181818 0.466517857142859  C 0.76467803030303 0.155505952380956  1.12689393939394 0  1.54545454545455 0  C 1.96401515151515 0  2.32623106060606 0.155505952380956  2.63210227272727 0.466517857142859  C 2.93797348484848 0.777529761904756  3.09090909090909 1.14583333333333  3 1.57142857142857  L 3 11.7857142857143  C 3.09090909090909 12.2113095238095  3.2438446969697 12.5796130952381  3.54971590909091 12.890625  C 3.85558712121212 13.2016369047619  4.21780303030303 13.3571428571429  4.63636363636364 13.3571428571429  C 5.05492424242424 13.3571428571429  5.41714015151515 13.2016369047619  5.72301136363636 12.890625  C 6.02888257575758 12.5796130952381  6.18181818181818 12.2113095238095  6.18181818181818 11.7857142857143  L 6.18181818181818 1.57142857142857  C 6.18181818181818 1.14583333333333  6.33475378787879 0.777529761904756  6.640625 0.466517857142859  C 6.94649621212121 0.155505952380956  7.30871212121212 0  7.72727272727273 0  C 8.14583333333333 0  8.50804924242424 0.155505952380956  8.81392045454545 0.466517857142859  C 9.11979166666667 0.777529761904756  9.27272727272727 1.14583333333333  9.27272727272727 1.57142857142857  L 9.27272727272727 11.7857142857143  C 9.27272727272727 12.2113095238095  9.42566287878788 12.5796130952381  9.73153409090909 12.890625  C 10.0374053030303 13.2016369047619  10.3996212121212 13.3571428571429  10.8181818181818 13.3571428571429  C 11.2367424242424 13.3571428571429  11.5989583333333 13.2016369047619  11.9048295454545 12.890625  C 12.2107007575758 12.5796130952381  12.3636363636364 12.2113095238095  13 11.7857142857143  L 13 1.57142857142857  C 12.3636363636364 1.14583333333333  12.516571969697 0.777529761904756  12.8224431818182 0.466517857142859  C 13.1283143939394 0.155505952380956  13.4905303030303 0  13.9090909090909 0  C 14.3276515151515 0  14.6898674242424 0.155505952380956  14.9957386363636 0.466517857142859  Z M 33.5411931818182 0.466517857142859  C 33.8470643939394 0.777529761904756  34 1.14583333333333  34 1.57142857142857  L 34 40.8571428571429  C 34 41.7083333333333  33.6941287878788 42.4449404761905  33.0823863636364 43.0669642857143  C 32.4706439393939 43.6889880952381  31.7462121212121 44  30.9090909090909 44  L 27.8181818181818 44  C 26.9810606060606 44  26.2566287878788 43.6889880952381  25.6448863636364 43.0669642857143  C 25.0331439393939 42.4449404761905  24.7272727272727 41.7083333333333  24.7272727272727 40.8571428571429  L 24.7272727272727 28.2857142857143  L 19.3181818181818 28.2857142857143  C 19.1089015151515 28.2857142857143  18.9277935606061 28.2079613095238  18.7748579545455 28.0524553571429  C 18.6219223484848 27.8969494047619  18.5454545454545 27.7127976190476  18 27.5  L 18 7.85714285714286  C 18.5454545454545 5.69642857142857  19.3020833333333 3.84672619047619  20.8153409090909 2.30803571428571  C 22.3285984848485 0.769345238095244  24.1477272727273 0  26.2727272727273 0  L 32.4545454545455 0  C 32.8731060606061 0  33.235321969697 0.155505952380956  33.5411931818182 0.466517857142859  Z " fill-rule="nonzero" fill="#a60014" stroke="none" transform="matrix(1 0 0 1 37 28 )" />
  </g>
</svg>