<?xml version="1.0" encoding="utf-8"?>
<svg version="1.1" xmlns:xlink="http://www.w3.org/1999/xlink" width="34px" height="33px" xmlns="http://www.w3.org/2000/svg">
  <g transform="matrix(1 0 0 1 -29 -246 )">
    <path d="M 7.10546875 24.22265625  C 7.22563244047619 24.37109375  7.28571428571429 24.546875  7.28571428571429 24.75  L 7.28571428571429 26.25  C 7.28571428571429 26.453125  7.22563244047619 26.62890625  7.10546875 26.77734375  C 6.98530505952381 26.92578125  6.84300595238095 27  6.67857142857143 27  L 5.46428571428571 27  C 5.29985119047619 27  5.15755208333333 26.92578125  5.03738839285714 26.77734375  C 4.91722470238095 26.62890625  4.85714285714286 26.453125  4.85714285714286 26.25  L 4.85714285714286 24.75  C 4.85714285714286 24.546875  4.91722470238095 24.37109375  5.03738839285714 24.22265625  C 5.15755208333333 24.07421875  5.29985119047619 24  5.46428571428571 24  L 6.67857142857143 24  C 6.84300595238095 24  6.98530505952381 24.07421875  7.10546875 24.22265625  Z M 7.10546875 18.22265625  C 7.22563244047619 18.37109375  7.28571428571429 18.546875  7.28571428571429 18.75  L 7.28571428571429 20.25  C 7.28571428571429 20.453125  7.22563244047619 20.62890625  7.10546875 20.77734375  C 6.98530505952381 20.92578125  6.84300595238095 21  6.67857142857143 21  L 5.46428571428571 21  C 5.29985119047619 21  5.15755208333333 20.92578125  5.03738839285714 20.77734375  C 4.91722470238095 20.62890625  4.85714285714286 20.453125  4.85714285714286 20.25  L 4.85714285714286 18.75  C 4.85714285714286 18.546875  4.91722470238095 18.37109375  5.03738839285714 18.22265625  C 5.15755208333333 18.07421875  5.29985119047619 18  5.46428571428571 18  L 6.67857142857143 18  C 6.84300595238095 18  6.98530505952381 18.07421875  7.10546875 18.22265625  Z M 7.10546875 12.22265625  C 7.22563244047619 12.37109375  7.28571428571429 12.546875  7.28571428571429 12.75  L 7.28571428571429 14.25  C 7.28571428571429 14.453125  7.22563244047619 14.62890625  7.10546875 14.77734375  C 6.98530505952381 14.92578125  6.84300595238095 15  6.67857142857143 15  L 5.46428571428571 15  C 5.29985119047619 15  5.15755208333333 14.92578125  5.03738839285714 14.77734375  C 4.91722470238095 14.62890625  4.85714285714286 14.453125  4.85714285714286 14.25  L 4.85714285714286 12.75  C 4.85714285714286 12.546875  4.91722470238095 12.37109375  5.03738839285714 12.22265625  C 5.15755208333333 12.07421875  5.29985119047619 12  5.46428571428571 12  L 6.67857142857143 12  C 6.84300595238095 12  6.98530505952381 12.07421875  7.10546875 12.22265625  Z M 28.9626116071429 24.22265625  C 29.082775297619 24.37109375  29.1428571428571 24.546875  29.1428571428571 24.75  L 29.1428571428571 26.25  C 29.1428571428571 26.453125  29.082775297619 26.62890625  28.9626116071429 26.77734375  C 28.8424479166667 26.92578125  28.7001488095238 27  28.5357142857143 27  L 10.3214285714286 27  C 10.156994047619 27  10.0146949404762 26.92578125  9.89453125 26.77734375  C 9.77436755952381 26.62890625  9.71428571428571 26.453125  9.71428571428571 26.25  L 9.71428571428571 24.75  C 9.71428571428571 24.546875  9.77436755952381 24.37109375  9.89453125 24.22265625  C 10.0146949404762 24.07421875  10.156994047619 24  10.3214285714286 24  L 28.5357142857143 24  C 28.7001488095238 24  28.8424479166667 24.07421875  28.9626116071429 24.22265625  Z M 28.9626116071429 18.22265625  C 29.082775297619 18.37109375  29.1428571428571 18.546875  29.1428571428571 18.75  L 29.1428571428571 20.25  C 29.1428571428571 20.453125  29.082775297619 20.62890625  28.9626116071429 20.77734375  C 28.8424479166667 20.92578125  28.7001488095238 21  28.5357142857143 21  L 10.3214285714286 21  C 10.156994047619 21  10.0146949404762 20.92578125  9.89453125 20.77734375  C 9.77436755952381 20.62890625  9.71428571428571 20.453125  9.71428571428571 20.25  L 9.71428571428571 18.75  C 9.71428571428571 18.546875  9.77436755952381 18.37109375  9.89453125 18.22265625  C 10.0146949404762 18.07421875  10.156994047619 18  10.3214285714286 18  L 28.5357142857143 18  C 28.7001488095238 18  28.8424479166667 18.07421875  28.9626116071429 18.22265625  Z M 28.9626116071429 12.22265625  C 29.082775297619 12.37109375  29.1428571428571 12.546875  29.1428571428571 12.75  L 29.1428571428571 14.25  C 29.1428571428571 14.453125  29.082775297619 14.62890625  28.9626116071429 14.77734375  C 28.8424479166667 14.92578125  28.7001488095238 15  28.5357142857143 15  L 10.3214285714286 15  C 10.156994047619 15  10.0146949404762 14.92578125  9.89453125 14.77734375  C 9.77436755952381 14.62890625  9.71428571428571 14.453125  9.71428571428571 14.25  L 9.71428571428571 12.75  C 9.71428571428571 12.546875  9.77436755952381 12.37109375  9.89453125 12.22265625  C 10.0146949404762 12.07421875  10.156994047619 12  10.3214285714286 12  L 28.5357142857143 12  C 28.7001488095238 12  28.8424479166667 12.07421875  28.9626116071429 12.22265625  Z M 31.3911830357143 29.77734375  C 31.5113467261905 29.62890625  31.5714285714286 29.453125  31 29.25  L 31 9.75  C 31.5714285714286 9.546875  31.5113467261905 9.37109375  31.3911830357143 9.22265625  C 31.2710193452381 9.07421875  31.1287202380952 9  30.9642857142857 9  L 3.03571428571429 9  C 2.87127976190476 9  2.7289806547619 9.07421875  2.60881696428571 9.22265625  C 2.48865327380952 9.37109375  2.42857142857143 9.546875  3 9.75  L 3 29.25  C 2.42857142857143 29.453125  2.48865327380952 29.62890625  2.60881696428571 29.77734375  C 2.7289806547619 29.92578125  2.87127976190476 30  3.03571428571429 30  L 30.9642857142857 30  C 31.1287202380952 30  31.2710193452381 29.92578125  31.3911830357143 29.77734375  Z M 33.1082589285714 1.1015625  C 33.7027529761905 1.8359375  34 2.71875  34 3.75  L 34 29.25  C 34 30.28125  33.7027529761905 31.1640625  33.1082589285714 31.8984375  C 32.5137648809524 32.6328125  31.7991071428571 33  30.9642857142857 33  L 3.03571428571429 33  C 2.20089285714286 33  1.48623511904762 32.6328125  0.891741071428571 31.8984375  C 0.297247023809524 31.1640625  0 30.28125  0 29.25  L 0 3.75  C 0 2.71875  0.297247023809524 1.8359375  0.891741071428571 1.1015625  C 1.48623511904762 0.367187499999996  2.20089285714286 0  3.03571428571429 0  L 30.9642857142857 0  C 31.7991071428571 0  32.5137648809524 0.367187499999996  33.1082589285714 1.1015625  Z " fill-rule="nonzero" fill="#a30014" stroke="none" transform="matrix(1 0 0 1 29 246 )" />
  </g>
</svg>