<?xml version="1.0" encoding="utf-8"?>
<svg version="1.1" xmlns:xlink="http://www.w3.org/1999/xlink" width="22px" height="20px" xmlns="http://www.w3.org/2000/svg">
  <g transform="matrix(1 0 0 1 -216 -121 )">
    <path d="M 22 10.1375  C 22 9.5875  21.5875 9.175  21.0375 9.175  L 20.625 9.175  L 11.4125 0.2375  C 11.1375 -0.0375000000000001  10.8625 -0.0375000000000001  10.5875 0.2375  L 1.2375 9.175  L 0.9625 9.175  C 0.4125 9.175  0 9.5875  0 10.1375  L 0 10.9625  C 0 11.5125  0.4125 11.925  0.9625 11.925  L 3.4375 11.925  L 3.4375 18.25  C 3.4375 18.8  3.85 19.2125  4.4 19.2125  L 8.3875 19.2125  C 8.9375 19.2125  9.35 18.8  9.35 18.25  L 9.35 13.1625  L 12.65 13.1625  L 12.65 18.25  C 12.65 18.8  13.0625 19.2125  13.6125 19.2125  L 17.6 19.2125  C 18.15 19.2125  18.5625 18.8  18.5625 18.25  L 18.5625 11.925  L 21.0375 11.925  C 21.5875 11.925  22 11.5125  22 10.9625  L 22 10.1375  Z " fill-rule="nonzero" fill="#707070" stroke="none" transform="matrix(1 0 0 1 216 121 )" />
  </g>
</svg>