<?xml version="1.0" encoding="utf-8"?>
<svg version="1.1" xmlns:xlink="http://www.w3.org/1999/xlink" width="27px" height="27px" xmlns="http://www.w3.org/2000/svg">
  <g transform="matrix(1 0 0 1 -19 -117 )">
    <path d="M 23.1156587946429 22.8725250803571  C 20.5680245625 25.4575224375  17.1716561785714 26.8802651517857  13.5498394285714 26.8802651517857  C 9.92918434821429 26.8802651517857  6.53168132142857 25.4575224107143  3.98412811607143 22.8725250803571  C 3.87303838392857 22.7604357589286  3.81368426785714 22.6053370178571  3.82249149107143 22.4470233482143  C 3.95776052678571 19.9511247053571  5.60152100892857 19.2177758571429  8.58338314285714 17.8874007589286  C 9.0275529375 17.6894816517857  9.50473623214286 17.4761094375  10.0193637053571 17.2386929732143  C 10.3491748392857 17.0858365446429  10.6438921875 16.2523394196429  10.8890622321429 15.5025107946429  C 9.58832367857143 14.4293818928571  8.87804646428572 12.5607943928571  8.87804646428572 10.1824693125  C 8.87804646428572 6.54917075892857  11.3948284553571 5.2600220625  13.5498664285714 5.2600220625  C 15.7049314285714 5.2600220625  18.2217134196429 6.54914373214286  18.2217134196429 10.1824693125  C 18.2217134196429 12.5612806875  17.5114632053571 14.4293818928571  16.2106976517857 15.5025107946429  C 16.4547870535714 16.2523394196429  16.7494774017857 17.0858095178571  17.0815308482143 17.2386929732143  C 17.5949695982143 17.4761094375  18.0743682321429 17.6894816785714  18.5174303571429 17.8874007589286  C 21.4993735446429 19.2189375267857  23.1420263839286 19.952232375  23.27616075 22.4470233482143  C 23.2849679732143 22.6053370178571  23.2266674732143 22.7604357589286  23.1156587946429 22.8725250803571  Z M 9.04289801785714 18.9154400089286  C 6.15453816964286 20.2040753571429  5.13965574107143 20.7296443125  4.96705063392857 22.2634227321429  C 7.28042927678571 24.5163936428571  10.3184306517857 25.7544010714286  13.5498124017857 25.7544010714286  C 16.782409875 25.7544010714286  19.8192495535714 24.5163936428572  22.1315205535714 22.2634227321429  C 21.9588884196429 20.7296713392857  20.9451946875 20.2040753839286  18.058942125 18.9154399821429  C 17.6114764017857 18.7164672589286  17.1275931160714 18.5009337589286  16.6097237410714 18.2612479553571  C 15.796110375 17.8851854732143  15.4420659375 16.786769625  15.067165125 15.6245150089286  L 15.0154565357143 15.4662283660714  C 14.9374073571429 15.2265695892857  15.0286403303571 14.9637310714286  15.2386355625 14.8241394910714  C 16.4360379642857 14.0253849375  17.0957412857143 12.3765994553571  17.0957412857143 10.1824693660714  C 17.0957412857143 6.65972022321429  14.3810672142857 6.38594025  13.5497854017857 6.38594025  C 12.717477 6.38594025  10.0038835446429 6.65972022321429  10.0038835446429 10.1824693660714  C 10.0038835446429 12.3760051071429  10.6635868392857 14.0247905892857  11.8620698839286 14.8241394910714  C 12.0709574732143 14.9637310714286  12.1611368303571 15.2265695892857  12.0841682946429 15.4662283660714  L 12.0336214017857 15.6212731071429  C 11.6575589196429 16.7856349821429  11.3035414553571 17.8851855  10.4920894017857 18.2612479821429  C 9.97313938392857 18.4997450892857  9.48933715178572 18.7152785892857  9.04289801785714 18.9154400089286  Z M 23.1156317946429 22.8725250803572  C 23.0078380178571 22.9824801428571  22.8627351696429 23.0407536160714  22.7142553125 23.0407536160714  C 22.6472286696429 23.0407536160714  22.580175 23.0287314910714  22.5152825892857 23.0044981607143  C 22.306395 22.9252602857143  22.1645610803571 22.7307181875  22.1524039017857 22.5086468035714  C 22.0589556160714 20.7824335446429  21.0947281607143 20.2711020267857  18.0589420982143 18.9154399821429  C 17.611476375 18.7164672589286  17.1275930892857 18.5009337589286  16.6097237142857 18.2612479553571  C 15.7961103482143 17.8851854732143  15.4420659107143 16.786769625  15.0671650982143 15.6245150089286  L 15.0154565089286 15.4662283660714  C 14.9374073303571 15.2265695892857  15.0286403035714 14.9637310714286  15.2386355357143 14.8241394910714  C 16.4360379375 14.0253849375  17.0957412589286 12.3765994553571  17.0957412589286 10.1824693660714  C 17.0957412589286 6.65972022321429  14.3810671875 6.38594025  13.549785375 6.38594025  C 12.7174769732143 6.38594025  10.0038835178571 6.65972022321429  10.0038835178571 10.1824693660714  C 10.0038835178571 12.3760051071429  10.6635868125 14.0247905892857  11.8620698571429 14.8241394910714  C 12.0709574464286 14.9637310714286  12.1611368035714 15.2265695892857  12.0841682678571 15.4662283660714  L 12.033621375 15.6212731071429  C 11.6575588928571 16.7856349821429  11.3035414285714 17.8851855  10.492089375 18.2612479821429  C 9.97313935714286 18.4997450892857  9.489337125 18.7152785892857  9.04289799107143 18.9154400089286  C 6.00608533928571 20.2700214107143  5.04066916071429 20.781271875  4.94614025892857 22.5086468303571  C 4.93514475 22.7307452410714  4.79223021428572 22.9252873125  4.58439624107143 23.0044981875  C 4.37880460714286 23.0836280089286  4.14133411607143 23.0330540892857  3.98410108928572 22.8725251071429  C 1.48928308928571 20.3426133214286  0.116006625 16.9946035446429  0.116006625 13.446459375  C 0.116006625 6.0390009375  6.14243501785714 0.012572544642859  13.5498394285714 0.012572544642859  C 20.9572978660714 0.012572544642859  26.9836992321429 6.0390009375  26.9836992321429 13.446459375  C 26.9836992321429 16.9946035446429  25.609315125 20.3426133214286  23.1156317946429 22.8725250803572  Z M 18.2216593660714 10.1824963392857  C 18.2216593928571 12.5613077142857  17.5114091785714 14.4294089196429  16.210670625 15.5025378214286  C 16.4547600267857 16.2523664464286  16.749450375 17.0858365446429  17.0815038214286 17.23872  C 17.5949425714286 17.4761364642857  18.0743412053571 17.6895087053571  18.5174033303571 17.8874277857143  C 20.9627820803571 18.9791976964286  22.5064753660714 19.6686726160714  23.0583848839286 21.2574015535714  C 24.8704009285714 19.0594621875  25.8577810714286 16.3249854107143  25.8577810714286 13.4464864285714  C 25.8577810714286 6.65977425  20.3360382589286 1.13849070535714  13.549812375 1.13849070535714  C 6.762559875 1.13849070535714  1.24187067857143 6.65974722321429  1.24187067857143 13.4464864285714  C 1.24187067857143 16.3249854107143  2.22814317857143 19.0584085714286  4.04123986607143 21.2574015535714  C 4.59206874107143 19.6686456160714  6.13803139285714 18.9781440803571  8.58332908928572 17.8874277857143  C 9.02749888392857 17.6895086785714  9.50468217857143 17.4761364642857  10.0193096517857 17.23872  C 10.3491207857143 17.0858635714286  10.6438381339286 16.2523664464286  10.8890081785714 15.5025378214286  C 9.588269625 14.4294089196429  8.87799241071429 12.5608214196429  8.87799241071429 10.1824963392857  C 8.87799241071429 6.54919778571429  11.3947744017857 5.26004908928572  13.549812375 5.26004908928572  C 15.704877375 5.26004908928572  18.2216593660714 6.54917075892857  18.2216593660714 10.1824963392857  Z " fill-rule="nonzero" fill="#666666" stroke="none" transform="matrix(1 0 0 1 19 117 )" />
  </g>
</svg>