<?xml version="1.0" encoding="utf-8"?>
<svg version="1.1" xmlns:xlink="http://www.w3.org/1999/xlink" width="43px" height="36px" xmlns="http://www.w3.org/2000/svg">
  <g transform="matrix(1 0 0 1 -209 -244 )">
    <path d="M 13.3877314814815 31.7556818181818  C 14.0181327160494 31.1079545454545  14.3333333333333 30.3409090909091  14.3333333333333 29.4545454545455  C 14.3333333333333 28.5681818181818  14.0181327160494 27.8011363636364  13.3877314814815 27.1534090909091  C 12.7573302469136 26.5056818181818  12.0108024691358 26.1818181818182  11.1481481481481 26.1818181818182  C 10.2854938271605 26.1818181818182  9.53896604938272 26.5056818181818  8.90856481481481 27.1534090909091  C 8.27816358024691 27.8011363636364  7.96296296296296 28.5681818181818  7.96296296296296 29.4545454545455  C 7.96296296296296 30.3409090909091  8.27816358024691 31.1079545454545  8.90856481481481 31.7556818181818  C 9.53896604938272 32.4034090909091  10.2854938271605 32.7272727272727  11.1481481481481 32.7272727272727  C 12.0108024691358 32.7272727272727  12.7573302469136 32.4034090909091  13.3877314814815 31.7556818181818  Z M 4.77777777777778 15.5965909090909  L 4.77777777777778 16.3636363636364  L 14.3333333333333 16.3636363636364  L 14.3333333333333 9.81818181818182  L 10.4016203703704 9.81818181818182  C 10.1859567901235 9.81818181818182  10.0034722222222 9.89488636363637  9.85416666666667 10.0482954545455  L 5.00173611111111 15.0340909090909  C 4.85243055555556 15.1875  4.77777777777778 15.375  4.77777777777778 15.5965909090909  Z M 35.6840277777778 31.7556818181818  C 36.3144290123457 31.1079545454545  36.6296296296296 30.3409090909091  36.6296296296296 29.4545454545455  C 36.6296296296296 28.5681818181818  36.3144290123457 27.8011363636364  35.6840277777778 27.1534090909091  C 35.0536265432099 26.5056818181818  34.3070987654321 26.1818181818182  33.4444444444444 26.1818181818182  C 32.5817901234568 26.1818181818182  31.835262345679 26.5056818181818  31.2048611111111 27.1534090909091  C 30.5744598765432 27.8011363636364  30.2592592592593 28.5681818181818  30.2592592592593 29.4545454545455  C 30.2592592592593 30.3409090909091  30.5744598765432 31.1079545454545  31.2048611111111 31.7556818181818  C 31.835262345679 32.4034090909091  32.5817901234568 32.7272727272727  33.4444444444444 32.7272727272727  C 34.3070987654321 32.7272727272727  35.0536265432099 32.4034090909091  35.6840277777778 31.7556818181818  Z M 42.5271990740741 0.485795454545456  C 42.842399691358 0.809659090909086  43 1.19318181818182  43 1.63636363636363  L 43 27.8181818181818  C 43 28.0738636363636  42.9668209876543 28.2997159090909  42.900462962963 28.4957386363636  C 42.8341049382716 28.6917613636364  42.7221257716049 28.8494318181818  42.564525462963 28.96875  C 42.406925154321 29.0880681818182  42.2700617283951 29.1860795454545  42.1539351851852 29.2627840909091  C 42.0378086419753 29.3394886363636  41.8428819444444 29.390625  41.5691550925926 29.4161931818182  C 41.2954282407407 29.4417613636364  41.1087962962963 29.4588068181818  41.0092592592593 29.4673295454545  C 40.9097222222222 29.4758522727273  40.6982060185185 29.4758522727273  40.3747106481482 29.4673295454545  C 40.0512152777778 29.4588068181818  39.8645833333333 29.4545454545455  39.8148148148148 29.4545454545455  C 39.8148148148148 31.2613636363636  39.1927083333333 32.8039772727273  37.9484953703704 34.0823863636364  C 36.7042824074074 35.3607954545455  35.2029320987654 36  33.4444444444444 36  C 31.6859567901235 36  30.1846064814815 35.3607954545455  28.9403935185185 34.0823863636364  C 27.6961805555556 32.8039772727273  27.0740740740741 31.2613636363636  27.0740740740741 29.4545454545455  L 17.5185185185185 29.4545454545455  C 17.5185185185185 31.2613636363636  16.896412037037 32.8039772727273  15.6521990740741 34.0823863636364  C 14.4079861111111 35.3607954545455  12.9066358024691 36  11.1481481481481 36  C 9.38966049382716 36  7.88831018518519 35.3607954545455  6.64409722222222 34.0823863636364  C 5.39988425925926 32.8039772727273  4.77777777777778 31.2613636363636  4.77777777777778 29.4545454545455  L 3.18518518518519 29.4545454545455  C 3.13541666666667 29.4545454545455  2.94878472222222 29.4588068181818  2.62528935185185 29.4673295454545  C 2.30179398148148 29.4758522727273  2.09027777777778 29.4758522727273  1.99074074074074 29.4673295454545  C 1.8912037037037 29.4588068181818  1.70457175925926 29.4417613636364  1.43084490740741 29.4161931818182  C 1.15711805555556 29.390625  0.962191358024692 29.3394886363636  0.846064814814815 29.2627840909091  C 0.729938271604939 29.1860795454545  0.593074845679013 29.0880681818182  0.435474537037037 28.96875  C 0.277874228395062 28.8494318181818  0.165895061728395 28.6917613636364  0.099537037037037 28.4957386363636  C 0.0331790123456793 28.2997159090909  0 28.0738636363636  0 27.8181818181818  C 0 27.375  0.157600308641976 26.9914772727273  0.472800925925926 26.6676136363636  C 0.788001543209877 26.34375  1.16126543209877 26.1818181818182  1.59259259259259 26.1818181818182  L 1.59259259259259 18  C 1.59259259259259 17.8636363636364  1.58844521604938 17.5653409090909  1.58015046296296 17.1051136363636  C 1.57185570987654 16.6448863636364  1.57185570987654 16.3210227272727  1.58015046296296 16.1335227272727  C 1.58844521604938 15.9460227272727  1.60918209876543 15.6519886363636  1.64236111111111 15.2514204545455  C 1.67554012345679 14.8508522727273  1.72945601851852 14.5355113636364  1.8041087962963 14.3053977272727  C 1.87876157407407 14.0752840909091  1.99488811728395 13.8153409090909  2.15248842592593 13.5255681818182  C 2.3100887345679 13.2357954545455  2.49672067901235 12.9801136363636  2.71238425925926 12.7585227272727  L 7.63946759259259 7.69602272727273  C 7.95466820987654 7.37215909090909  8.37355324074074 7.09943181818182  8.89612268518519 6.87784090909091  C 9.41869212962963 6.65625  9.90393518518519 6.54545454545454  10.3518518518519 6.54545454545454  L 14.3333333333333 6.54545454545454  L 14.3333333333333 1.63636363636363  C 14.3333333333333 1.19318181818182  14.4909336419753 0.809659090909086  14.8061342592593 0.485795454545456  C 15.1213348765432 0.161931818181815  15.4945987654321 0  15.9259259259259 0  L 41.4074074074074 0  C 41.8387345679012 0  42.2119984567901 0.161931818181815  42.5271990740741 0.485795454545456  Z " fill-rule="nonzero" fill="#a30014" stroke="none" transform="matrix(1 0 0 1 209 244 )" />
  </g>
</svg>