<?xml version="1.0" encoding="utf-8"?>
<svg version="1.1" xmlns:xlink="http://www.w3.org/1999/xlink" width="44px" height="35px" xmlns="http://www.w3.org/2000/svg">
  <g transform="matrix(1 0 0 1 -117 -243 )">
    <path d="M 3.66666666666667 0  L 40.3333333333333 0  C 41.3416666666667 0  42.2048611111111 0.356987847222219  42.9229166666667 1.07096354166667  C 43.6409722222222 1.78493923611111  44 2.64322916666667  44 3.64583333333333  L 44 31.3541666666667  C 44 32.3567708333333  43.6409722222222 33.2150607638889  42.9229166666667 33.9290364583333  C 42.2048611111111 34.6430121527778  41.3416666666667 35  40.3333333333333 35  L 3.66666666666667 35  C 2.65833333333333 35  1.79513888888889 34.6430121527778  1.07708333333333 33.9290364583333  C 0.359027777777778 33.2150607638889  0 32.3567708333333  0 31.3541666666667  L 0 3.64583333333333  C 0 2.64322916666667  0.359027777777778 1.78493923611111  1.07708333333333 1.07096354166667  C 1.79513888888889 0.356987847222219  2.65833333333333 0  3.66666666666667 0  Z M 40.3333333333333 3  L 3.66666666666667 3  C 3.46805555555556 2.91666666666667  3.29618055555556 2.98882378472222  3.15104166666667 3.13313802083333  C 3.00590277777778 3.27745225694444  2.93333333333333 3.44835069444444  2.93333333333333 3.64583333333333  L 2.93333333333333 9  L 41.0666666666667 9  L 41.0666666666667 3.64583333333333  C 41.0666666666667 3.44835069444444  40.9940972222222 3.27745225694444  40.8489583333333 3.13313802083333  C 40.7038194444444 2.98882378472222  40.5319444444444 2.91666666666667  40.3333333333333 3  Z M 3.66666666666667 32  L 40.3333333333333 32  C 40.5319444444444 32.0833333333333  40.7038194444444 32.0111762152778  40.8489583333333 31.8668619791667  C 40.9940972222222 31.7225477430556  41.0666666666667 31.5516493055556  41 31.3541666666667  L 41 17  L 3 17  L 3 31.3541666666667  C 2.93333333333333 31.5516493055556  3.00590277777778 31.7225477430556  3.15104166666667 31.8668619791667  C 3.29618055555556 32.0111762152778  3.46805555555556 32.0833333333333  3.66666666666667 32  Z M 11.7333333333333 29.1666666666667  L 5.86666666666667 29.1666666666667  L 5.86666666666667 26.25  L 11.7333333333333 26.25  L 11.7333333333333 29.1666666666667  Z M 23.4666666666667 29.1666666666667  L 14.6666666666667 29.1666666666667  L 14.6666666666667 26.25  L 23.4666666666667 26.25  L 23.4666666666667 29.1666666666667  Z " fill-rule="nonzero" fill="#a30014" stroke="none" transform="matrix(1 0 0 1 117 243 )" />
  </g>
</svg>