<?xml version="1.0" encoding="utf-8"?>
<svg version="1.1" xmlns:xlink="http://www.w3.org/1999/xlink" width="43px" height="37px" xmlns="http://www.w3.org/2000/svg">
  <g transform="matrix(1 0 0 1 -304 -243 )">
    <path d="M 30.654296875 4.75748697916667  C 27.8148251488095 3.64138454861111  24.7633928571429 3.08333333333333  21.5 3.08333333333333  C 18.2366071428571 3.08333333333333  15.1851748511905 3.64138454861111  12.345703125 4.75748697916667  C 9.50623139880952 5.87358940972222  7.25065104166667 7.37912326388889  5.57896205357143 9.27408854166667  C 3.90727306547619 11.1690538194444  3.07142857142857 13.2165798611111  3.07142857142857 15.4166666666667  C 3.07142857142857 17.2152777777778  3.64332217261905 18.9295789930556  4.787109375 20.5595703125  C 5.93089657738095 22.1895616319444  7.54259672619048 23.5987413194444  9.62220982142857 24.787109375  L 11.7098214285714 25.9915364583333  L 11.0619419642857 28.3040364583333  C 10.6780133928571 29.7654079861111  10.1181175595238 31.146484375  9.38225446428571 32.447265625  C 11.8138020833333 31.435546875  14.0133928571429 30.0625  15.9810267857143 28.328125  L 17.0128348214286 27.4127604166667  L 18.3805803571429 27.5572916666667  C 19.484375 27.6857638888889  20.524181547619 27.75  21.5 27.75  C 24.7633928571429 27.75  27.8148251488095 27.1919487847222  30.654296875 26.0758463541667  C 33.4937686011905 24.9597439236111  35.7493489583333 23.4542100694444  37.4210379464286 21.5592447916667  C 39.0927269345238 19.6642795138889  39.9285714285714 17.6167534722222  39.9285714285714 15.4166666666667  C 39.9285714285714 13.2165798611111  39.0927269345238 11.1690538194444  37.4210379464286 9.27408854166667  C 35.7493489583333 7.37912326388889  33.4937686011905 5.87358940972222  30.654296875 4.75748697916667  Z M 40.1205357142857 7.67220052083333  C 42.0401785714286 10.0409071180556  43 12.6223958333333  43 15.4166666666667  C 43 18.2109375  42.0401785714286 20.7924262152778  40.1205357142857 23.1611328125  C 38.2008928571429 25.5298394097222  35.5933779761905 27.4007161458333  32.2979910714286 28.7737630208333  C 29.0026041666667 30.1468098958333  25.4032738095238 30.8333333333333  21.5 30.8333333333333  C 20.3802083333333 30.8333333333333  19.2204241071429 30.7690972222222  18.0206473214286 30.640625  C 14.8532366071429 33.4509548611111  11.1739211309524 35.3940972222222  6.98270089285714 36.4700520833333  C 6.19884672619048 36.6948784722222  5.28701636904762 36.8715277777778  4.24720982142857 37  L 4.12723214285714 37  C 3.88727678571429 37  3.67131696428571 36.9156901041667  3.47935267857143 36.7470703125  C 3.28738839285714 36.5784505208333  3.15941220238095 36.3576388888889  3.09542410714286 36.0846354166667  L 3.09542410714286 36.060546875  C 3.04743303571429 35.9963107638889  3.04343377976191 35.8999565972222  3.08342633928571 35.771484375  C 3.12341889880952 35.6430121527778  3.13941592261905 35.5627170138889  3.13141741071429 35.5305989583333  C 3.12341889880952 35.4984809027778  3.15941220238095 35.4222005208333  3.23939732142857 35.3017578125  L 3.38337053571429 35.0849609375  C 3.38337053571429 35.0849609375  3.43936011904762 35.0167100694445  3.55133928571429 34.8802083333333  C 3.66331845238095 34.7437065972222  3.72730654761905 34.6714409722222  3.74330357142857 34.6634114583333  C 3.85528273809524 34.5349392361111  4.10323660714286 34.2579210069445  4.48716517857143 33.8323567708333  C 4.87109375 33.4067925347222  5.14704241071429 33.1016710069445  5.31501116071429 32.9169921875  C 5.48297991071429 32.7323133680556  5.73093377976191 32.4151475694445  6.05887276785714 31.9654947916667  C 6.38681175595238 31.5158420138889  6.64676339285714 31.1063368055556  6.83872767857143 30.7369791666667  C 7.03069196428571 30.3676215277778  7.24665178571429 29.8938802083333  7.48660714285714 29.3157552083333  C 7.7265625 28.7376302083333  7.93452380952381 28.1273871527778  8.11049107142857 27.4850260416667  C 5.59895833333333 26.0557725694444  3.61932663690476 24.2892795138889  2.17159598214286 22.185546875  C 0.723865327380952 20.0818142361111  0 17.8255208333333  0 15.4166666666667  C 0 12.6223958333333  0.959821428571429 10.0409071180556  2.87946428571429 7.67220052083333  C 4.79910714285714 5.30349392361111  7.40662202380952 3.4326171875  10.7020089285714 2.0595703125  C 13.9973958333333 0.6865234375  17.5967261904762 0  21.5 0  C 25.4032738095238 0  29.0026041666667 0.6865234375  32.2979910714286 2.0595703125  C 35.5933779761905 3.4326171875  38.2008928571429 5.30349392361111  40.1205357142857 7.67220052083333  Z " fill-rule="nonzero" fill="#a30014" stroke="none" transform="matrix(1 0 0 1 304 243 )" />
  </g>
</svg>