<?xml version="1.0" encoding="utf-8"?>
<svg version="1.1" xmlns:xlink="http://www.w3.org/1999/xlink" width="24px" height="20px" xmlns="http://www.w3.org/2000/svg">
  <g transform="matrix(1 0 0 1 -37 -171 )">
    <path d="M 19.7678571428571 10.7291666666667  C 21.4464285714286 9.09722222222222  22.2857142857143 7.55208333333333  22.2857142857143 6.09375  C 22.2857142857143 5.390625  22.1897321428571 4.76996527777778  21.9977678571429 4.23177083333333  C 21.8058035714286 3.69357638888889  21.5602678571429 3.26605902777778  21.2611607142857 2.94921875  C 20.9620535714286 2.63237847222222  20.5982142857143 2.37413194444444  20.1696428571429 2.17447916666667  C 19.7410714285714 1.97482638888889  19.3214285714286 1.84027777777778  18.9107142857143 1.77083333333333  C 18.5 1.70138888888889  18.0625 1.66666666666667  17.5982142857143 1.66666666666667  C 17.1339285714286 1.66666666666667  16.6339285714286 1.77734375  16.0982142857143 1.99869791666667  C 15.5625 2.22005208333333  15.0691964285714 2.49782986111111  14.6183035714286 2.83203125  C 14.1674107142857 3.16623263888889  13.78125 3.47873263888889  13.4598214285714 3.76953125  C 13.1383928571429 4.06032986111111  12.8705357142857 4.32725694444444  12.65625 4.5703125  C 12.4955357142857 4.76128472222222  12.2767857142857 4.85677083333333  12 4.85677083333333  C 11.7232142857143 4.85677083333333  11.5044642857143 4.76128472222222  11.34375 4.5703125  C 11.1294642857143 4.32725694444444  10.8616071428571 4.06032986111111  10.5401785714286 3.76953125  C 10.21875 3.47873263888889  9.83258928571429 3.16623263888889  9.38169642857143 2.83203125  C 8.93080357142857 2.49782986111111  8.4375 2.22005208333333  7.90178571428572 1.99869791666667  C 7.36607142857143 1.77734375  6.86607142857143 1.66666666666667  6.40178571428572 1.66666666666667  C 5.9375 1.66666666666667  5.5 1.70138888888889  5.08928571428571 1.77083333333333  C 4.67857142857143 1.84027777777778  4.25892857142857 1.97482638888889  3.83035714285714 2.17447916666667  C 3.40178571428571 2.37413194444444  3.03794642857143 2.63237847222222  2.73883928571429 2.94921875  C 2.43973214285714 3.26605902777778  2.19419642857143 3.69357638888889  2.00223214285714 4.23177083333333  C 1.81026785714286 4.76996527777778  1.71428571428571 5.390625  1.71428571428571 6.09375  C 1.71428571428571 7.55208333333333  2.54910714285714 9.09288194444444  4.21875 10.7161458333333  L 12 18.0078125  L 19.7678571428571 10.7291666666667  Z M 22.2991071428571 1.61458333333333  C 23.4330357142857 2.69097222222222  24 4.18402777777778  24 6.09375  C 24 8.01215277777778  22.9776785714286 9.96527777777778  20.9330357142857 11.953125  L 12.5892857142857 19.765625  C 12.4285714285714 19.921875  12.2321428571429 20  12 20  C 11.7678571428571 20  11.5714285714286 19.921875  11.4107142857143 19.765625  L 3.05357142857143 11.9270833333333  C 2.96428571428571 11.8576388888889  2.84151785714286 11.7447916666667  2.68526785714286 11.5885416666667  C 2.52901785714286 11.4322916666667  2.28125 11.1480034722222  1.94196428571429 10.7356770833333  C 1.60267857142857 10.3233506944444  1.29910714285714 9.90017361111111  1.03125 9.46614583333333  C 0.763392857142857 9.03211805555556  0.524553571428572 8.50694444444444  0.314732142857143 7.890625  C 0.104910714285714 7.27430555555555  0 6.67534722222222  0 6.09375  C 0 4.18402777777778  0.566964285714286 2.69097222222222  1.70089285714286 1.61458333333333  C 2.83482142857143 0.538194444444444  4.40178571428571 0  6.40178571428572 0  C 6.95535714285714 0  7.52008928571428 0.093315972222221  8.09598214285714 0.279947916666667  C 8.671875 0.466579861111109  9.20758928571428 0.718315972222221  9.703125 1.03515625  C 10.1986607142857 1.35199652777778  10.625 1.64930555555555  10.9821428571429 1.92708333333333  C 11.3392857142857 2.20486111111111  11.6785714285714 2.5  12 2.8125  C 12.3214285714286 2.5  12.6607142857143 2.20486111111111  13.0178571428571 1.92708333333333  C 13.375 1.64930555555555  13.8013392857143 1.35199652777778  14.296875 1.03515625  C 14.7924107142857 0.718315972222221  15.328125 0.466579861111109  15.9040178571429 0.279947916666667  C 16.4799107142857 0.093315972222221  17.0446428571429 0  17.5982142857143 0  C 19.5982142857143 0  21.1651785714286 0.538194444444444  22.2991071428571 1.61458333333333  Z " fill-rule="nonzero" fill="#000000" stroke="none" transform="matrix(1 0 0 1 37 171 )" />
  </g>
</svg>