<?xml version="1.0" encoding="utf-8"?>
<svg version="1.1" xmlns:xlink="http://www.w3.org/1999/xlink" width="24px" height="20px" xmlns="http://www.w3.org/2000/svg">
  <g transform="matrix(1 0 0 1 -217 -170 )">
    <path d="M 5.18799368088468 5.41914191419142  C 5.50394944707741 5.08910891089109  5.66192733017377 4.69086908690869  5.66192733017377 4.22442244224422  C 5.66192733017377 3.75797579757976  5.50394944707741 3.35973597359736  5.18799368088468 3.02970297029703  C 4.87203791469194 2.6996699669967  4.49078462348605 2.53465346534653  4.04423380726698 2.53465346534653  C 3.59768299104792 2.53465346534653  3.21642969984202 2.6996699669967  2.90047393364929 3.02970297029703  C 2.58451816745656 3.35973597359736  2.42654028436019 3.75797579757976  2.42654028436019 4.22442244224422  C 2.42654028436019 4.69086908690869  2.58451816745656 5.08910891089109  2.90047393364929 5.41914191419142  C 3.21642969984202 5.74917491749175  3.59768299104792 5.91419141914191  4.04423380726698 5.91419141914191  C 4.49078462348605 5.91419141914191  4.87203791469194 5.74917491749175  5.18799368088468 5.41914191419142  Z M 18.6793048973144 10.6270627062706  C 18.9910479199579 10.970297029703  19.1469194312796 11.3707370737074  19.1469194312796 11.8283828382838  C 19.1469194312796 12.2948294829483  18.9910479199579 12.6908690869087  18.6793048973144 13.016501650165  L 12.4739336492891 19.5115511551155  C 12.1453396524487 19.8371837183718  11.7619799894681 20  11.3238546603475 20  C 10.8773038441285 20  10.4981569246972 19.8371837183718  10.1864139020537 19.5115511551155  L 1.15007898894155 10.0594059405941  C 0.829910479199579 9.73377337733773  0.558188520273828 9.28932893289329  0.334913112164297 8.72607260726073  C 0.111637704054766 8.16281628162816  0 7.64796479647965  0 7.18151815181518  L 0 1.68976897689769  C 0 1.23212321232123  0.160084254870985 0.836083608360836  0.480252764612954 0.501650165016501  C 0.800421274354924 0.167216721672165  1.1795681937862 0  1.61769352290679 0  L 6.87519747235387 0  C 7.32174828857293 0  7.8146392838336 0.116611661166115  8.35387045813586 0.349834983498349  C 8.89310163243813 0.583058305830582  9.32280147446024 0.866886688668864  9.64296998420221 1.2013201320132  L 18.6793048973144 10.6270627062706  Z M 23.5323854660348 10.6270627062706  C 23.8441284886783 10.970297029703  24 11.3707370737074  24 11.8283828382838  C 24 12.2948294829483  23.8441284886783 12.6908690869087  23.5323854660348 13.016501650165  L 17.3270142180095 19.5115511551155  C 16.998420221169 19.8371837183718  16.6150605581885 20  16.1769352290679 20  C 15.8736176935229 20  15.625065824118 19.9383938393839  15.4312796208531 19.8151815181518  C 15.2374934175882 19.6919691969197  15.0142180094787 19.4939493949395  14.7614533965245 19.2211221122112  L 20.7014218009479 13.016501650165  C 21.0131648235914 12.6908690869087  21.1690363349131 12.2948294829483  21.1690363349131 11.8283828382838  C 21.1690363349131 11.3707370737074  21.0131648235914 10.970297029703  20.7014218009479 10.6270627062706  L 11.6650868878357 1.2013201320132  C 11.3449183780937 0.866886688668864  10.9152185360716 0.583058305830582  10.3759873617694 0.349834983498349  C 9.83675618746709 0.116611661166115  9.34386519220642 0  8.89731437598736 0  L 11.7282780410743 0  C 12.1748288572933 0  12.667719852554 0.116611661166115  13.2069510268562 0.349834983498349  C 13.7461822011585 0.583058305830582  14.1758820431806 0.866886688668864  14.4960505529226 1.2013201320132  L 23.5323854660348 10.6270627062706  Z " fill-rule="nonzero" fill="#000000" stroke="none" transform="matrix(1 0 0 1 217 170 )" />
  </g>
</svg>