<?xml version="1.0" encoding="utf-8"?>
<svg version="1.1" xmlns:xlink="http://www.w3.org/1999/xlink" width="11px" height="17px" xmlns="http://www.w3.org/2000/svg">
  <g transform="matrix(1 0 0 1 -187 -65 )">
    <path d="M 10.1692708333333 2.56138392857143  C 10.7230902777778 3.44047619047619  11 4.40811011904762  11 5.46428571428571  C 11 6.86197916666667  10.5305266203704 8.07784598214286  9.59157986111111 9.11188616071429  C 8.65263310185185 10.1459263392857  7.49247685185185 10.7388392857143  6.11111111111111 10.890625  L 6.11111111111111 13.3571428571429  L 8.25 13.3571428571429  C 8.33912037037037 13.3571428571429  8.41232638888889 13.3856026785714  8.46961805555556 13.4425223214286  C 8.52690972222222 13.4994419642857  8.55555555555556 13.5721726190476  8.55555555555556 13.6607142857143  L 8.55555555555556 14.2678571428571  C 8.55555555555556 14.3563988095238  8.52690972222222 14.4291294642857  8.46961805555556 14.4860491071429  C 8.41232638888889 14.54296875  8.33912037037037 14.5714285714286  8.25 14.5714285714286  L 6.11111111111111 14.5714285714286  L 6.11111111111111 16.6964285714286  C 6.11111111111111 16.7849702380952  6.08246527777778 16.8577008928571  6.02517361111111 16.9146205357143  C 5.96788194444444 16.9715401785714  5.89467592592593 17  5.80555555555556 17  L 5.19444444444444 17  C 5.10532407407408 17  5.03211805555556 16.9715401785714  4.97482638888889 16.9146205357143  C 4.91753472222222 16.8577008928571  4.88888888888889 16.7849702380952  4.88888888888889 16.6964285714286  L 4.88888888888889 14.5714285714286  L 2.75 14.5714285714286  C 2.66087962962963 14.5714285714286  2.58767361111111 14.54296875  2.53038194444444 14.4860491071429  C 2.47309027777778 14.4291294642857  2.44444444444444 14.3563988095238  2.44444444444444 14.2678571428571  L 2.44444444444444 13.6607142857143  C 2.44444444444444 13.5721726190476  2.47309027777778 13.4994419642857  2.53038194444444 13.4425223214286  C 2.58767361111111 13.3856026785714  2.66087962962963 13.3571428571429  2.75 13.3571428571429  L 4.88888888888889 13.3571428571429  L 4.88888888888889 10.890625  C 3.93402777777778 10.7894345238095  3.06987847222222 10.4637276785714  2.29644097222222 9.91350446428571  C 1.52300347222222 9.36328125  0.930989583333333 8.65494791666667  0.520399305555556 7.78850446428571  C 0.109809027777778 6.92206101190476  -0.0572916666666667 5.99869791666667  0.0190972222222222 5.01841517857143  C 0.0891203703703704 4.17094494047619  0.345341435185185 3.38355654761905  0.787760416666667 2.65625  C 1.23017939814815 1.92894345238095  1.80946180555556 1.3344494047619  2.52560763888889 0.872767857142857  C 3.24175347222222 0.411086309523809  4.02314814814815 0.1328125  4.86979166666667 0.0379464285714294  C 5.95196759259259 -0.0822172619047659  6.96730324074074 0.0885416666666635  7.91579861111111 0.550223214285714  C 8.86429398148148 1.01190476190476  9.61545138888889 1.68229166666667  10.1692708333333 2.56138392857143  Z M 2.47786458333333 2.46177455357143  C 1.64076967592593 3.2934337797619  1.22222222222222 4.29427083333333  1.22222222222222 5.46428571428571  C 1.22222222222222 6.63430059523809  1.64076967592593 7.63513764880952  2.47786458333333 8.466796875  C 3.31495949074074 9.29845610119048  4.32233796296296 9.71428571428571  5.5 9.71428571428571  C 6.67766203703704 9.71428571428571  7.68504050925926 9.29845610119048  8.52213541666667 8.466796875  C 9.35923032407407 7.63513764880952  9.77777777777778 6.63430059523809  9.77777777777778 5.46428571428571  C 9.77777777777778 4.29427083333333  9.35923032407407 3.2934337797619  8.52213541666667 2.46177455357143  C 7.68504050925926 1.63011532738095  6.67766203703704 1.21428571428571  5.5 1.21428571428571  C 4.32233796296296 1.21428571428571  3.31495949074074 1.63011532738095  2.47786458333333 2.46177455357143  Z " fill-rule="nonzero" fill="#ec808d" stroke="none" transform="matrix(1 0 0 1 187 65 )" />
  </g>
</svg>