<?xml version="1.0" encoding="utf-8"?>
<svg version="1.1" xmlns:xlink="http://www.w3.org/1999/xlink" width="21px" height="21px" xmlns="http://www.w3.org/2000/svg">
  <g transform="matrix(1 0 0 1 -225 -9 )">
    <path d="M 14.970703125 2.7001953125  C 13.583984375 2.06673177083333  12.09375 1.75  10.5 1.75  C 8.90625 1.75  7.416015625 2.06673177083333  6.029296875 2.7001953125  C 4.642578125 3.33365885416667  3.541015625 4.18815104166667  2.724609375 5.263671875  C 1.908203125 6.33919270833333  1.5 7.50130208333333  1.5 8.75  C 1.5 9.77083333333333  1.779296875 10.7438151041667  2.337890625 11.6689453125  C 2.896484375 12.5940755208333  3.68359375 13.3938802083333  4.69921875 14.068359375  L 5.71875 14.751953125  L 5.40234375 16.064453125  C 5.21484375 16.8938802083333  4.94140625 17.677734375  4.58203125 18.416015625  C 5.76953125 17.841796875  6.84375 17.0625  7.8046875 16.078125  L 8.30859375 15.55859375  L 8.9765625 15.640625  C 9.515625 15.7135416666667  10.0234375 15.75  10.5 15.75  C 12.09375 15.75  13.583984375 15.4332682291667  14.970703125 14.7998046875  C 16.357421875 14.1663411458333  17.458984375 13.3118489583333  18.275390625 12.236328125  C 19.091796875 11.1608072916667  19.5 9.99869791666667  19.5 8.75  C 19.5 7.50130208333333  19.091796875 6.33919270833333  18.275390625 5.263671875  C 17.458984375 4.18815104166667  16.357421875 3.33365885416667  14.970703125 2.7001953125  Z M 19.59375 4.3544921875  C 20.53125 5.69889322916667  21 7.1640625  21 8.75  C 21 10.3359375  20.53125 11.8011067708333  19.59375 13.1455078125  C 18.65625 14.4899088541667  17.3828125 15.5517578125  15.7734375 16.3310546875  C 14.1640625 17.1103515625  12.40625 17.5  10.5 17.5  C 9.953125 17.5  9.38671875 17.4635416666667  8.80078125 17.390625  C 7.25390625 18.9856770833333  5.45703125 20.0885416666667  3.41015625 20.69921875  C 3.02734375 20.8268229166667  2.58203125 20.9270833333333  2.07421875 21  L 2.015625 21  C 1.8984375 21  1.79296875 20.9521484375  1.69921875 20.8564453125  C 1.60546875 20.7607421875  1.54296875 20.6354166666667  1.51171875 20.48046875  L 1.51171875 20.466796875  C 1.48828125 20.4303385416667  1.486328125 20.3756510416667  1.505859375 20.302734375  C 1.525390625 20.2298177083333  1.533203125 20.1842447916667  1.529296875 20.166015625  C 1.525390625 20.1477864583333  1.54296875 20.1044921875  1.58203125 20.0361328125  L 1.65234375 19.9130859375  C 1.65234375 19.9130859375  1.6796875 19.8743489583333  1.734375 19.796875  C 1.7890625 19.7194010416667  1.8203125 19.6783854166667  1.828125 19.673828125  C 1.8828125 19.6009114583333  2.00390625 19.4436848958333  2.19140625 19.2021484375  C 2.37890625 18.9606119791667  2.513671875 18.7874348958333  2.595703125 18.6826171875  C 2.677734375 18.5777994791667  2.798828125 18.3977864583333  2.958984375 18.142578125  C 3.119140625 17.8873697916667  3.24609375 17.6549479166667  3.33984375 17.4453125  C 3.43359375 17.2356770833333  3.5390625 16.966796875  3.65625 16.638671875  C 3.7734375 16.310546875  3.875 15.9641927083333  3.9609375 15.599609375  C 2.734375 14.7884114583333  1.767578125 13.7858072916667  1.060546875 12.591796875  C 0.353515625 11.3977864583333  0 10.1171875  0 8.75  C 0 7.1640625  0.46875 5.69889322916667  1.40625 4.3544921875  C 2.34375 3.01009114583333  3.6171875 1.9482421875  5.2265625 1.1689453125  C 6.8359375 0.3896484375  8.59375 0  10.5 0  C 12.40625 0  14.1640625 0.3896484375  15.7734375 1.1689453125  C 17.3828125 1.9482421875  18.65625 3.01009114583333  19.59375 4.3544921875  Z " fill-rule="nonzero" fill="#eddab6" stroke="none" transform="matrix(1 0 0 1 225 9 )" />
  </g>
</svg>