<?xml version="1.0" encoding="utf-8"?>
<svg version="1.1" xmlns:xlink="http://www.w3.org/1999/xlink" width="19px" height="18px" xmlns="http://www.w3.org/2000/svg">
  <g transform="matrix(1 0 0 1 -949 -915 )">
    <path d="M 13.544921875 2.314453125  C 12.290271577381 1.771484375  10.9419642857143 1.5  9.5 1.5  C 8.05803571428571 1.5  6.70972842261905 1.771484375  5.455078125 2.314453125  C 4.20042782738095 2.857421875  3.20377604166667 3.58984375  2.46512276785714 4.51171875  C 1.72646949404762 5.43359375  1.35714285714286 6.4296875  1.35714285714286 7.5  C 1.35714285714286 8.375  1.6098400297619 9.208984375  2.115234375 10.001953125  C 2.6206287202381 10.794921875  3.33277529761905 11.48046875  4.25167410714286 12.05859375  L 5.17410714285714 12.64453125  L 4.88783482142857 13.76953125  C 4.71819196428571 14.48046875  4.47079613095238 15.15234375  4.14564732142857 15.78515625  C 5.22005208333333 15.29296875  6.19196428571429 14.625  7.06138392857143 13.78125  L 7.51729910714286 13.3359375  L 8.12165178571429 13.40625  C 8.609375 13.46875  9.06882440476191 13.5  9.5 13.5  C 10.9419642857143 13.5  12.290271577381 13.228515625  13.544921875 12.685546875  C 14.799572172619 12.142578125  15.7962239583333 11.41015625  16.5348772321429 10.48828125  C 17.2735305059524 9.56640625  17.6428571428571 8.5703125  17.6428571428571 7.5  C 17.6428571428571 6.4296875  17.2735305059524 5.43359375  16.5348772321429 4.51171875  C 15.7962239583333 3.58984375  14.799572172619 2.857421875  13.544921875 2.314453125  Z M 17.7276785714286 3.732421875  C 18.5758928571429 4.884765625  19 6.140625  19 7.5  C 19 8.859375  18.5758928571429 10.115234375  17.7276785714286 11.267578125  C 16.8794642857143 12.419921875  15.727306547619 13.330078125  14.2712053571429 13.998046875  C 12.8151041666667 14.666015625  11.2247023809524 15  9.5 15  C 9.00520833333333 15  8.49274553571429 14.96875  7.96261160714286 14.90625  C 6.56305803571429 16.2734375  4.93731398809524 17.21875  3.08537946428571 17.7421875  C 2.73902529761905 17.8515625  2.33612351190476 17.9375  1.87667410714286 18  L 1.82366071428571 18  C 1.71763392857143 18  1.62220982142857 17.958984375  1.53738839285714 17.876953125  C 1.45256696428571 17.794921875  1.3960193452381 17.6875  1.36774553571429 17.5546875  L 1.36774553571429 17.54296875  C 1.34654017857143 17.51171875  1.34477306547619 17.46484375  1.36244419642857 17.40234375  C 1.38011532738095 17.33984375  1.3871837797619 17.30078125  1.38364955357143 17.28515625  C 1.38011532738095 17.26953125  1.3960193452381 17.232421875  1.43136160714286 17.173828125  L 1.49497767857143 17.068359375  C 1.49497767857143 17.068359375  1.51971726190476 17.03515625  1.56919642857143 16.96875  C 1.6186755952381 16.90234375  1.6469494047619 16.8671875  1.65401785714286 16.86328125  C 1.70349702380952 16.80078125  1.81305803571429 16.666015625  1.98270089285714 16.458984375  C 2.15234375 16.251953125  2.27427455357143 16.103515625  2.34849330357143 16.013671875  C 2.42271205357143 15.923828125  2.53227306547619 15.76953125  2.67717633928571 15.55078125  C 2.82207961309524 15.33203125  2.93694196428571 15.1328125  3.02176339285714 14.953125  C 3.10658482142857 14.7734375  3.20200892857143 14.54296875  3.30803571428571 14.26171875  C 3.4140625 13.98046875  3.50595238095238 13.68359375  3.58370535714286 13.37109375  C 2.47395833333333 12.67578125  1.59923735119048 11.81640625  0.959542410714286 10.79296875  C 0.319847470238095 9.76953125  0 8.671875  0 7.5  C 0 6.140625  0.424107142857143 4.884765625  1.27232142857143 3.732421875  C 2.12053571428571 2.580078125  3.27269345238095 1.669921875  4.72879464285714 1.001953125  C 6.18489583333333 0.333984375  7.77529761904762 0  9.5 0  C 11.2247023809524 0  12.8151041666667 0.333984375  14.2712053571429 1.001953125  C 15.727306547619 1.669921875  16.8794642857143 2.580078125  17.7276785714286 3.732421875  Z " fill-rule="nonzero" fill="#a30014" stroke="none" fill-opacity="0.996078431372549" transform="matrix(1 0 0 1 949 915 )" />
  </g>
</svg>