<?xml version="1.0" encoding="utf-8"?>
<svg version="1.1" xmlns:xlink="http://www.w3.org/1999/xlink" width="16px" height="18px" xmlns="http://www.w3.org/2000/svg">
  <g transform="matrix(1 0 0 1 -1041 -916 )">
    <path d="M 15.89375 13.013671875  C 15.9645833333333 13.603515625  16 14.23046875  16 14.89453125  C 16 15.74609375  15.7395833333333 16.4765625  15.21875 17.0859375  C 14.6979166666667 17.6953125  14.0708333333333 18  13.3375 18  L 2.6625 18  C 1.92916666666667 18  1.30208333333333 17.6953125  0.78125 17.0859375  C 0.260416666666667 16.4765625  0 15.74609375  0 14.89453125  C 0 14.23046875  0.0354166666666667 13.603515625  0.10625 13.013671875  C 0.177083333333333 12.423828125  0.308333333333333 11.830078125  0.5 11.232421875  C 0.691666666666667 10.634765625  0.935416666666667 10.123046875  1.23125 9.697265625  C 1.52708333333333 9.271484375  1.91875 8.923828125  2.40625 8.654296875  C 2.89375 8.384765625  3.45416666666667 8.25  4.0875 8.25  C 5.17916666666667 9.25  6.48333333333333 9.75  8 9.75  C 9.51666666666667 9.75  10.8208333333333 9.25  11.9125 8.25  C 12.5458333333333 8.25  13.10625 8.384765625  13.59375 8.654296875  C 14.08125 8.923828125  14.4729166666667 9.271484375  14.76875 9.697265625  C 15.0645833333333 10.123046875  15.3083333333333 10.634765625  15.5 11.232421875  C 15.6916666666667 11.830078125  15.8229166666667 12.423828125  15.89375 13.013671875  Z M 11.39375 1.318359375  C 12.33125 2.197265625  12.8 3.2578125  12.8 4.5  C 12.8 5.7421875  12.33125 6.802734375  11.39375 7.681640625  C 10.45625 8.560546875  9.325 9  8 9  C 6.675 9  5.54375 8.560546875  4.60625 7.681640625  C 3.66875 6.802734375  3.2 5.7421875  3.2 4.5  C 3.2 3.2578125  3.66875 2.197265625  4.60625 1.318359375  C 5.54375 0.439453125  6.675 0  8 0  C 9.325 0  10.45625 0.439453125  11.39375 1.318359375  Z " fill-rule="nonzero" fill="#eddab6" stroke="none" transform="matrix(1 0 0 1 1041 916 )" />
  </g>
</svg>