<?xml version="1.0" encoding="utf-8"?>
<svg version="1.1" xmlns:xlink="http://www.w3.org/1999/xlink" width="17px" height="15px" xmlns="http://www.w3.org/2000/svg">
  <g transform="matrix(1 0 0 1 -764 -917 )">
    <path d="M 14.5563816604709 8.56975837879969  C 14.5634035522511 8.58534684333593  14.5669144981413 8.6087295401403  14.5669144981413 8.63990646921278  L 14.5669144981413 14.2517537022603  C 14.5669144981413 14.4544037412315  14.5002065262288 14.6297739672642  14.366790582404 14.7778643803585  C 14.2333746385791 14.9259547934528  14.0753820735233 15  13.8928128872367 15  L 9.84820322180917 15  L 9.84820322180917 10.510522213562  L 7.15179677819083 10.510522213562  L 7.15179677819083 15  L 3.10718711276332 15  C 2.92461792647666 15  2.7666253614209 14.9259547934528  2.63320941759603 14.7778643803585  C 2.49979347377117 14.6297739672642  2.43308550185874 14.4544037412315  2.43308550185874 14.2517537022603  L 2.43308550185874 8.63990646921278  C 2.43308550185874 8.63211223694466  2.4348409748038 8.62042088854248  2.43835192069393 8.60483242400623  C 2.44186286658406 8.58924395946999  2.44361833952912 8.57755261106781  2.44361833952912 8.56975837879969  L 8.5 3.02805923616524  L 14.5563816604709 8.56975837879969  Z M 16.9894671623296 7.55845674201091  C 16.9964890541099 7.66367887763055  16.971912432879 7.75526110678098  16.9157372986369 7.8332034294622  L 16.2627013630731 8.6983632112237  C 16.2065262288311 8.76851130163679  16.1327963651384 8.81137957911146  16.041511771995 8.8269680436477  L 16.0099132589839 8.8269680436477  C 15.9186286658406 8.8269680436477  15.8448988021479 8.79968823070927  15.7887236679058 8.74512860483242  L 8.5 1.99922057677319  L 1.21127633209418 8.74512860483242  C 1.1270136307311 8.8074824629774  1.04275092936803 8.83476227591582  0.958488228004957 8.8269680436477  C 0.867203634861627 8.81137957911146  0.793473771168939 8.76851130163679  0.73729863692689 8.6983632112237  L 0.0842627013630731 7.8332034294622  C 0.0280875671210244 7.75526110678098  0.00351094589012807 7.66367887763055  0.0105328376703841 7.55845674201091  C 0.0175547294506403 7.45323460639127  0.0561751342420488 7.36944660950896  0.12639405204461 7.30709275136399  L 7.69950433705081 0.303975058456742  C 7.924204874019 0.101325019485579  8.19103676166873 0  8.5 0  C 8.80896323833127 0  9.075795125981 0.101325019485579  9.30049566294919 0.303975058456742  L 11.8705080545229 2.68901013250195  L 11.8705080545229 0.409197194076383  C 11.8705080545229 0.30007794232268  11.9021065675341 0.210444271239282  11.9653035935564 0.140296180826189  C 12.0285006195787 0.0701480904130947  12.1092523750516 0.0350740452065473  12.2075588599752 0.0350740452065473  L 14.229863692689 0.0350740452065473  C 14.3281701776126 0.0350740452065473  14.4089219330855 0.0701480904130947  14.4721189591078 0.140296180826189  C 14.5353159851301 0.210444271239282  14.5669144981413 0.30007794232268  14.5669144981413 0.409197194076383  L 14.5669144981413 5.1792673421668  L 16.8736059479554 7.30709275136399  C 16.943824865758 7.36944660950896  16.9824452705494 7.45323460639127  16.9894671623296 7.55845674201091  Z " fill-rule="nonzero" fill="#a30014" stroke="none" fill-opacity="0.996078431372549" transform="matrix(1 0 0 1 764 917 )" />
  </g>
</svg>