<?xml version="1.0" encoding="utf-8"?>
<svg version="1.1" xmlns:xlink="http://www.w3.org/1999/xlink" width="21px" height="18px" xmlns="http://www.w3.org/2000/svg">
  <g transform="matrix(1 0 0 1 -36 -11 )">
    <path d="M 17.9814126394052 10.2837100545596  C 17.9900867410161 10.3024162120031  17.9944237918216 10.3304754481684  17.9944237918216 10.3678877630553  L 17.9944237918216 17.1021044427124  C 17.9944237918216 17.3452844894778  17.912019826518 17.5557287607171  17.7472118959108 17.7334372564302  C 17.5824039653036 17.9111457521434  17.3872366790582 18  17.1617100371747 18  L 12.1654275092937 18  L 12.1654275092937 12.6126266562744  L 8.83457249070632 12.6126266562744  L 8.83457249070632 18  L 3.83828996282528 18  C 3.61276332094176 18  3.41759603469641 17.9111457521434  3.25278810408922 17.7334372564302  C 3.08798017348203 17.5557287607171  3.00557620817844 17.3452844894778  3.00557620817844 17.1021044427124  L 3.00557620817844 10.3678877630553  C 3.00557620817844 10.3585346843336  3.00774473358116 10.344505066251  3.01208178438662 10.3257989088075  C 3.01641883519207 10.307092751364  3.0185873605948 10.2930631332814  3.0185873605948 10.2837100545596  L 10.5 3.63367108339829  L 17.9814126394052 10.2837100545596  Z M 20.9869888475836 9.0701480904131  C 20.9956629491946 9.19641465315666  20.9653035935564 9.30631332813718  20.8959107806691 9.39984411535464  L 20.089219330855 10.4380358534684  C 20.0198265179678 10.5222135619641  19.9287484510533 10.5736554949337  19.8159851301115 10.5923616523772  L 19.7769516728625 10.5923616523772  C 19.6641883519207 10.5923616523772  19.5731102850062 10.5596258768511  19.503717472119 10.4941543257989  L 10.5 2.39906469212783  L 1.49628252788104 10.4941543257989  C 1.39219330855019 10.5689789555729  1.28810408921933 10.601714731099  1.18401486988848 10.5923616523772  C 1.07125154894672 10.5736554949337  0.980173482032218 10.5222135619641  0.910780669144981 10.4380358534684  L 0.104089219330855 9.39984411535464  C 0.0346964064436184 9.30631332813718  0.00433705080545232 9.19641465315666  0.0130111524163569 9.0701480904131  C 0.0216852540272615 8.94388152766953  0.0693928128872367 8.84333593141076  0.156133828996283 8.76851130163679  L 9.51115241635688 0.364770070148091  C 9.78872366790582 0.121590023382695  10.1183395291202 0  10.5 0  C 10.8816604708798 0  11.2112763320942 0.121590023382695  11.4888475836431 0.364770070148091  L 14.6635687732342 3.22681215900234  L 14.6635687732342 0.491036632891659  C 14.6635687732342 0.360093530787216  14.7026022304833 0.252533125487139  14.7806691449814 0.168355416991427  C 14.8587360594796 0.0841777084957136  14.958488228005 0.0420888542478568  15.0799256505576 0.0420888542478568  L 17.5780669144981 0.0420888542478568  C 17.6995043370508 0.0420888542478568  17.7992565055762 0.0841777084957136  17.8773234200743 0.168355416991427  C 17.9553903345725 0.252533125487139  17.9944237918216 0.360093530787216  17.9944237918216 0.491036632891659  L 17.9944237918216 6.21512081060016  L 20.8438661710037 8.76851130163679  C 20.9306071871128 8.84333593141076  20.9783147459727 8.94388152766953  20.9869888475836 9.0701480904131  Z " fill-rule="nonzero" fill="#a30014" stroke="none" fill-opacity="0.996078431372549" transform="matrix(1 0 0 1 36 11 )" />
  </g>
</svg>