<?xml version="1.0" encoding="utf-8"?>
<svg version="1.1" xmlns:xlink="http://www.w3.org/1999/xlink" width="43px" height="50px" xmlns="http://www.w3.org/2000/svg">
  <g transform="matrix(1 0 0 1 -35 -312 )">
    <path d="M 42.1041666666667 3.57142857142857  L 39.4166666666667 3.57142857142857  C 39.4166666666667 8.42633928571428  38.4228515625 12.7185639880952  36.4352213541667 16.4481026785714  C 34.4475911458333 20.1776413690476  31.9607204861111 23.0282738095238  28.974609375 25  C 31.9607204861111 26.9717261904762  34.4475911458333 29.8223586309524  36.4352213541667 33.5518973214286  C 38.4228515625 37.2814360119048  39.4166666666667 41.5736607142857  39.4166666666667 46.4285714285714  L 42.1041666666667 46.4285714285714  C 42.3654513888889 46.4285714285714  42.580078125 46.5122767857143  42.748046875 46.6796875  C 42.916015625 46.8470982142857  43 47.0610119047619  43 47.3214285714286  L 43 49.1071428571429  C 43 49.3675595238095  42.916015625 49.5814732142857  42.748046875 49.7488839285714  C 42.580078125 49.9162946428571  42.3654513888889 50  42.1041666666667 50  L 0.895833333333333 50  C 0.634548611111111 50  0.419921875 49.9162946428571  0.251953125 49.7488839285714  C 0.083984375 49.5814732142857  0 49.3675595238095  0 49.1071428571429  L 0 47.3214285714286  C 0 47.0610119047619  0.083984375 46.8470982142857  0.251953125 46.6796875  C 0.419921875 46.5122767857143  0.634548611111111 46.4285714285714  0.895833333333333 46.4285714285714  L 3.58333333333333 46.4285714285714  C 3.58333333333333 41.5736607142857  4.5771484375 37.2814360119048  6.56477864583333 33.5518973214286  C 8.55240885416667 29.8223586309524  11.0392795138889 26.9717261904762  14.025390625 25  C 11.0392795138889 23.0282738095238  8.55240885416667 20.1776413690476  6.56477864583333 16.4481026785714  C 4.5771484375 12.7185639880952  3.58333333333333 8.42633928571428  3.58333333333333 3.57142857142857  L 0.895833333333333 3.57142857142857  C 0.634548611111111 3.57142857142857  0.419921875 3.48772321428572  0.251953125 3.3203125  C 0.083984375 3.15290178571428  0 2.93898809523809  0 2.67857142857143  L 0 0.892857142857145  C 0 0.632440476190471  0.083984375 0.418526785714285  0.251953125 0.25111607142857  C 0.419921875 0.0837053571428548  0.634548611111111 0  0.895833333333333 0  L 42.1041666666667 0  C 42.3654513888889 0  42.580078125 0.0837053571428548  42.748046875 0.25111607142857  C 42.916015625 0.418526785714285  43 0.632440476190471  43 0.892857142857145  L 43 2.67857142857143  C 43 2.93898809523809  42.916015625 3.15290178571428  42.748046875 3.3203125  C 42.580078125 3.48772321428572  42.3654513888889 3.57142857142857  42.1041666666667 3.57142857142857  Z M 35.5813802083333 8  C 35.7493489583333 6.00818452380952  35.8333333333333 4.81770833333333  35.8333333333333 4  L 7.16666666666667 4  C 7.16666666666667 4.79910714285715  7.25065104166667 5.98958333333333  7.41861979166667 8  L 35.5813802083333 8  Z M 7.16666666666667 46  L 35.8333333333333 46  C 35.8333333333333 44.0104166666667  35.5160590277778 41.6899181547619  34.8815104166667 39.4670758928571  C 34.2469618055556 37.2442336309524  33.4024522569444 35.3097098214286  32.3479817708333 33.6635044642857  C 31.2935112847222 32.0172991071429  30.1130642361111 30.6036086309524  28.806640625 29.4224330357143  C 27.5002170138889 28.2412574404762  26.1378038194444 27.3623511904762  24.7194010416667 26.7857142857143  L 18.2805989583333 26.7857142857143  C 16.8621961805556 27.3623511904762  15.4997829861111 28.2412574404762  14.193359375 29.4224330357143  C 12.8869357638889 30.6036086309524  11.7064887152778 32.0172991071429  10.6520182291667 33.6635044642857  C 9.59754774305556 35.3097098214286  8.75303819444444 37.2442336309524  8.11848958333333 39.4670758928571  C 7.48394097222222 41.6899181547619  7.16666666666667 44.0104166666667  7.16666666666667 46  Z " fill-rule="nonzero" fill="#a30014" stroke="none" fill-opacity="0.996078431372549" transform="matrix(1 0 0 1 35 312 )" />
  </g>
</svg>