<?xml version="1.0" encoding="utf-8"?>
<svg version="1.1" xmlns:xlink="http://www.w3.org/1999/xlink" width="298px" height="32px" viewBox="16 44  298 32" xmlns="http://www.w3.org/2000/svg">
  <path d="M 19 59  A 12 12 0 0 1 31 47 L 299 47  A 12 12 0 0 1 311 59 L 311 61  A 12 12 0 0 1 299 73 L 31 73  A 12 12 0 0 1 19 61 L 19 59  Z " fill-rule="nonzero" fill="#ffffff" stroke="none" />
  <path d="M 17.5 59  A 13.5 13.5 0 0 1 31 45.5 L 299 45.5  A 13.5 13.5 0 0 1 312.5 59 L 312.5 61  A 13.5 13.5 0 0 1 299 74.5 L 31 74.5  A 13.5 13.5 0 0 1 17.5 61 L 17.5 59  Z " stroke-width="3" stroke="#a30014" fill="none" stroke-opacity="0.996078431372549" />
</svg>