<?xml version="1.0" encoding="utf-8"?>
<svg version="1.1" xmlns:xlink="http://www.w3.org/1999/xlink" width="20px" height="20px" xmlns="http://www.w3.org/2000/svg">
  <g transform="matrix(1 0 0 1 -115 -85 )">
    <path d="M 19.722609587156 19.7339944469027  C 20.0433939449541 19.4244974336283  20.0433939449541 18.922781659292  19.722586146789 18.6133072345133  L 13.8764578211009 12.9741215265487  C 14.5059621559633 12.3176798672566  15.0076409633028 11.5694531858407  15.3690308944954 10.7454031415929  C 15.7859777522936 9.79463362831858  15.9973851146789 8.78513440265487  15.9973851146789 7.7449571460177  C 15.9973851146789 6.70468933628319  15.7859777522936 5.69512216814159  15.3690543577982 4.74428473451328  C 14.9665189678899 3.82627617256637  14.3904121788991 3.00199971238938  13.656741559633 2.294345  C 12.9230709174312 1.58669028761062  12.068498853211 1.03099931415929  11.1167549541284 0.642712964601771  C 10.1309774541284 0.240547920353983  9.08424461009174 0.0366466371681423  8.00570793577981 0.0366466371681423  C 6.92726516055046 0.0366466371681423  5.8806496559633 0.240570553097346  4.89494259174312 0.642735597345133  C 3.94326912844037 1.03099931415929  3.08874399082569 1.58669028761062  2.35512029816514 2.29436763274336  C 1.62149660550459 3.00204497787611  1.04541330275229 3.8263214380531  0.642877912844037 4.74430736725664  C 0.225954518348624 5.69514480088496  0.0145471559633026 6.70468931415929  0.0145471559633026 7.7449571238938  C 0.0145471559633026 8.78513438053097  0.225954518348624 9.79461097345133  0.642877912844036 10.7453804867257  C 1.04541330275229 11.6633211283186  1.62147314220183 12.487552300885  2.35512029816514 13.1951843584071  C 3.08876745412844 13.9028164159292  3.94326912844037 14.4584847566372  4.89494259174312 14.846725840708  C 5.88067314220183 15.2488908849558  6.92728864678899 15.452814800885  8.00570793577981 15.452814800885  C 9.0842680733945 15.452814800885  10.1309539908257 15.2489135176991  11.1167549541284 14.8467484734513  C 11.6580535779817 14.6259346681416  12.1677596100917 14.350806039823  12.6418359862385 14.024532300885  L 18.5608196788991 19.7339944469027  C 18.7212470412844 19.8887203318584  18.9314808486239 19.9660832743363  19.1417146330275 19.9660832743363  C 19.3519484174312 19.9660832743363  19.5621822247706 19.8887203318584  19.722609587156 19.7339944469027  Z M 14.3543600688073 7.74493449115044  C 14.3543600458716 11.121191880531  11.5063575917431 13.8679499115044  8.00568449541284 13.8679499115044  C 4.50529305045872 13.8679499115044  1.65752529816514 11.121191880531  1.65752529816514 7.74493449115044  C 1.65752529816514 4.3684507079646  4.50529305045872 1.62146626106195  8.00568449541284 1.62146626106195  C 11.5063576146789 1.62146626106195  14.3543600688073 4.3684507079646  14.3543600688073 7.74493449115044  Z " fill-rule="nonzero" fill="#666666" stroke="none" transform="matrix(1 0 0 1 115 85 )" />
  </g>
</svg>