<?xml version="1.0" encoding="utf-8"?>
<svg version="1.1" xmlns:xlink="http://www.w3.org/1999/xlink" width="66px" height="25px" xmlns="http://www.w3.org/2000/svg">
  <g transform="matrix(1 0 0 1 -21 -55 )">
    <path d="M 22 60  A 4 4 0 0 1 26 56 L 82 56  A 4 4 0 0 1 86 60 L 86 75  A 4 4 0 0 1 82 79 L 26 79  A 4 4 0 0 1 22 75 L 22 60  Z " fill-rule="nonzero" fill="#ffffff" stroke="none" />
    <path d="M 21.5 60  A 4.5 4.5 0 0 1 26 55.5 L 82 55.5  A 4.5 4.5 0 0 1 86.5 60 L 86.5 75  A 4.5 4.5 0 0 1 82 79.5 L 26 79.5  A 4.5 4.5 0 0 1 21.5 75 L 21.5 60  Z " stroke-width="1" stroke="#a30014" fill="none" stroke-opacity="0.996078431372549" />
  </g>
</svg>