<?xml version="1.0" encoding="utf-8"?>
<svg version="1.1" xmlns:xlink="http://www.w3.org/1999/xlink" width="25px" height="24px" xmlns="http://www.w3.org/2000/svg">
  <g transform="matrix(1 0 0 1 -10 -8 )">
    <path d="M 24.4480298913043 9.62002567394095  C 24.8160099637681 10.00513478819  25 10.4698331193838  25 11.0141206675225  L 25 12.9858793324775  C 25 13.5301668806162  24.8160099637681 13.99486521181  24.4480298913043 14.379974326059  C 24.0800498188406 14.7650834403081  23.6016757246377 14.9576379974326  23.0129076086957 15  L 11.0563858695652 15  L 16.0326086956522 19.4865211810013  C 16.4628623188406 19.8562259306804  16.6779891304348 20.3183568677792  16.6779891304348 20.8729139922978  C 16.6779891304348 21.4274711168164  16.4628623188406 21.8896020539153  16.0326086956522 22.2593068035944  L 14.7588315217391 23.4300385109114  C 14.3399003623188 23.8100128369705  13.8303894927536 24  13.2302989130435 24  C 12.6415307971014 24  12.1263586956522 23.8100128369705  11.6847826086957 23.4300385109114  L 0.628396739130435 13.3863928112965  C 0.209465579710145 13.0064184852375  0 12.5442875481386  0 12  C 0 11.4659820282413  0.209465579710145 10.9987163029525  0.628396739130435 10.5982028241335  L 11.6847826086957 0.585365853658537  C 12.1150362318841 0.195121951219511  12.6302083333333 0  13.2302989130435 0  C 13.8190670289855 0  14.3285778985507 0.195121951219511  14.7588315217391 0.585365853658537  L 16.0326086956522 1.72528883183569  C 16.4628623188406 2.11553273427471  16.6779891304348 2.58279845956354  16.6779891304348 3.12708600770218  C 16.6779891304348 3.67137355584082  16.4628623188406 4.13863928112965  16.0326086956522 4.52888318356868  L 11.0563858695652 9  L 23.0129076086957 9  C 23.6016757246377 9.04236200256739  24.0800498188406 9.23491655969191  24.4480298913043 9.62002567394095  Z " fill-rule="nonzero" fill="#a30014" stroke="none" fill-opacity="0.996078431372549" transform="matrix(1 0 0 1 10 8 )" />
  </g>
</svg>