<?xml version="1.0" encoding="utf-8"?>
<svg version="1.1" xmlns:xlink="http://www.w3.org/1999/xlink" width="107px" height="40px" xmlns="http://www.w3.org/2000/svg">
  <defs>
    <filter x="609px" y="88px" width="107px" height="40px" filterUnits="userSpaceOnUse" id="filter238">
      <feOffset dx="5" dy="5" in="SourceAlpha" result="shadowOffsetInner" />
      <feGaussianBlur stdDeviation="2.5" in="shadowOffsetInner" result="shadowGaussian" />
      <feComposite in2="shadowGaussian" operator="atop" in="SourceAlpha" result="shadowComposite" />
      <feColorMatrix type="matrix" values="0 0 0 0 0.949019607843137  0 0 0 0 0.949019607843137  0 0 0 0 0.949019607843137  0 0 0 0.349019607843137 0  " in="shadowComposite" />
    </filter>
    <g id="widget239">
      <path d="M 611.5 93  A 2.5 2.5 0 0 1 614 90.5 L 701 90.5  A 2.5 2.5 0 0 1 703.5 93 L 703.5 113  A 2.5 2.5 0 0 1 701 115.5 L 614 115.5  A 2.5 2.5 0 0 1 611.5 113 L 611.5 93  Z " fill-rule="nonzero" fill="#f2f2f2" stroke="none" fill-opacity="0.513725490196078" />
      <path d="M 610.5 93  A 3.5 3.5 0 0 1 614 89.5 L 701 89.5  A 3.5 3.5 0 0 1 704.5 93 L 704.5 113  A 3.5 3.5 0 0 1 701 116.5 L 614 116.5  A 3.5 3.5 0 0 1 610.5 113 L 610.5 93  Z " stroke-width="3" stroke="#f2f2f2" fill="none" />
    </g>
  </defs>
  <g transform="matrix(1 0 0 1 -609 -88 )">
    <use xlink:href="#widget239" filter="url(#filter238)" />
    <use xlink:href="#widget239" />
  </g>
</svg>