<?xml version="1.0" encoding="utf-8"?>
<svg version="1.1" xmlns:xlink="http://www.w3.org/1999/xlink" width="107px" height="41px" xmlns="http://www.w3.org/2000/svg">
  <defs>
    <filter x="609px" y="121px" width="107px" height="41px" filterUnits="userSpaceOnUse" id="filter242">
      <feOffset dx="5" dy="5" in="SourceAlpha" result="shadowOffsetInner" />
      <feGaussianBlur stdDeviation="2.5" in="shadowOffsetInner" result="shadowGaussian" />
      <feComposite in2="shadowGaussian" operator="atop" in="SourceAlpha" result="shadowComposite" />
      <feColorMatrix type="matrix" values="0 0 0 0 0.949019607843137  0 0 0 0 0.949019607843137  0 0 0 0 0.949019607843137  0 0 0 0.349019607843137 0  " in="shadowComposite" />
    </filter>
    <g id="widget243">
      <path d="M 611.5 126  A 2.5 2.5 0 0 1 614 123.5 L 701 123.5  A 2.5 2.5 0 0 1 703.5 126 L 703.5 147  A 2.5 2.5 0 0 1 701 149.5 L 614 149.5  A 2.5 2.5 0 0 1 611.5 147 L 611.5 126  Z " fill-rule="nonzero" fill="#f2f2f2" stroke="none" fill-opacity="0.513725490196078" />
      <path d="M 610.5 126  A 3.5 3.5 0 0 1 614 122.5 L 701 122.5  A 3.5 3.5 0 0 1 704.5 126 L 704.5 147  A 3.5 3.5 0 0 1 701 150.5 L 614 150.5  A 3.5 3.5 0 0 1 610.5 147 L 610.5 126  Z " stroke-width="3" stroke="#f2f2f2" fill="none" />
    </g>
  </defs>
  <g transform="matrix(1 0 0 1 -609 -121 )">
    <use xlink:href="#widget243" filter="url(#filter242)" />
    <use xlink:href="#widget243" />
  </g>
</svg>