<?xml version="1.0" encoding="utf-8"?>
<svg version="1.1" xmlns:xlink="http://www.w3.org/1999/xlink" width="56px" height="51px" xmlns="http://www.w3.org/2000/svg">
  <defs>
    <filter x="1151px" y="2px" width="56px" height="51px" filterUnits="userSpaceOnUse" id="filter229">
      <feOffset dx="5" dy="3" in="SourceAlpha" result="shadowOffsetInner" />
      <feGaussianBlur stdDeviation="2.5" in="shadowOffsetInner" result="shadowGaussian" />
      <feComposite in2="shadowGaussian" operator="atop" in="SourceAlpha" result="shadowComposite" />
      <feColorMatrix type="matrix" values="0 0 0 0 0.333333333333333  0 0 0 0 0.333333333333333  0 0 0 0 0.333333333333333  0 0 0 0.211764705882353 0  " in="shadowComposite" />
    </filter>
    <g id="widget230">
      <path d="M 1174 7.5  C 1184.92 7.5  1193.5 14.98  1193.5 24.5  C 1193.5 34.02  1184.92 41.5  1174 41.5  C 1163.08 41.5  1154.5 34.02  1154.5 24.5  C 1154.5 14.98  1163.08 7.5  1174 7.5  Z " fill-rule="nonzero" fill="#ffffff" stroke="none" />
      <path d="M 1174 6  C 1185.76 6  1195 14.14  1195 24.5  C 1195 34.86  1185.76 43  1174 43  C 1162.24 43  1153 34.86  1153 24.5  C 1153 14.14  1162.24 6  1174 6  Z " stroke-width="4" stroke="#eddab6" fill="none" stroke-opacity="0.996078431372549" />
    </g>
  </defs>
  <g transform="matrix(1 0 0 1 -1151 -2 )">
    <use xlink:href="#widget230" filter="url(#filter229)" />
    <use xlink:href="#widget230" />
  </g>
</svg>