<?xml version="1.0" encoding="utf-8"?>
<svg version="1.1" xmlns:xlink="http://www.w3.org/1999/xlink" width="180px" height="247px" xmlns="http://www.w3.org/2000/svg">
  <defs>
    <filter x="8px" y="435px" width="180px" height="247px" filterUnits="userSpaceOnUse" id="filter722">
      <feOffset dx="1" dy="1" in="SourceAlpha" result="shadowOffsetInner" />
      <feGaussianBlur stdDeviation="2.5" in="shadowOffsetInner" result="shadowGaussian" />
      <feComposite in2="shadowGaussian" operator="atop" in="SourceAlpha" result="shadowComposite" />
      <feColorMatrix type="matrix" values="0 0 0 0 0  0 0 0 0 0  0 0 0 0 0  0 0 0 0.349019607843137 0  " in="shadowComposite" />
    </filter>
    <g id="widget723">
      <path d="M 12.5 454  A 14.5 14.5 0 0 1 27 439.5 L 167 439.5  A 14.5 14.5 0 0 1 181.5 454 L 181.5 661  A 14.5 14.5 0 0 1 167 675.5 L 27 675.5  A 14.5 14.5 0 0 1 12.5 661 L 12.5 454  Z " fill-rule="nonzero" fill="#ffffff" stroke="none" fill-opacity="0.996078431372549" />
      <path d="M 12.5 454  A 14.5 14.5 0 0 1 27 439.5 L 167 439.5  A 14.5 14.5 0 0 1 181.5 454 L 181.5 661  A 14.5 14.5 0 0 1 167 675.5 L 27 675.5  A 14.5 14.5 0 0 1 12.5 661 L 12.5 454  Z " stroke-width="1" stroke="#f2f2f2" fill="none" />
    </g>
  </defs>
  <g transform="matrix(1 0 0 1 -8 -435 )">
    <use xlink:href="#widget723" filter="url(#filter722)" />
    <use xlink:href="#widget723" />
  </g>
</svg>