<?xml version="1.0" encoding="utf-8"?>
<svg version="1.1" xmlns:xlink="http://www.w3.org/1999/xlink" width="30px" height="33px" xmlns="http://www.w3.org/2000/svg">
  <g transform="matrix(1 0 0 1 -334 -44 )">
    <path d="M 15 31.5267857142857  C 15.1923076923077 31.5267857142857  15.2884615384615 31.4285714285714  15.2884615384615 31.2321428571429  C 15.2884615384615 31.0357142857143  15.1923076923077 30.9375  15 30.9375  C 14.2908653846154 30.9375  13.6808894230769 30.6766183035714  13.1700721153846 30.1548549107143  C 12.6592548076923 29.6330915178571  12.4038461538462 29.0100446428571  12.4038461538462 28.2857142857143  C 12.4038461538462 28.0892857142857  12.3076923076923 27.9910714285714  12.1153846153846 27.9910714285714  C 11.9230769230769 27.9910714285714  11.8269230769231 28.0892857142857  11.8269230769231 28.2857142857143  C 11.8269230769231 29.1819196428571  12.1364182692308 29.9461495535714  12.7554086538462 30.5784040178571  C 13.3743990384615 31.2106584821429  14.1225961538462 31.5267857142857  15 31.5267857142857  Z M 8.07692307692308 10.6071428571429  C 8.07692307692308 17.1383928571429  6.47836538461539 22.2455357142857  3.28125 26  L 26.71875 26  C 23.5216346153846 22.2455357142857  21.9230769230769 17.1383928571429  21.9230769230769 10.6071428571429  C 21.9230769230769 9.98102678571428  21.7788461538462 9.33649553571428  21.4903846153846 8.67354910714286  C 21.2019230769231 8.01060267857143  20.7872596153846 7.37834821428571  20.2463942307692 6.77678571428572  C 19.7055288461538 6.17522321428571  18.9753605769231 5.68108258928572  18.0558894230769 5.29436383928572  C 17.1364182692308 4.90764508928572  16.1177884615385 4.71428571428572  15 4.71428571428572  C 13.8822115384615 4.71428571428572  12.8635817307692 4.90764508928572  11.9441105769231 5.29436383928572  C 11.0246394230769 5.68108258928572  10.2944711538462 6.17522321428571  9.75360576923077 6.77678571428572  C 9.21274038461539 7.37834821428571  8.79807692307692 8.01060267857143  8.50961538461539 8.67354910714286  C 8.22115384615385 9.33649553571428  8.07692307692308 9.98102678571428  8.07692307692308 10.6071428571429  Z M 28.359375 24.3080357142857  C 28.8521634615385 24.8727678571429  29.3990384615385 25.4129464285714  30 25.9285714285714  C 30 26.5669642857143  29.7716346153846 27.1194196428571  29.3149038461538 27.5859375  C 28.8581730769231 28.0524553571429  28.3173076923077 28.2857142857143  27.6923076923077 28.2857142857143  L 19.6153846153846 28.2857142857143  C 19.6153846153846 29.5870535714286  19.1646634615385 30.6981026785714  18.2632211538462 31.6188616071429  C 17.3617788461538 32.5396205357143  16.2740384615385 33  15 33  C 13.7259615384615 33  12.6382211538462 32.5396205357143  11.7367788461538 31.6188616071429  C 10.8353365384615 30.6981026785714  10.3846153846154 29.5870535714286  10.3846153846154 28.2857142857143  L 2.30769230769231 28.2857142857143  C 1.68269230769231 28.2857142857143  1.14182692307692 28.0524553571429  0.685096153846154 27.5859375  C 0.228365384615385 27.1194196428571  0 26.5669642857143  0 25.9285714285714  C 0.600961538461539 25.4129464285714  1.14783653846154 24.8727678571429  1.640625 24.3080357142857  C 2.13341346153846 23.7433035714286  2.64423076923077 23.009765625  3.17307692307692 22.107421875  C 3.70192307692308 21.205078125  4.14963942307692 20.2321428571429  4.51622596153846 19.1886160714286  C 4.8828125 18.1450892857143  5.18329326923077 16.8805803571429  5.41766826923077 15.3950892857143  C 5.65204326923077 13.9095982142857  5.76923076923077 12.3136160714286  5.76923076923077 10.6071428571429  C 5.76923076923077 8.74107142857143  6.47235576923077 7.00697544642857  7.87860576923077 5.40485491071428  C 9.28485576923077 3.802734375  11.1298076923077 2.82979910714286  13.4134615384615 2.48604910714286  C 13.3173076923077 2.25279017857143  13.2692307692308 2.01339285714286  13.2692307692308 1.76785714285714  C 13.2692307692308 1.27678571428571  13.4375 0.859374999999999  13.7740384615385 0.515625  C 14.1105769230769 0.171875000000001  14.5192307692308 0  15 0  C 15.4807692307692 0  15.8894230769231 0.171875000000001  16.2259615384615 0.515625  C 16.5625 0.859374999999999  16.7307692307692 1.27678571428571  16.7307692307692 1.76785714285714  C 16.7307692307692 2.01339285714286  16.6826923076923 2.25279017857143  16.5865384615385 2.48604910714286  C 18.8701923076923 2.82979910714286  20.7151442307692 3.802734375  22.1213942307692 5.40485491071428  C 23.5276442307692 7.00697544642857  24.2307692307692 8.74107142857143  24.2307692307692 10.6071428571429  C 24.2307692307692 12.3136160714286  24.3479567307692 13.9095982142857  24.5823317307692 15.3950892857143  C 24.8167067307692 16.8805803571429  25.1171875 18.1450892857143  25.4837740384615 19.1886160714286  C 25.8503605769231 20.2321428571429  26.2980769230769 21.205078125  26.8269230769231 22.107421875  C 27.3557692307692 23.009765625  27.8665865384615 23.7433035714286  28.359375 24.3080357142857  Z " fill-rule="nonzero" fill="#a30014" stroke="none" fill-opacity="0.996078431372549" transform="matrix(1 0 0 1 334 44 )" />
  </g>
</svg>