<?xml version="1.0" encoding="utf-8"?>
<svg version="1.1" xmlns:xlink="http://www.w3.org/1999/xlink" width="56px" height="56px" xmlns="http://www.w3.org/2000/svg">
  <defs>
    <filter x="1134px" y="1px" width="56px" height="56px" filterUnits="userSpaceOnUse" id="filter683">
      <feOffset dx="5" dy="3" in="SourceAlpha" result="shadowOffsetInner" />
      <feGaussianBlur stdDeviation="2.5" in="shadowOffsetInner" result="shadowGaussian" />
      <feComposite in2="shadowGaussian" operator="atop" in="SourceAlpha" result="shadowComposite" />
      <feColorMatrix type="matrix" values="0 0 0 0 0.333333333333333  0 0 0 0 0.333333333333333  0 0 0 0 0.333333333333333  0 0 0 0.211764705882353 0  " in="shadowComposite" />
    </filter>
    <g id="widget684">
      <path d="M 1157 6.5  C 1167.92 6.5  1176.5 15.08  1176.5 26  C 1176.5 36.92  1167.92 45.5  1157 45.5  C 1146.08 45.5  1137.5 36.92  1137.5 26  C 1137.5 15.08  1146.08 6.5  1157 6.5  Z " fill-rule="nonzero" fill="#ffffff" stroke="none" />
      <path d="M 1157 5  C 1168.76 5  1178 14.24  1178 26  C 1178 37.76  1168.76 47  1157 47  C 1145.24 47  1136 37.76  1136 26  C 1136 14.24  1145.24 5  1157 5  Z " stroke-width="4" stroke="#eddab6" fill="none" stroke-opacity="0.996078431372549" />
    </g>
  </defs>
  <g transform="matrix(1 0 0 1 -1134 -1 )">
    <use xlink:href="#widget684" filter="url(#filter683)" />
    <use xlink:href="#widget684" />
  </g>
</svg>