<?xml version="1.0" encoding="utf-8"?>
<svg version="1.1" xmlns:xlink="http://www.w3.org/1999/xlink" width="19px" height="18px" xmlns="http://www.w3.org/2000/svg">
  <g transform="matrix(1 0 0 1 -853 -916 )">
    <path d="M 5.13169642857143 13.4488636363636  C 5.32961309523809 13.6875  5.42857142857143 13.9772727272727  5.42857142857143 14.3181818181818  L 5.42857142857143 16.7727272727273  C 5.42857142857143 17.1136363636364  5.32961309523809 17.4034090909091  5.13169642857143 17.6420454545455  C 4.93377976190476 17.8806818181818  4.69345238095238 18  4.41071428571429 18  L 1.01785714285714 18  C 0.735119047619048 18  0.494791666666667 17.8806818181818  0.296875 17.6420454545455  C 0.0989583333333333 17.4034090909091  0 17.1136363636364  0 16.7727272727273  L 0 14.3181818181818  C 0 13.9772727272727  0.0989583333333333 13.6875  0.296875 13.4488636363636  C 0.494791666666667 13.2102272727273  0.735119047619048 13.0909090909091  1.01785714285714 13.0909090909091  L 4.41071428571429 13.0909090909091  C 4.69345238095238 13.0909090909091  4.93377976190476 13.2102272727273  5.13169642857143 13.4488636363636  Z M 5.13169642857143 6.90340909090909  C 5.32961309523809 7.14204545454545  5.42857142857143 7.43181818181818  5.42857142857143 7.77272727272727  L 5.42857142857143 10.2272727272727  C 5.42857142857143 10.5681818181818  5.32961309523809 10.8579545454545  5.13169642857143 11.0965909090909  C 4.93377976190476 11.3352272727273  4.69345238095238 11.4545454545455  4.41071428571429 11.4545454545455  L 1.01785714285714 11.4545454545455  C 0.735119047619048 11.4545454545455  0.494791666666667 11.3352272727273  0.296875 11.0965909090909  C 0.0989583333333333 10.8579545454545  0 10.5681818181818  0 10.2272727272727  L 0 7.77272727272727  C 0 7.43181818181818  0.0989583333333333 7.14204545454545  0.296875 6.90340909090909  C 0.494791666666667 6.66477272727273  0.735119047619048 6.54545454545455  1.01785714285714 6.54545454545455  L 4.41071428571429 6.54545454545455  C 4.69345238095238 6.54545454545455  4.93377976190476 6.66477272727273  5.13169642857143 6.90340909090909  Z M 11.9174107142857 13.4488636363636  C 12.1153273809524 13.6875  12.2142857142857 13.9772727272727  12.2142857142857 14.3181818181818  L 12.2142857142857 16.7727272727273  C 12.2142857142857 17.1136363636364  12.1153273809524 17.4034090909091  11.9174107142857 17.6420454545455  C 11.719494047619 17.8806818181818  11.4791666666667 18  11.1964285714286 18  L 7.80357142857143 18  C 7.52083333333333 18  7.28050595238095 17.8806818181818  7.08258928571429 17.6420454545455  C 6.88467261904762 17.4034090909091  6.78571428571429 17.1136363636364  6.78571428571429 16.7727272727273  L 6.78571428571429 14.3181818181818  C 6.78571428571429 13.9772727272727  6.88467261904762 13.6875  7.08258928571429 13.4488636363636  C 7.28050595238095 13.2102272727273  7.52083333333333 13.0909090909091  7.80357142857143 13.0909090909091  L 11.1964285714286 13.0909090909091  C 11.4791666666667 13.0909090909091  11.719494047619 13.2102272727273  11.9174107142857 13.4488636363636  Z M 5.13169642857143 0.357954545454546  C 5.32961309523809 0.596590909090908  5.42857142857143 0.886363636363636  5.42857142857143 1.22727272727273  L 5.42857142857143 3.68181818181818  C 5.42857142857143 4.02272727272727  5.32961309523809 4.3125  5.13169642857143 4.55113636363636  C 4.93377976190476 4.78977272727273  4.69345238095238 4.90909090909091  4.41071428571429 4.90909090909091  L 1.01785714285714 4.90909090909091  C 0.735119047619048 4.90909090909091  0.494791666666667 4.78977272727273  0.296875 4.55113636363636  C 0.0989583333333333 4.3125  0 4.02272727272727  0 3.68181818181818  L 0 1.22727272727273  C 0 0.886363636363636  0.0989583333333333 0.596590909090908  0.296875 0.357954545454546  C 0.494791666666667 0.119318181818181  0.735119047619048 0  1.01785714285714 0  L 4.41071428571429 0  C 4.69345238095238 0  4.93377976190476 0.119318181818181  5.13169642857143 0.357954545454546  Z M 11.9174107142857 6.90340909090909  C 12.1153273809524 7.14204545454545  12.2142857142857 7.43181818181818  12.2142857142857 7.77272727272727  L 12.2142857142857 10.2272727272727  C 12.2142857142857 10.5681818181818  12.1153273809524 10.8579545454545  11.9174107142857 11.0965909090909  C 11.719494047619 11.3352272727273  11.4791666666667 11.4545454545455  11.1964285714286 11.4545454545455  L 7.80357142857143 11.4545454545455  C 7.52083333333333 11.4545454545455  7.28050595238095 11.3352272727273  7.08258928571429 11.0965909090909  C 6.88467261904762 10.8579545454545  6.78571428571429 10.5681818181818  6.78571428571429 10.2272727272727  L 6.78571428571429 7.77272727272727  C 6.78571428571429 7.43181818181818  6.88467261904762 7.14204545454545  7.08258928571429 6.90340909090909  C 7.28050595238095 6.66477272727273  7.52083333333333 6.54545454545455  7.80357142857143 6.54545454545455  L 11.1964285714286 6.54545454545455  C 11.4791666666667 6.54545454545455  11.719494047619 6.66477272727273  11.9174107142857 6.90340909090909  Z M 18.703125 13.4488636363636  C 18.9010416666667 13.6875  19 13.9772727272727  19 14.3181818181818  L 19 16.7727272727273  C 19 17.1136363636364  18.9010416666667 17.4034090909091  18.703125 17.6420454545455  C 18.5052083333333 17.8806818181818  18.264880952381 18  17.9821428571429 18  L 14.5892857142857 18  C 14.3065476190476 18  14.0662202380952 17.8806818181818  13.8683035714286 17.6420454545455  C 13.6703869047619 17.4034090909091  13.5714285714286 17.1136363636364  13.5714285714286 16.7727272727273  L 13.5714285714286 14.3181818181818  C 13.5714285714286 13.9772727272727  13.6703869047619 13.6875  13.8683035714286 13.4488636363636  C 14.0662202380952 13.2102272727273  14.3065476190476 13.0909090909091  14.5892857142857 13.0909090909091  L 17.9821428571429 13.0909090909091  C 18.264880952381 13.0909090909091  18.5052083333333 13.2102272727273  18.703125 13.4488636363636  Z M 11.9174107142857 0.357954545454546  C 12.1153273809524 0.596590909090908  12.2142857142857 0.886363636363636  12.2142857142857 1.22727272727273  L 12.2142857142857 3.68181818181818  C 12.2142857142857 4.02272727272727  12.1153273809524 4.3125  11.9174107142857 4.55113636363636  C 11.719494047619 4.78977272727273  11.4791666666667 4.90909090909091  11.1964285714286 4.90909090909091  L 7.80357142857143 4.90909090909091  C 7.52083333333333 4.90909090909091  7.28050595238095 4.78977272727273  7.08258928571429 4.55113636363636  C 6.88467261904762 4.3125  6.78571428571429 4.02272727272727  6.78571428571429 3.68181818181818  L 6.78571428571429 1.22727272727273  C 6.78571428571429 0.886363636363636  6.88467261904762 0.596590909090908  7.08258928571429 0.357954545454546  C 7.28050595238095 0.119318181818181  7.52083333333333 0  7.80357142857143 0  L 11.1964285714286 0  C 11.4791666666667 0  11.719494047619 0.119318181818181  11.9174107142857 0.357954545454546  Z M 18.703125 6.90340909090909  C 18.9010416666667 7.14204545454545  19 7.43181818181818  19 7.77272727272727  L 19 10.2272727272727  C 19 10.5681818181818  18.9010416666667 10.8579545454545  18.703125 11.0965909090909  C 18.5052083333333 11.3352272727273  18.264880952381 11.4545454545455  17.9821428571429 11.4545454545455  L 14.5892857142857 11.4545454545455  C 14.3065476190476 11.4545454545455  14.0662202380952 11.3352272727273  13.8683035714286 11.0965909090909  C 13.6703869047619 10.8579545454545  13.5714285714286 10.5681818181818  13.5714285714286 10.2272727272727  L 13.5714285714286 7.77272727272727  C 13.5714285714286 7.43181818181818  13.6703869047619 7.14204545454545  13.8683035714286 6.90340909090909  C 14.0662202380952 6.66477272727273  14.3065476190476 6.54545454545455  14.5892857142857 6.54545454545455  L 17.9821428571429 6.54545454545455  C 18.264880952381 6.54545454545455  18.5052083333333 6.66477272727273  18.703125 6.90340909090909  Z M 18.703125 0.357954545454546  C 18.9010416666667 0.596590909090908  19 0.886363636363636  19 1.22727272727273  L 19 3.68181818181818  C 19 4.02272727272727  18.9010416666667 4.3125  18.703125 4.55113636363636  C 18.5052083333333 4.78977272727273  18.264880952381 4.90909090909091  17.9821428571429 4.90909090909091  L 14.5892857142857 4.90909090909091  C 14.3065476190476 4.90909090909091  14.0662202380952 4.78977272727273  13.8683035714286 4.55113636363636  C 13.6703869047619 4.3125  13.5714285714286 4.02272727272727  13.5714285714286 3.68181818181818  L 13.5714285714286 1.22727272727273  C 13.5714285714286 0.886363636363636  13.6703869047619 0.596590909090908  13.8683035714286 0.357954545454546  C 14.0662202380952 0.119318181818181  14.3065476190476 0  14.5892857142857 0  L 17.9821428571429 0  C 18.264880952381 0  18.5052083333333 0.119318181818181  18.703125 0.357954545454546  Z " fill-rule="nonzero" fill="#a30014" stroke="none" fill-opacity="0.996078431372549" transform="matrix(1 0 0 1 853 916 )" />
  </g>
</svg>