<?xml version="1.0" encoding="utf-8"?>
<svg version="1.1" xmlns:xlink="http://www.w3.org/1999/xlink" width="21px" height="21px" xmlns="http://www.w3.org/2000/svg">
  <g transform="matrix(1 0 0 1 -131 -9 )">
    <path d="M 5.671875 15.6903409090909  C 5.890625 15.96875  6 16.3068181818182  6 16.7045454545455  L 6 19.5681818181818  C 6 19.9659090909091  5.890625 20.3039772727273  5.671875 20.5823863636364  C 5.453125 20.8607954545455  5.1875 21  4.875 21  L 1.125 21  C 0.8125 21  0.546875 20.8607954545455  0.328125 20.5823863636364  C 0.109375 20.3039772727273  0 19.9659090909091  0 19.5681818181818  L 0 16.7045454545455  C 0 16.3068181818182  0.109375 15.96875  0.328125 15.6903409090909  C 0.546875 15.4119318181818  0.8125 15.2727272727273  1.125 15.2727272727273  L 4.875 15.2727272727273  C 5.1875 15.2727272727273  5.453125 15.4119318181818  5.671875 15.6903409090909  Z M 5.671875 8.05397727272727  C 5.890625 8.33238636363636  6 8.67045454545455  6 9.06818181818182  L 6 11.9318181818182  C 6 12.3295454545455  5.890625 12.6676136363636  5.671875 12.9460227272727  C 5.453125 13.2244318181818  5.1875 13.3636363636364  4.875 13.3636363636364  L 1.125 13.3636363636364  C 0.8125 13.3636363636364  0.546875 13.2244318181818  0.328125 12.9460227272727  C 0.109375 12.6676136363636  0 12.3295454545455  0 11.9318181818182  L 0 9.06818181818182  C 0 8.67045454545455  0.109375 8.33238636363636  0.328125 8.05397727272727  C 0.546875 7.77556818181818  0.8125 7.63636363636364  1.125 7.63636363636364  L 4.875 7.63636363636364  C 5.1875 7.63636363636364  5.453125 7.77556818181818  5.671875 8.05397727272727  Z M 13.171875 15.6903409090909  C 13.390625 15.96875  13.5 16.3068181818182  13.5 16.7045454545455  L 13.5 19.5681818181818  C 13.5 19.9659090909091  13.390625 20.3039772727273  13.171875 20.5823863636364  C 12.953125 20.8607954545455  12.6875 21  12.375 21  L 8.625 21  C 8.3125 21  8.046875 20.8607954545455  7.828125 20.5823863636364  C 7.609375 20.3039772727273  7.5 19.9659090909091  7.5 19.5681818181818  L 7.5 16.7045454545455  C 7.5 16.3068181818182  7.609375 15.96875  7.828125 15.6903409090909  C 8.046875 15.4119318181818  8.3125 15.2727272727273  8.625 15.2727272727273  L 12.375 15.2727272727273  C 12.6875 15.2727272727273  12.953125 15.4119318181818  13.171875 15.6903409090909  Z M 5.671875 0.417613636363637  C 5.890625 0.696022727272726  6 1.03409090909091  6 1.43181818181818  L 6 4.29545454545455  C 6 4.69318181818182  5.890625 5.03125  5.671875 5.30965909090909  C 5.453125 5.58806818181818  5.1875 5.72727272727273  4.875 5.72727272727273  L 1.125 5.72727272727273  C 0.8125 5.72727272727273  0.546875 5.58806818181818  0.328125 5.30965909090909  C 0.109375 5.03125  0 4.69318181818182  0 4.29545454545455  L 0 1.43181818181818  C 0 1.03409090909091  0.109375 0.696022727272726  0.328125 0.417613636363637  C 0.546875 0.139204545454545  0.8125 0  1.125 0  L 4.875 0  C 5.1875 0  5.453125 0.139204545454545  5.671875 0.417613636363637  Z M 13.171875 8.05397727272727  C 13.390625 8.33238636363636  13.5 8.67045454545455  13.5 9.06818181818182  L 13.5 11.9318181818182  C 13.5 12.3295454545455  13.390625 12.6676136363636  13.171875 12.9460227272727  C 12.953125 13.2244318181818  12.6875 13.3636363636364  12.375 13.3636363636364  L 8.625 13.3636363636364  C 8.3125 13.3636363636364  8.046875 13.2244318181818  7.828125 12.9460227272727  C 7.609375 12.6676136363636  7.5 12.3295454545455  7.5 11.9318181818182  L 7.5 9.06818181818182  C 7.5 8.67045454545455  7.609375 8.33238636363636  7.828125 8.05397727272727  C 8.046875 7.77556818181818  8.3125 7.63636363636364  8.625 7.63636363636364  L 12.375 7.63636363636364  C 12.6875 7.63636363636364  12.953125 7.77556818181818  13.171875 8.05397727272727  Z M 20.671875 15.6903409090909  C 20.890625 15.96875  21 16.3068181818182  21 16.7045454545455  L 21 19.5681818181818  C 21 19.9659090909091  20.890625 20.3039772727273  20.671875 20.5823863636364  C 20.453125 20.8607954545455  20.1875 21  19.875 21  L 16.125 21  C 15.8125 21  15.546875 20.8607954545455  15.328125 20.5823863636364  C 15.109375 20.3039772727273  15 19.9659090909091  15 19.5681818181818  L 15 16.7045454545455  C 15 16.3068181818182  15.109375 15.96875  15.328125 15.6903409090909  C 15.546875 15.4119318181818  15.8125 15.2727272727273  16.125 15.2727272727273  L 19.875 15.2727272727273  C 20.1875 15.2727272727273  20.453125 15.4119318181818  20.671875 15.6903409090909  Z M 13.171875 0.417613636363637  C 13.390625 0.696022727272726  13.5 1.03409090909091  13.5 1.43181818181818  L 13.5 4.29545454545455  C 13.5 4.69318181818182  13.390625 5.03125  13.171875 5.30965909090909  C 12.953125 5.58806818181818  12.6875 5.72727272727273  12.375 5.72727272727273  L 8.625 5.72727272727273  C 8.3125 5.72727272727273  8.046875 5.58806818181818  7.828125 5.30965909090909  C 7.609375 5.03125  7.5 4.69318181818182  7.5 4.29545454545455  L 7.5 1.43181818181818  C 7.5 1.03409090909091  7.609375 0.696022727272726  7.828125 0.417613636363637  C 8.046875 0.139204545454545  8.3125 0  8.625 0  L 12.375 0  C 12.6875 0  12.953125 0.139204545454545  13.171875 0.417613636363637  Z M 20.671875 8.05397727272727  C 20.890625 8.33238636363636  21 8.67045454545455  21 9.06818181818182  L 21 11.9318181818182  C 21 12.3295454545455  20.890625 12.6676136363636  20.671875 12.9460227272727  C 20.453125 13.2244318181818  20.1875 13.3636363636364  19.875 13.3636363636364  L 16.125 13.3636363636364  C 15.8125 13.3636363636364  15.546875 13.2244318181818  15.328125 12.9460227272727  C 15.109375 12.6676136363636  15 12.3295454545455  15 11.9318181818182  L 15 9.06818181818182  C 15 8.67045454545455  15.109375 8.33238636363636  15.328125 8.05397727272727  C 15.546875 7.77556818181818  15.8125 7.63636363636364  16.125 7.63636363636364  L 19.875 7.63636363636364  C 20.1875 7.63636363636364  20.453125 7.77556818181818  20.671875 8.05397727272727  Z M 20.671875 0.417613636363637  C 20.890625 0.696022727272726  21 1.03409090909091  21 1.43181818181818  L 21 4.29545454545455  C 21 4.69318181818182  20.890625 5.03125  20.671875 5.30965909090909  C 20.453125 5.58806818181818  20.1875 5.72727272727273  19.875 5.72727272727273  L 16.125 5.72727272727273  C 15.8125 5.72727272727273  15.546875 5.58806818181818  15.328125 5.30965909090909  C 15.109375 5.03125  15 4.69318181818182  15 4.29545454545455  L 15 1.43181818181818  C 15 1.03409090909091  15.109375 0.696022727272726  15.328125 0.417613636363637  C 15.546875 0.139204545454545  15.8125 0  16.125 0  L 19.875 0  C 20.1875 0  20.453125 0.139204545454545  20.671875 0.417613636363637  Z " fill-rule="nonzero" fill="#eddab6" stroke="none" transform="matrix(1 0 0 1 131 9 )" />
  </g>
</svg>