<?xml version="1.0" encoding="utf-8"?>
<svg version="1.1" xmlns:xlink="http://www.w3.org/1999/xlink" width="35px" height="29px" xmlns="http://www.w3.org/2000/svg">
  <g transform="matrix(1 0 0 1 -170 -30 )">
    <path d="M 10.8969907407407 25.5809659090909  C 11.4101080246914 25.0591856060606  11.6666666666667 24.4412878787879  11.6666666666667 23.7272727272727  C 11.6666666666667 23.0132575757576  11.4101080246914 22.3953598484848  10.8969907407407 21.8735795454545  C 10.3838734567901 21.3517992424242  9.77623456790124 21.0909090909091  9.07407407407407 21.0909090909091  C 8.37191358024691 21.0909090909091  7.76427469135803 21.3517992424242  7.25115740740741 21.8735795454545  C 6.73804012345679 22.3953598484848  6.48148148148148 23.0132575757576  6.48148148148148 23.7272727272727  C 6.48148148148148 24.4412878787879  6.73804012345679 25.0591856060606  7.25115740740741 25.5809659090909  C 7.76427469135803 26.1027462121212  8.37191358024691 26.3636363636364  9.07407407407407 26.3636363636364  C 9.77623456790124 26.3636363636364  10.3838734567901 26.1027462121212  10.8969907407407 25.5809659090909  Z M 3.88888888888889 12.5639204545455  L 3.88888888888889 13.1818181818182  L 11.6666666666667 13.1818181818182  L 11.6666666666667 7.90909090909091  L 8.46643518518519 7.90909090909091  C 8.2908950617284 7.90909090909091  8.14236111111111 7.97088068181818  8.02083333333333 8.09446022727273  L 4.07118055555556 12.1107954545455  C 3.94965277777778 12.234375  3.88888888888889 12.3854166666667  3.88888888888889 12.5639204545455  Z M 29.0451388888889 25.5809659090909  C 29.5582561728395 25.0591856060606  29.8148148148148 24.4412878787879  29.8148148148148 23.7272727272727  C 29.8148148148148 23.0132575757576  29.5582561728395 22.3953598484848  29.0451388888889 21.8735795454545  C 28.5320216049383 21.3517992424242  27.9243827160494 21.0909090909091  27.2222222222222 21.0909090909091  C 26.5200617283951 21.0909090909091  25.9124228395062 21.3517992424242  25.3993055555556 21.8735795454545  C 24.8861882716049 22.3953598484848  24.6296296296296 23.0132575757576  24.6296296296296 23.7272727272727  C 24.6296296296296 24.4412878787879  24.8861882716049 25.0591856060606  25.3993055555556 25.5809659090909  C 25.9124228395062 26.1027462121212  26.5200617283951 26.3636363636364  27.2222222222222 26.3636363636364  C 27.9243827160494 26.3636363636364  28.5320216049383 26.1027462121212  29.0451388888889 25.5809659090909  Z M 34.615162037037 0.391335227272729  C 34.8717206790123 0.652225378787875  35 0.961174242424241  35 1.31818181818182  L 35 22.4090909090909  C 35 22.6150568181818  34.9729938271605 22.7969933712121  34.9189814814815 22.9549005681818  C 34.8649691358025 23.1128077651515  34.7738233024691 23.2398200757576  34.6455439814815 23.3359375  C 34.5172646604938 23.4320549242424  34.4058641975309 23.5110085227273  34.3113425925926 23.5727982954545  C 34.2168209876543 23.6345880681818  34.0581597222222 23.67578125  33.8353587962963 23.6963778409091  C 33.6125578703704 23.7169744318182  33.4606481481481 23.7307054924242  33.3796296296296 23.7375710227273  C 33.2986111111111 23.7444365530303  33.1264467592593 23.7444365530303  32.8631365740741 23.7375710227273  C 32.5998263888889 23.7307054924242  32.4479166666667 23.7272727272727  32.4074074074074 23.7272727272727  C 32.4074074074074 25.1827651515152  31.9010416666667 26.4254261363636  30.8883101851852 27.4552556818182  C 29.8755787037037 28.4850852272727  28.6535493827161 29  27.2222222222222 29  C 25.7908950617284 29  24.5688657407407 28.4850852272727  23.5561342592593 27.4552556818182  C 22.5434027777778 26.4254261363636  22.037037037037 25.1827651515152  22.037037037037 23.7272727272727  L 14.2592592592593 23.7272727272727  C 14.2592592592593 25.1827651515152  13.7528935185185 26.4254261363636  12.740162037037 27.4552556818182  C 11.7274305555556 28.4850852272727  10.5054012345679 29  9.07407407407407 29  C 7.64274691358025 29  6.42071759259259 28.4850852272727  5.40798611111111 27.4552556818182  C 4.39525462962963 26.4254261363636  3.88888888888889 25.1827651515152  3.88888888888889 23.7272727272727  L 2.59259259259259 23.7272727272727  C 2.55208333333333 23.7272727272727  2.40017361111111 23.7307054924242  2.13686342592593 23.7375710227273  C 1.87355324074074 23.7444365530303  1.70138888888889 23.7444365530303  1.62037037037037 23.7375710227273  C 1.53935185185185 23.7307054924242  1.38744212962963 23.7169744318182  1.1646412037037 23.6963778409091  C 0.941840277777778 23.67578125  0.783179012345679 23.6345880681818  0.688657407407407 23.5727982954545  C 0.594135802469136 23.5110085227273  0.482735339506173 23.4320549242424  0.354456018518518 23.3359375  C 0.226176697530864 23.2398200757576  0.135030864197531 23.1128077651515  0.0810185185185185 22.9549005681818  C 0.0270061728395064 22.7969933712121  0 22.6150568181818  0 22.4090909090909  C 0 22.0520833333333  0.128279320987655 21.743134469697  0.384837962962963 21.4822443181818  C 0.641396604938272 21.2213541666667  0.945216049382717 21.0909090909091  1.2962962962963 21.0909090909091  L 1.2962962962963 14.5  C 1.2962962962963 14.3901515151515  1.29292052469136 14.1498579545455  1.28616898148148 13.7791193181818  C 1.27941743827161 13.4083806818182  1.27941743827161 13.147490530303  1.28616898148148 12.9964488636364  C 1.29292052469136 12.8454071969697  1.30979938271605 12.6085464015151  1.33680555555556 12.2858664772727  C 1.36381172839506 11.9631865530303  1.40769675925926 11.7091619318182  1.46846064814815 11.5237926136364  C 1.52922453703704 11.3384232954545  1.62374614197531 11.1290246212121  1.75202546296296 10.8955965909091  C 1.88030478395062 10.6621685606061  2.03221450617284 10.4562026515152  2.20775462962963 10.2776988636364  L 6.2181712962963 6.19957386363636  C 6.47472993827161 5.93868371212121  6.81568287037037 5.71898674242424  7.24103009259259 5.54048295454545  C 7.66637731481482 5.36197916666666  8.06134259259259 5.27272727272727  8.42592592592593 5.27272727272727  L 11.6666666666667 5.27272727272727  L 11.6666666666667 1.31818181818182  C 11.6666666666667 0.961174242424241  11.7949459876543 0.652225378787875  12.0515046296296 0.391335227272729  C 12.3080632716049 0.130445075757573  12.6118827160494 0  12.962962962963 0  L 33.7037037037037 0  C 34.0547839506173 0  34.3586033950617 0.130445075757573  34.615162037037 0.391335227272729  Z " fill-rule="nonzero" fill="#d9001b" stroke="none" transform="matrix(1 0 0 1 170 30 )" />
  </g>
</svg>