<?xml version="1.0" encoding="utf-8"?>
<svg version="1.1" xmlns:xlink="http://www.w3.org/1999/xlink" width="34px" height="27px" xmlns="http://www.w3.org/2000/svg">
  <g transform="matrix(1 0 0 1 -49 -31 )">
    <path d="M 32.1026785714286 10.3742897727273  C 32.8236607142857 9.87571022727273  33.4561011904762 9.31960227272727  34 8.70596590909091  L 34 23.9318181818182  C 34 24.7755681818182  33.7027529761905 25.4978693181818  33.1082589285714 26.0987215909091  C 32.5137648809524 26.6995738636364  31.7991071428571 27  30.9642857142857 27  L 3.03571428571429 27  C 2.20089285714286 27  1.48623511904762 26.6995738636364  0.891741071428572 26.0987215909091  C 0.297247023809524 25.4978693181818  0 24.7755681818182  0 23.9318181818182  L 0 8.70596590909091  C 0.556547619047619 9.33238636363636  1.1953125 9.88849431818181  1.91629464285714 10.3742897727273  C 6.49516369047619 13.5191761363636  9.63839285714286 15.7244318181818  11.3459821428571 16.9900568181818  C 12.0669642857143 17.5269886363636  12.6519717261905 17.9456676136364  13.1010044642857 18.24609375  C 13.550037202381 18.5465198863636  14.147693452381 18.8533380681818  14.8939732142857 19.1665482954545  C 15.6402529761905 19.4797585227273  16.3359375 19.6363636363636  16.9810267857143 19.6363636363636  L 17 19.6363636363636  L 17.0189732142857 19.6363636363636  C 17.6640625 19.6363636363636  18.3597470238095 19.4797585227273  19.1060267857143 19.1665482954545  C 19.8523065476191 18.8533380681818  20.4499627976191 18.5465198863636  20.8989955357143 18.24609375  C 21.3480282738095 17.9456676136364  21.9330357142857 17.5269886363636  22.6540178571429 16.9900568181818  C 24.8043154761905 15.4176136363636  27.9538690476191 13.2123579545455  32.1026785714286 10.3742897727273  Z M 33.0987723214286 0.901278409090908  C 33.6995907738095 1.50213068181818  34 2.22443181818182  34 3.06818181818182  C 34 4.078125  33.6901041666667 5.04332386363636  33.0703125 5.96377840909091  C 32.4505208333333 6.88423295454546  31.678943452381 7.67045454545455  30.7555803571429 8.32244318181818  C 25.9996279761905 11.6590909090909  23.0398065476191 13.7365056818182  21.8761160714286 14.5546875  C 21.7496279761905 14.6441761363636  21.4808407738095 14.8391335227273  21.0697544642857 15.1395596590909  C 20.6586681547619 15.4399857954545  20.3171502976191 15.6828835227273  20.0452008928571 15.8682528409091  C 19.7732514880952 16.0536221590909  19.4443824404762 16.2613636363636  19.05859375 16.4914772727273  C 18.6728050595238 16.7215909090909  18.3091517857143 16.8941761363636  17.9676339285714 17.0092329545455  C 17.6261160714286 17.1242897727273  17.3098958333333 17.1818181818182  17.0189732142857 17.1818181818182  L 17 17.1818181818182  L 16.9810267857143 17.1818181818182  C 16.6901041666667 17.1818181818182  16.3738839285714 17.1242897727273  16.0323660714286 17.0092329545455  C 15.6908482142857 16.8941761363636  15.3271949404762 16.7215909090909  14.94140625 16.4914772727273  C 14.5556175595238 16.2613636363636  14.2267485119048 16.0536221590909  13.9547991071429 15.8682528409091  C 13.682849702381 15.6828835227273  13.3413318452381 15.4399857954545  12.9302455357143 15.1395596590909  C 12.5191592261905 14.8391335227273  12.2503720238095 14.6441761363636  12.1238839285714 14.5546875  C 10.9728422619048 13.7365056818182  9.31584821428571 12.5699573863636  7.15290178571429 11.0550426136364  C 4.98995535714286 9.54012784090909  3.69345238095238 8.62926136363636  3.26339285714286 8.32244318181818  C 2.47916666666667 7.78551136363636  1.73921130952381 7.04723011363636  1.04352678571429 6.10759943181818  C 0.347842261904762 5.16796875  0 4.29545454545455  0 3.49005681818182  C 0 2.49289772727273  0.262462797619048 1.66193181818181  0.787388392857143 0.997159090909092  C 1.31231398809524 0.332386363636361  2.06175595238095 0  3.03571428571429 0  L 30.9642857142857 0  C 31.7864583333333 0  32.4979538690476 0.300426136363633  33.0987723214286 0.901278409090908  Z " fill-rule="nonzero" fill="#8080ff" stroke="none" transform="matrix(1 0 0 1 49 31 )" />
  </g>
</svg>