<?xml version="1.0" encoding="utf-8"?>
<svg version="1.1" xmlns:xlink="http://www.w3.org/1999/xlink" width="50px" height="50px" xmlns="http://www.w3.org/2000/svg">
  <g transform="matrix(1 0 0 1 -17 -148 )">
    <path d="M 42.8067755456349 42.3565279265873  C 38.088934375 47.1435600694444  31.7993632936508 49.7782687996032  25.0922952380952 49.7782687996032  C 18.3873784226191 49.7782687996032  12.0957061507937 47.1435600198413  7.37801502976191 42.3565279265873  C 7.17229330357143 42.148955109127  7.06237827380953 41.861735218254  7.07868794642857 41.5685617559524  C 7.32918616071429 36.9465272321428  10.3731870535714 35.5884738095238  15.895153968254 33.1248162202381  C 16.717690625 32.7582993551587  17.6013633928571 32.363165625  18.5543772321429 31.9235055059524  C 19.1651385912698 31.6404380456349  19.7109114583333 30.0969248511905  20.1649300595238 28.7083533234127  C 17.7561549603175 26.7210775793651  16.4408267857143 23.2607303571429  16.4408267857143 18.8564246527778  C 16.4408267857143 12.1280939980159  21.1015341765873 9.74078159722222  25.0923452380952 9.74078159722222  C 29.0832063492064 9.74078159722222  33.7439137400794 12.1280439484127  33.7439137400794 18.8564246527778  C 33.7439137400794 23.2616309027778  32.4286355654762 26.7210775793651  30.0198104662698 28.7083533234127  C 30.4718278769841 30.0969248511905  31.0175507440476 31.6403879960317  31.6324645337302 31.9235055059524  C 32.5832770337302 32.363165625  33.471052281746 32.7582994047619  34.2915376984127 33.1248162202381  C 39.8136547123016 35.5906250496032  42.8556044146825 36.9485784722222  43.1040013888889 41.5685617559524  C 43.1203110615079 41.861735218254  43.0123471726191 42.148955109127  42.8067755456349 42.3565279265873  Z M 16.7461074404762 35.028592609127  C 11.397292906746 37.4149543650794  9.51788100198413 38.3882302083333  9.19824191468254 41.2285606150794  C 13.4822764384921 45.400728968254  19.1082049107143 47.6933353174603  25.0922451884921 47.6933353174603  C 31.0785368055556 47.6933353174603  36.7023139880952 45.400728968254  40.9842973214286 41.2285606150794  C 40.6646081845238 38.3882802579365  38.7873975694444 37.4149544146825  33.4424854166667 35.0285925595238  C 32.6138451884921 34.6601245535714  31.7177650297619 34.2609884424603  30.7587476686508 33.817125843254  C 29.25205625 33.1207138392857  28.5964184027778 31.0866104166667  27.9021576388889 28.9342870535714  L 27.8064009920635 28.641163640873  C 27.6618654761905 28.1973510912698  27.8308154265873 27.7106130952381  28.2196954861111 27.4521101686508  C 30.4371073412698 25.9729350694444  31.6587801587302 22.9196286210317  31.6587801587302 18.8564247519841  C 31.6587801587302 12.3328152281746  26.6316059523809 11.8258152777778  25.0921951884921 11.8258152777778  C 23.5508833333333 11.8258152777778  18.5257102678571 12.3328152281746  18.5257102678571 18.8564247519841  C 18.5257102678571 22.9185279761905  19.7473830357143 25.9718344246032  21.9667960813492 27.4521101686508  C 22.3536249503968 27.7106130952381  22.5206237599206 28.1973510912698  22.3780894345238 28.641163640873  L 22.284484077381 28.928283531746  C 21.5880720734127 31.0845092261905  20.9324841765873 33.1207138888889  19.4297951884921 33.8171258928571  C 18.4687766369048 34.258787202381  17.572846577381 34.6579233134921  16.7461074404762 35.028592609127  Z M 42.8067255456349 42.3565279265873  C 42.6071074404762 42.5601484126984  42.3383984623016 42.6680622519841  42.0634357638889 42.6680622519841  C 41.9393123511905 42.6680622519841  41.8151388888889 42.6457990575397  41.6949677579365 42.6009225198413  C 41.3081388888889 42.4541857142857  41.0454834821429 42.0939225694444  41.0229701884921 41.682679265873  C 40.8499178075397 38.4859880456349  39.0643114087302 37.539077827381  33.4424853670635 35.0285925595238  C 32.6138451388889 34.6601245535714  31.7177649801587 34.2609884424603  30.7587476190476 33.817125843254  C 29.2520562003968 33.1207138392857  28.5964183531746 31.0866104166667  27.9021575892857 28.9342870535714  L 27.8064009424603 28.641163640873  C 27.6618654265873 28.1973510912698  27.8308153769841 27.7106130952381  28.2196954365079 27.4521101686508  C 30.4371072916667 25.9729350694444  31.658780109127 22.9196286210317  31.658780109127 18.8564247519841  C 31.658780109127 12.3328152281746  26.6316059027778 11.8258152777778  25.0921951388889 11.8258152777778  C 23.5508832837302 11.8258152777778  18.525710218254 12.3328152281746  18.525710218254 18.8564247519841  C 18.525710218254 22.9185279761905  19.7473829861111 25.9718344246032  21.966796031746 27.4521101686508  C 22.3536249007937 27.7106130952381  22.5206237103175 28.1973510912698  22.3780893849206 28.641163640873  L 22.2844840277778 28.928283531746  C 21.5880720238095 31.0845092261905  20.9324841269841 33.1207138888889  19.4297951388889 33.8171258928571  C 18.4687765873016 34.258787202381  17.5728465277778 34.6579233134921  16.746107390873 35.028592609127  C 11.1223802579365 37.5370766865079  9.33457251984127 38.4838368055556  9.15951899801587 41.6826793154762  C 9.13915694444445 42.0939726686508  8.8745003968254 42.4542357638889  8.4896226686508 42.6009225694444  C 8.10889742063492 42.7474592757936  7.66913725198413 42.6538038690476  7.37796498015873 42.3565279761905  C 2.7579316468254 37.6715061507936  0.214827083333333 31.4714880456349  0.214827083333333 24.9008506944444  C 0.214827083333333 11.1833350694444  11.3748796626984 0.0232824900793686  25.0922952380952 0.0232824900793686  C 38.8098108630952 0.0232824900793686  49.9698133928572 11.1833350694444  49.9698133928572 24.9008506944444  C 49.9698133928572 31.4714880456349  47.4246576388889 37.6715061507936  42.8067255456349 42.3565279265873  Z M 33.743813640873 18.856474702381  C 33.7438136904762 23.2616809523809  32.428535515873 26.7211276289683  30.0197604166667 28.7084033730159  C 30.4717778273809 30.0969749007937  31.0175006944444 31.6404380456349  31.632414484127 31.9235555555555  C 32.583226984127 32.3632156746032  33.4710022321429 32.7583494543651  34.2914876488095 33.1248662698413  C 38.8199668154762 35.1466624007937  41.6786580853175 36.4234678075397  42.7007127480159 39.3655584325397  C 46.056298015873 35.2953003472222  47.8847797619048 30.2314544642857  47.8847797619048 24.9009007936508  C 47.8847797619048 12.3329152777778  37.659330109127 2.10831612103175  25.0922451388889 2.10831612103175  C 12.5232590277778 2.10831612103175  2.29976051587302 12.3328652281746  2.29976051587302 24.9009007936508  C 2.29976051587302 30.2314544642857  4.12619107142857 35.2933492063492  7.48377752976191 39.3655584325397  C 8.50383100198413 36.4234178075397  11.3667248015873 35.1447112599206  15.8950538690476 33.1248662698413  C 16.7175905257937 32.7583494047619  17.6012632936508 32.3632156746032  18.5542771329365 31.9235555555556  C 19.1650384920635 31.6404880952381  19.710811359127 30.0969749007937  20.1648299603175 28.7084033730159  C 17.7560548611111 26.7211276289683  16.4407266865079 23.260780406746  16.4407266865079 18.856474702381  C 16.4407266865079 12.1281440476191  21.101434077381 9.7408316468254  25.0922451388889 9.7408316468254  C 29.08310625 9.7408316468254  33.743813640873 12.1280939980159  33.743813640873 18.856474702381  Z " fill-rule="nonzero" fill="#666666" stroke="none" transform="matrix(1 0 0 1 17 148 )" />
  </g>
</svg>