<?xml version="1.0" encoding="utf-8"?>
<svg version="1.1" xmlns:xlink="http://www.w3.org/1999/xlink" width="12px" height="13px" xmlns="http://www.w3.org/2000/svg">
  <g transform="matrix(1 0 0 1 -500 -736 )">
    <path d="M 11.9203125 9.39876302083333  C 11.9734375 9.82476128472222  12 10.2775607638889  12 10.7571614583333  C 12 11.3721788194444  11.8046875 11.8997395833333  11.4140625 12.33984375  C 11.0234375 12.7799479166667  10.553125 13  10.003125 13  L 1.996875 13  C 1.446875 13  0.9765625 12.7799479166667  0.5859375 12.33984375  C 0.1953125 11.8997395833333  0 11.3721788194444  0 10.7571614583333  C 0 10.2775607638889  0.0265625000000001 9.82476128472222  0.0796875000000001 9.39876302083333  C 0.1328125 8.97276475694444  0.23125 8.5439453125  0.375 8.1123046875  C 0.51875 7.6806640625  0.7015625 7.31108940972222  0.9234375 7.00358072916667  C 1.1453125 6.69607204861111  1.4390625 6.44498697916667  1.8046875 6.25032552083333  C 2.1703125 6.0556640625  2.590625 5.95833333333333  3.065625 5.95833333333333  C 3.884375 6.68055555555556  4.8625 7.04166666666667  6 7.04166666666667  C 7.1375 7.04166666666667  8.115625 6.68055555555556  8.934375 5.95833333333333  C 9.409375 5.95833333333333  9.8296875 6.0556640625  10.1953125 6.25032552083333  C 10.5609375 6.44498697916667  10.8546875 6.69607204861111  11.0765625 7.00358072916667  C 11.2984375 7.31108940972222  11.48125 7.6806640625  11.625 8.1123046875  C 11.76875 8.5439453125  11.8671875 8.97276475694444  11.9203125 9.39876302083333  Z M 8.5453125 0.9521484375  C 9.2484375 1.5869140625  9.6 2.35286458333333  9.6 3.25  C 9.6 4.14713541666667  9.2484375 4.9130859375  8.5453125 5.5478515625  C 7.8421875 6.1826171875  6.99375 6.5  6 6.5  C 5.00625 6.5  4.1578125 6.1826171875  3.4546875 5.5478515625  C 2.7515625 4.9130859375  2.4 4.14713541666667  2.4 3.25  C 2.4 2.35286458333333  2.7515625 1.5869140625  3.4546875 0.9521484375  C 4.1578125 0.3173828125  5.00625 0  6 0  C 6.99375 0  7.8421875 0.3173828125  8.5453125 0.9521484375  Z " fill-rule="nonzero" fill="#eddab6" stroke="none" transform="matrix(1 0 0 1 500 736 )" />
  </g>
</svg>