<?xml version="1.0" encoding="utf-8"?>
<svg version="1.1" xmlns:xlink="http://www.w3.org/1999/xlink" width="13px" height="13px" xmlns="http://www.w3.org/2000/svg">
  <g transform="matrix(1 0 0 1 -433 -735 )">
    <path d="M 9.267578125 1.67154947916667  C 8.40913318452381 1.27940538194444  7.48660714285714 1.08333333333333  6.5 1.08333333333333  C 5.51339285714286 1.08333333333333  4.59086681547619 1.27940538194444  3.732421875 1.67154947916667  C 2.87397693452381 2.06369357638889  2.19205729166667 2.59266493055555  1.68666294642857 3.25846354166667  C 1.18126860119048 3.92426215277778  0.928571428571428 4.64366319444444  0.928571428571428 5.41666666666667  C 0.928571428571428 6.04861111111111  1.10146949404762 6.65093315972222  1.447265625 7.2236328125  C 1.79306175595238 7.79633246527778  2.28031994047619 8.29144965277778  2.90904017857143 8.708984375  L 3.54017857142857 9.13216145833333  L 3.34430803571429 9.94466145833333  C 3.22823660714286 10.4581163194444  3.05896577380952 10.943359375  2.83649553571429 11.400390625  C 3.57161458333333 11.044921875  4.23660714285714 10.5625  4.83147321428571 9.953125  L 5.14341517857143 9.63151041666667  L 5.55691964285714 9.68229166666667  C 5.890625 9.72743055555556  6.20498511904762 9.75  6.5 9.75  C 7.48660714285714 9.75  8.40913318452381 9.55392795138889  9.267578125 9.16178385416667  C 10.1260230654762 8.76963975694444  10.8079427083333 8.24066840277778  11.3133370535714 7.57486979166667  C 11.8187313988095 6.90907118055556  12.0714285714286 6.18967013888889  12.0714285714286 5.41666666666667  C 12.0714285714286 4.64366319444444  11.8187313988095 3.92426215277778  11.3133370535714 3.25846354166667  C 10.8079427083333 2.59266493055555  10.1260230654762 2.06369357638889  9.267578125 1.67154947916667  Z M 12.1294642857143 2.69563802083333  C 12.7098214285714 3.52788628472222  13 4.43489583333333  13 5.41666666666667  C 13 6.3984375  12.7098214285714 7.30544704861111  12.1294642857143 8.1376953125  C 11.5491071428571 8.96994357638889  10.7607886904762 9.62727864583333  9.76450892857143 10.1097005208333  C 8.76822916666667 10.5921223958333  7.68005952380952 10.8333333333333  6.5 10.8333333333333  C 6.16145833333333 10.8333333333333  5.81082589285714 10.8107638888889  5.44810267857143 10.765625  C 4.49051339285714 11.7530381944444  3.37816220238095 12.4357638888889  2.11104910714286 12.8138020833333  C 1.87406994047619 12.8927951388889  1.59840029761905 12.9548611111111  1.28404017857143 13  L 1.24776785714286 13  C 1.17522321428571 13  1.10993303571429 12.9703776041667  1.05189732142857 12.9111328125  C 0.993861607142857 12.8518880208333  0.955171130952381 12.7743055555556  0.935825892857143 12.6783854166667  L 0.935825892857143 12.669921875  C 0.921316964285714 12.6473524305556  0.920107886904762 12.6134982638889  0.932198660714286 12.568359375  C 0.94428943452381 12.5232204861111  0.949125744047619 12.4950086805556  0.946707589285714 12.4837239583333  C 0.94428943452381 12.4724392361111  0.955171130952381 12.4456380208333  0.979352678571428 12.4033203125  L 1.02287946428571 12.3271484375  C 1.02287946428571 12.3271484375  1.03980654761905 12.3031684027778  1.07366071428571 12.2552083333333  C 1.10751488095238 12.2072482638889  1.12686011904762 12.1818576388889  1.13169642857143 12.1790364583333  C 1.1655505952381 12.1338975694444  1.24051339285714 12.0365668402778  1.35658482142857 11.8870442708333  C 1.47265625 11.7375217013889  1.55608258928571 11.6303168402778  1.60686383928571 11.5654296875  C 1.65764508928571 11.5005425347222  1.73260788690476 11.3891059027778  1.83175223214286 11.2311197916667  C 1.93089657738095 11.0731336805556  2.00948660714286 10.9292534722222  2.06752232142857 10.7994791666667  C 2.12555803571429 10.6697048611111  2.19084821428571 10.5032552083333  2.26339285714286 10.3001302083333  C 2.3359375 10.0970052083333  2.39880952380952 9.88259548611111  2.45200892857143 9.65690104166667  C 1.69270833333333 9.15473090277778  1.0942150297619 8.53407118055556  0.656529017857143 7.794921875  C 0.218843005952381 7.05577256944444  0 6.26302083333333  0 5.41666666666667  C 0 4.43489583333333  0.290178571428571 3.52788628472222  0.870535714285714 2.69563802083333  C 1.45089285714286 1.86338975694444  2.23921130952381 1.2060546875  3.23549107142857 0.7236328125  C 4.23177083333333 0.2412109375  5.31994047619048 0  6.5 0  C 7.68005952380952 0  8.76822916666667 0.2412109375  9.76450892857143 0.7236328125  C 10.7607886904762 1.2060546875  11.5491071428571 1.86338975694444  12.1294642857143 2.69563802083333  Z " fill-rule="nonzero" fill="#eddab6" stroke="none" transform="matrix(1 0 0 1 433 735 )" />
  </g>
</svg>