<?xml version="1.0" encoding="utf-8"?>
<svg version="1.1" xmlns:xlink="http://www.w3.org/1999/xlink" width="12px" height="11px" xmlns="http://www.w3.org/2000/svg">
  <g transform="matrix(1 0 0 1 -300 -737 )">
    <path d="M 10.275092936803 6.28448947778644  C 10.2800495662949 6.29592101844635  10.2825278810409 6.31306832943622  10.2825278810409 6.33593141075604  L 10.2825278810409 10.4512860483242  C 10.2825278810409 10.5998960769031  10.2354399008674 10.7285009093271  10.1412639405204 10.8371005455963  C 10.0470879801735 10.9457001818654  9.93556381660471 11  9.80669144981413 11  L 6.95167286245353 11  L 6.95167286245353 7.70771628994544  L 5.04832713754647 7.70771628994544  L 5.04832713754647 11  L 2.19330855018587 11  C 2.06443618339529 11  1.95291201982652 10.9457001818654  1.85873605947955 10.8371005455963  C 1.76456009913259 10.7285009093271  1.71747211895911 10.5998960769031  1.71747211895911 10.4512860483242  L 1.71747211895911 6.33593141075604  C 1.71747211895911 6.33021564042608  1.71871127633209 6.32164198493115  1.72118959107807 6.31021044427124  C 1.72366790582404 6.29877890361133  1.72490706319703 6.29020524811639  1.72490706319703 6.28448947778644  L 6 2.22057677318784  L 10.275092936803 6.28448947778644  Z M 11.9925650557621 5.54286827747467  C 11.997521685254 5.62003117692907  11.9801734820322 5.68719147830605  11.9405204460967 5.74434918160561  L 11.4795539033457 6.37879968823071  C 11.4399008674102 6.43024162120031  11.3878562577447 6.46167835801507  11.3234200743494 6.47310989867498  L 11.3011152416357 6.47310989867498  C 11.2366790582404 6.47310989867498  11.184634448575 6.45310470252013  11.1449814126394 6.41309431021044  L 6 1.46609508963367  L 0.855018587360595 6.41309431021044  C 0.795539033457249 6.45882047285009  0.736059479553903 6.47882566900494  0.676579925650558 6.47310989867498  C 0.612143742255266 6.46167835801507  0.560099132589839 6.43024162120031  0.520446096654275 6.37879968823071  L 0.0594795539033457 5.74434918160561  C 0.0198265179677819 5.68719147830605  0.00247831474597276 5.62003117692907  0.00743494423791822 5.54286827747467  C 0.0123915737298637 5.46570537802027  0.0396530359355638 5.40426084697324  0.0892193308550186 5.35853468433359  L 5.43494423791822 0.222915042868278  C 5.59355638166047 0.0743050142894247  5.7819083023544 0  6 0  C 6.2180916976456 0  6.40644361833953 0.0743050142894247  6.56505576208178 0.222915042868278  L 8.37918215613383 1.97194076383476  L 8.37918215613383 0.300077942322681  C 8.37918215613383 0.220057157703298  8.40148698884758 0.154325798908807  8.44609665427509 0.102883865939206  C 8.4907063197026 0.0514419329696028  8.54770755885998 0.0257209664848014  8.61710037174721 0.0257209664848014  L 10.0446096654275 0.0257209664848014  C 10.1140024783147 0.0257209664848014  10.1710037174721 0.0514419329696028  10.2156133828996 0.102883865939206  C 10.2602230483271 0.154325798908807  10.2825278810409 0.220057157703298  10.2825278810409 0.300077942322681  L 10.2825278810409 3.79812938425565  L 11.910780669145 5.35853468433359  C 11.9603469640644 5.40426084697324  11.9876084262701 5.46570537802027  11.9925650557621 5.54286827747467  Z " fill-rule="nonzero" fill="#a30014" stroke="none" fill-opacity="0.996078431372549" transform="matrix(1 0 0 1 300 737 )" />
  </g>
</svg>