<?xml version="1.0" encoding="utf-8"?>
<svg version="1.1" xmlns:xlink="http://www.w3.org/1999/xlink" width="62px" height="57px" xmlns="http://www.w3.org/2000/svg">
  <g transform="matrix(1 0 0 1 -698 -1071 )">
    <path d="M 35.0907572383074 47.9053485576923  C 35.3093912397921 47.6884014423077  35.4187082405345 47.4200721153846  35.4187082405345 47.1003605769231  L 35.4187082405345 40.5919471153846  C 35.4187082405345 40.2722355769231  35.3093912397921 40.00390625  35.0907572383074 39.7869591346154  C 34.8721232368226 39.5700120192308  34.6132145508538 39.4615384615385  34.3140311804009 39.4615384615385  L 27.6859688195991 39.4615384615385  C 27.3867854491463 39.4615384615385  27.1278767631774 39.5700120192308  26.9092427616926 39.7869591346154  C 26.6906087602079 40.00390625  26.5812917594655 40.2722355769231  26.5812917594655 40.5919471153846  L 26.5812917594655 47.1003605769231  C 26.5812917594655 47.4200721153846  26.6906087602079 47.6884014423077  26.9092427616926 47.9053485576923  C 27.1278767631774 48.1222956730769  27.3867854491463 48.2307692307692  27.6859688195991 48.2307692307692  L 34.3140311804009 48.2307692307692  C 34.6132145508538 48.2307692307692  34.8721232368226 48.1222956730769  35.0907572383074 47.9053485576923  Z M 34.9871937639198 34.8542668269231  C 35.2058277654046 34.7058293269231  35.3266518188567 34.5174278846154  35.3496659242762 34.2890625  L 35.9710467706013 18.5661057692308  C 35.9710467706013 18.2920673076923  35.8559762435041 18.0751201923077  35.6258351893096 17.9152644230769  C 35.3266518188567 17.6640625  35.0504825538233 17.5384615384615  34.7973273942094 17.5384615384615  L 27.2026726057906 17.5384615384615  C 26.9495174461767 17.5384615384615  26.6733481811433 17.6640625  26.3741648106904 17.9152644230769  C 26.1440237564959 18.0751201923077  26.0289532293987 18.3149038461538  26.0289532293987 18.6346153846154  L 26.6158129175947 34.2890625  C 26.6158129175947 34.5174278846154  26.7308834446919 34.7058293269231  26.9610244988864 34.8542668269231  C 27.1911655530809 35.0027043269231  27.4673348181143 35.0769230769231  27.7895322939866 35.0769230769231  L 34.1759465478842 35.0769230769231  C 34.4981440237565 35.0769230769231  34.768559762435 35.0027043269231  34.9871937639198 34.8542668269231  Z M 33.2438752783964 0.616586538461539  C 33.93429844098 1.02764423076923  34.4751299183371 1.58713942307692  34.8663697104677 2.29507211538462  L 61.3786191536748 50.5258413461538  C 62.1841128433556 51.9645432692308  62.1610987379362 53.4032451923077  61.3095768374165 54.8419471153846  C 60.9183370452858 55.5042067307692  60.3832590942836 56.0294471153846  59.7043429844098 56.4176682692308  C 59.025426874536 56.8058894230769  58.2947290274685 57  57.5122494432071 57  L 4.48775055679287 57  C 3.70527097253155 57  2.97457312546399 56.8058894230769  2.2956570155902 56.4176682692308  C 1.61674090571641 56.0294471153846  1.08166295471418 55.5042067307692  0.690423162583519 54.8419471153846  C -0.161098737936154 53.4032451923077  -0.184112843355605 51.9645432692308  0.621380846325167 50.5258413461538  L 27.1336302895323 2.29507211538462  C 27.524870081663 1.58713942307692  28.06570155902 1.02764423076923  28.7561247216036 0.616586538461539  C 29.4465478841871 0.205528846153849  30.1945063103192 0  31 0  C 31.8054936896808 0  32.5534521158129 0.205528846153849  33.2438752783964 0.616586538461539  Z " fill-rule="nonzero" fill="#f2a104" stroke="none" transform="matrix(1 0 0 1 698 1071 )" />
  </g>
</svg>