<?xml version="1.0" encoding="utf-8"?>
<svg version="1.1" xmlns:xlink="http://www.w3.org/1999/xlink" width="29px" height="32px" xmlns="http://www.w3.org/2000/svg">
  <g transform="matrix(1 0 0 1 -269 -1362 )">
    <path d="M 14.5 30.5714285714286  C 14.6858974358974 30.5714285714286  14.7788461538462 30.4761904761905  14.7788461538462 30.2857142857143  C 14.7788461538462 30.0952380952381  14.6858974358974 30  14.5 30  C 13.8145032051282 30  13.224859775641 29.7470238095238  12.7310697115385 29.2410714285714  C 12.2372796474359 28.735119047619  11.9903846153846 28.1309523809524  11.9903846153846 27.4285714285714  C 11.9903846153846 27.2380952380952  11.8974358974359 27.1428571428571  11.7115384615385 27.1428571428571  C 11.525641025641 27.1428571428571  11.4326923076923 27.2380952380952  11.4326923076923 27.4285714285714  C 11.4326923076923 28.297619047619  11.7318709935897 29.0386904761905  12.3302283653846 29.6517857142857  C 12.9285857371795 30.264880952381  13.651842948718 30.5714285714286  14.5 30.5714285714286  Z M 27.4140625 23.5714285714286  C 27.8904246794872 24.1190476190476  28.4190705128205 24.6428571428571  29 25.1428571428571  C 29 25.7619047619048  28.7792467948718 26.2976190476191  28.3377403846154 26.75  C 27.896233974359 27.2023809523809  27.3733974358974 27.4285714285714  26.7692307692308 27.4285714285714  L 18.9615384615385 27.4285714285714  C 18.9615384615385 28.6904761904762  18.5258413461538 29.7678571428571  17.6544471153846 30.6607142857143  C 16.7830528846154 31.5535714285714  15.7315705128205 32  14.5 32  C 13.2684294871795 32  12.2169471153846 31.5535714285714  11.3455528846154 30.6607142857143  C 10.4741586538462 29.7678571428571  10.0384615384615 28.6904761904762  10.0384615384615 27.4285714285714  L 2.23076923076923 27.4285714285714  C 1.62660256410256 27.4285714285714  1.10376602564103 27.2023809523809  0.662259615384615 26.75  C 0.220753205128205 26.2976190476191  0 25.7619047619048  0 25.1428571428571  C 0.580929487179487 24.6428571428571  1.10957532051282 24.1190476190476  1.5859375 23.5714285714286  C 2.06229967948718 23.0238095238095  2.55608974358974 22.3125  3.06730769230769 21.4375  C 3.57852564102564 20.5625  4.01131810897436 19.6190476190476  4.36568509615385 18.6071428571429  C 4.72005208333333 17.5952380952381  5.01051682692308 16.3690476190476  5.23707932692308 14.9285714285714  C 5.46364182692308 13.4880952380952  5.57692307692308 11.9404761904762  5.57692307692308 10.2857142857143  C 5.57692307692308 8.47619047619047  6.25661057692308 6.79464285714286  7.61598557692308 5.24107142857143  C 8.97536057692308 3.6875  10.7588141025641 2.74404761904762  12.9663461538462 2.41071428571428  C 12.8733974358974 2.18452380952381  12.8269230769231 1.95238095238095  12.8269230769231 1.71428571428572  C 12.8269230769231 1.23809523809524  12.9895833333333 0.833333333333332  13.3149038461538 0.5  C 13.6402243589744 0.166666666666668  14.0352564102564 0  14.5 0  C 14.9647435897436 0  15.3597756410256 0.166666666666668  15.6850961538462 0.5  C 16.0104166666667 0.833333333333332  16.1730769230769 1.23809523809524  16.1730769230769 1.71428571428572  C 16.1730769230769 1.95238095238095  16.1266025641026 2.18452380952381  16.0336538461538 2.41071428571428  C 18.2411858974359 2.74404761904762  20.0246394230769 3.6875  21.3840144230769 5.24107142857143  C 22.7433894230769 6.79464285714286  23.4230769230769 8.47619047619047  23.4230769230769 10.2857142857143  C 23.4230769230769 11.9404761904762  23.5363581730769 13.4880952380952  23.7629206730769 14.9285714285714  C 23.9894831730769 16.3690476190476  24.2799479166667 17.5952380952381  24.6343149038462 18.6071428571429  C 24.9886818910256 19.6190476190476  25.4214743589744 20.5625  25.9326923076923 21.4375  C 26.4439102564103 22.3125  26.9377003205128 23.0238095238095  27.4140625 23.5714285714286  Z " fill-rule="nonzero" fill="#ffff80" stroke="none" transform="matrix(1 0 0 1 269 1362 )" />
  </g>
</svg>