<?xml version="1.0" encoding="utf-8"?>
<svg version="1.1" xmlns:xlink="http://www.w3.org/1999/xlink" width="13px" height="13px" xmlns="http://www.w3.org/2000/svg">
  <g transform="matrix(1 0 0 1 -365 -736 )">
    <path d="M 3.51116071428571 9.71306818181818  C 3.64657738095238 9.88541666666666  3.71428571428571 10.094696969697  3.71428571428571 10.3409090909091  L 3.71428571428571 12.1136363636364  C 3.71428571428571 12.3598484848485  3.64657738095238 12.5691287878788  3.51116071428571 12.7414772727273  C 3.37574404761905 12.9138257575758  3.21130952380952 13  3.01785714285714 13  L 0.696428571428571 13  C 0.502976190476191 13  0.338541666666667 12.9138257575758  0.203125 12.7414772727273  C 0.0677083333333333 12.5691287878788  0 12.3598484848485  0 12.1136363636364  L 0 10.3409090909091  C 0 10.094696969697  0.0677083333333333 9.88541666666666  0.203125 9.71306818181818  C 0.338541666666667 9.5407196969697  0.502976190476191 9.45454545454546  0.696428571428571 9.45454545454546  L 3.01785714285714 9.45454545454546  C 3.21130952380952 9.45454545454546  3.37574404761905 9.5407196969697  3.51116071428571 9.71306818181818  Z M 3.51116071428571 4.98579545454546  C 3.64657738095238 5.15814393939394  3.71428571428571 5.36742424242424  3.71428571428571 5.61363636363636  L 3.71428571428571 7.38636363636364  C 3.71428571428571 7.63257575757576  3.64657738095238 7.84185606060606  3.51116071428571 8.01420454545455  C 3.37574404761905 8.18655303030303  3.21130952380952 8.27272727272727  3.01785714285714 8.27272727272727  L 0.696428571428571 8.27272727272727  C 0.502976190476191 8.27272727272727  0.338541666666667 8.18655303030303  0.203125 8.01420454545455  C 0.0677083333333333 7.84185606060606  0 7.63257575757576  0 7.38636363636364  L 0 5.61363636363636  C 0 5.36742424242424  0.0677083333333333 5.15814393939394  0.203125 4.98579545454546  C 0.338541666666667 4.81344696969697  0.502976190476191 4.72727272727273  0.696428571428571 4.72727272727273  L 3.01785714285714 4.72727272727273  C 3.21130952380952 4.72727272727273  3.37574404761905 4.81344696969697  3.51116071428571 4.98579545454546  Z M 8.15401785714286 9.71306818181818  C 8.28943452380952 9.88541666666666  8.35714285714286 10.094696969697  8.35714285714286 10.3409090909091  L 8.35714285714286 12.1136363636364  C 8.35714285714286 12.3598484848485  8.28943452380952 12.5691287878788  8.15401785714286 12.7414772727273  C 8.01860119047619 12.9138257575758  7.85416666666667 13  7.66071428571429 13  L 5.33928571428571 13  C 5.14583333333333 13  4.98139880952381 12.9138257575758  4.84598214285714 12.7414772727273  C 4.71056547619048 12.5691287878788  4.64285714285714 12.3598484848485  4.64285714285714 12.1136363636364  L 4.64285714285714 10.3409090909091  C 4.64285714285714 10.094696969697  4.71056547619048 9.88541666666666  4.84598214285714 9.71306818181818  C 4.98139880952381 9.5407196969697  5.14583333333333 9.45454545454546  5.33928571428571 9.45454545454546  L 7.66071428571429 9.45454545454546  C 7.85416666666667 9.45454545454546  8.01860119047619 9.5407196969697  8.15401785714286 9.71306818181818  Z M 3.51116071428571 0.258522727272727  C 3.64657738095238 0.430871212121211  3.71428571428571 0.640151515151515  3.71428571428571 0.886363636363637  L 3.71428571428571 2.65909090909091  C 3.71428571428571 2.90530303030303  3.64657738095238 3.11458333333333  3.51116071428571 3.28693181818182  C 3.37574404761905 3.4592803030303  3.21130952380952 3.54545454545455  3.01785714285714 3.54545454545455  L 0.696428571428571 3.54545454545455  C 0.502976190476191 3.54545454545455  0.338541666666667 3.4592803030303  0.203125 3.28693181818182  C 0.0677083333333333 3.11458333333333  0 2.90530303030303  0 2.65909090909091  L 0 0.886363636363637  C 0 0.640151515151515  0.0677083333333333 0.430871212121211  0.203125 0.258522727272727  C 0.338541666666667 0.086174242424242  0.502976190476191 0  0.696428571428571 0  L 3.01785714285714 0  C 3.21130952380952 0  3.37574404761905 0.086174242424242  3.51116071428571 0.258522727272727  Z M 8.15401785714286 4.98579545454546  C 8.28943452380952 5.15814393939394  8.35714285714286 5.36742424242424  8.35714285714286 5.61363636363636  L 8.35714285714286 7.38636363636364  C 8.35714285714286 7.63257575757576  8.28943452380952 7.84185606060606  8.15401785714286 8.01420454545455  C 8.01860119047619 8.18655303030303  7.85416666666667 8.27272727272727  7.66071428571429 8.27272727272727  L 5.33928571428571 8.27272727272727  C 5.14583333333333 8.27272727272727  4.98139880952381 8.18655303030303  4.84598214285714 8.01420454545455  C 4.71056547619048 7.84185606060606  4.64285714285714 7.63257575757576  4.64285714285714 7.38636363636364  L 4.64285714285714 5.61363636363636  C 4.64285714285714 5.36742424242424  4.71056547619048 5.15814393939394  4.84598214285714 4.98579545454546  C 4.98139880952381 4.81344696969697  5.14583333333333 4.72727272727273  5.33928571428571 4.72727272727273  L 7.66071428571429 4.72727272727273  C 7.85416666666667 4.72727272727273  8.01860119047619 4.81344696969697  8.15401785714286 4.98579545454546  Z M 12.796875 9.71306818181818  C 12.9322916666667 9.88541666666666  13 10.094696969697  13 10.3409090909091  L 13 12.1136363636364  C 13 12.3598484848485  12.9322916666667 12.5691287878788  12.796875 12.7414772727273  C 12.6614583333333 12.9138257575758  12.4970238095238 13  12.3035714285714 13  L 9.98214285714286 13  C 9.78869047619048 13  9.62425595238095 12.9138257575758  9.48883928571429 12.7414772727273  C 9.35342261904762 12.5691287878788  9.28571428571429 12.3598484848485  9.28571428571429 12.1136363636364  L 9.28571428571429 10.3409090909091  C 9.28571428571429 10.094696969697  9.35342261904762 9.88541666666666  9.48883928571429 9.71306818181818  C 9.62425595238095 9.5407196969697  9.78869047619048 9.45454545454546  9.98214285714286 9.45454545454546  L 12.3035714285714 9.45454545454546  C 12.4970238095238 9.45454545454546  12.6614583333333 9.5407196969697  12.796875 9.71306818181818  Z M 8.15401785714286 0.258522727272727  C 8.28943452380952 0.430871212121211  8.35714285714286 0.640151515151515  8.35714285714286 0.886363636363637  L 8.35714285714286 2.65909090909091  C 8.35714285714286 2.90530303030303  8.28943452380952 3.11458333333333  8.15401785714286 3.28693181818182  C 8.01860119047619 3.4592803030303  7.85416666666667 3.54545454545455  7.66071428571429 3.54545454545455  L 5.33928571428571 3.54545454545455  C 5.14583333333333 3.54545454545455  4.98139880952381 3.4592803030303  4.84598214285714 3.28693181818182  C 4.71056547619048 3.11458333333333  4.64285714285714 2.90530303030303  4.64285714285714 2.65909090909091  L 4.64285714285714 0.886363636363637  C 4.64285714285714 0.640151515151515  4.71056547619048 0.430871212121211  4.84598214285714 0.258522727272727  C 4.98139880952381 0.086174242424242  5.14583333333333 0  5.33928571428571 0  L 7.66071428571429 0  C 7.85416666666667 0  8.01860119047619 0.086174242424242  8.15401785714286 0.258522727272727  Z M 12.796875 4.98579545454546  C 12.9322916666667 5.15814393939394  13 5.36742424242424  13 5.61363636363636  L 13 7.38636363636364  C 13 7.63257575757576  12.9322916666667 7.84185606060606  12.796875 8.01420454545455  C 12.6614583333333 8.18655303030303  12.4970238095238 8.27272727272727  12.3035714285714 8.27272727272727  L 9.98214285714286 8.27272727272727  C 9.78869047619048 8.27272727272727  9.62425595238095 8.18655303030303  9.48883928571429 8.01420454545455  C 9.35342261904762 7.84185606060606  9.28571428571429 7.63257575757576  9.28571428571429 7.38636363636364  L 9.28571428571429 5.61363636363636  C 9.28571428571429 5.36742424242424  9.35342261904762 5.15814393939394  9.48883928571429 4.98579545454546  C 9.62425595238095 4.81344696969697  9.78869047619048 4.72727272727273  9.98214285714286 4.72727272727273  L 12.3035714285714 4.72727272727273  C 12.4970238095238 4.72727272727273  12.6614583333333 4.81344696969697  12.796875 4.98579545454546  Z M 12.796875 0.258522727272727  C 12.9322916666667 0.430871212121211  13 0.640151515151515  13 0.886363636363637  L 13 2.65909090909091  C 13 2.90530303030303  12.9322916666667 3.11458333333333  12.796875 3.28693181818182  C 12.6614583333333 3.4592803030303  12.4970238095238 3.54545454545455  12.3035714285714 3.54545454545455  L 9.98214285714286 3.54545454545455  C 9.78869047619048 3.54545454545455  9.62425595238095 3.4592803030303  9.48883928571429 3.28693181818182  C 9.35342261904762 3.11458333333333  9.28571428571429 2.90530303030303  9.28571428571429 2.65909090909091  L 9.28571428571429 0.886363636363637  C 9.28571428571429 0.640151515151515  9.35342261904762 0.430871212121211  9.48883928571429 0.258522727272727  C 9.62425595238095 0.086174242424242  9.78869047619048 0  9.98214285714286 0  L 12.3035714285714 0  C 12.4970238095238 0  12.6614583333333 0.086174242424242  12.796875 0.258522727272727  Z " fill-rule="nonzero" fill="#eddab6" stroke="none" transform="matrix(1 0 0 1 365 736 )" />
  </g>
</svg>