<?xml version="1.0" encoding="utf-8"?>
<svg version="1.1" xmlns:xlink="http://www.w3.org/1999/xlink" width="25px" height="26px" xmlns="http://www.w3.org/2000/svg">
  <g transform="matrix(1 0 0 1 -18 -11 )">
    <path d="M 24.4480298913043 10.4216944801027  C 24.8160099637681 10.8388960205392  25 11.3423192126658  25 11.9319640564827  L 25 14.0680359435173  C 25 14.6576807873342  24.8160099637681 15.1611039794608  24.4480298913043 15.5783055198973  C 24.0800498188406 15.9955070603338  23.6016757246377 16.204107830552  23.0129076086957 16  L 11.0563858695652 16  L 16.0326086956522 21.1103979460847  C 16.4628623188406 21.5109114249037  16.6779891304348 22.0115532734275  16.6779891304348 22.612323491656  C 16.6779891304348 23.2130937098845  16.4628623188406 23.7137355584082  16.0326086956522 24.1142490372272  L 14.7588315217391 25.382541720154  C 14.3399003623188 25.7941805733847  13.8303894927536 26  13.2302989130435 26  C 12.6415307971014 26  12.1263586956522 25.7941805733847  11.6847826086957 25.382541720154  L 0.628396739130435 14.5019255455712  C 0.209465579710145 14.0902866923406  0 13.5896448438169  0 13  C 0 12.4214805305948  0.209465579710145 11.9152759948652  0.628396739130435 11.4813863928113  L 11.6847826086957 0.634146341463415  C 12.1150362318841 0.211382113821136  12.6302083333333 0  13.2302989130435 0  C 13.8190670289855 0  14.3285778985507 0.211382113821136  14.7588315217391 0.634146341463415  L 16.0326086956522 1.86906290115533  C 16.4628623188406 2.2918271287976  16.6779891304348 2.79803166452717  16.6779891304348 3.38767650834403  C 16.6779891304348 3.97732135216089  16.4628623188406 4.48352588789046  16.0326086956522 4.90629011553273  L 11.0563858695652 10  L 23.0129076086957 10  C 23.6016757246377 9.79589216944801  24.0800498188406 10.0044929396662  24.4480298913043 10.4216944801027  Z " fill-rule="nonzero" fill="#555555" stroke="none" transform="matrix(1 0 0 1 18 11 )" />
  </g>
</svg>