<?xml version="1.0" encoding="utf-8"?>
<svg version="1.1" xmlns:xlink="http://www.w3.org/1999/xlink" width="27px" height="25px" xmlns="http://www.w3.org/2000/svg">
  <g transform="matrix(1 0 0 1 -45 -725 )">
    <path d="M 19.6171875 21.9439193446755  L 18.4489182692308 15.3119092627599  L 23.4140625 10.6332703213611  L 16.5667067307692 9.65658475110271  L 13.5 3.63894139886578  L 10.4332932692308 9.65658475110271  L 3.5859375 10.6332703213611  L 8.55108173076923 15.3119092627599  L 7.36658653846154 21.9439193446755  L 13.5 18.8090737240076  L 19.6171875 21.9439193446755  Z M 26.0913461538462 8.96345305608066  C 26.6971153846154 9.05797101449276  27 9.29951690821256  27 9.68809073724008  C 27 9.91913463558076  26.859375 10.1711825246797  26.578125 10.4442344045369  L 20.6881009615385 16.0207939508507  L 22.0835336538462 23.8972904851922  C 22.0943509615385 23.970804452846  22.0997596153846 24.0758244066373  22.0997596153846 24.2123503465658  C 22.0997596153846 24.7374501155219  21.8780048076923 25  21.4344951923077 25  C 21.2289663461538 25  21.0126201923077 24.9369880277253  20.7854567307692 24.8109640831758  L 13.5 21.0932577189666  L 6.21454326923077 24.8109640831758  C 5.9765625 24.9369880277253  5.76021634615385 25  5.56550480769231 25  C 5.33834134615385 25  5.16796875 24.9238605335014  5.05438701923077 24.7715816005041  C 4.94080528846154 24.6193026675068  4.88401442307692 24.4328922495274  4.88401442307692 24.2123503465658  C 4.88401442307692 24.1493383742911  4.89483173076923 24.0443184204999  4.91646634615385 23.8972904851922  L 6.31189903846154 16.0207939508507  L 0.405649038461538 10.4442344045369  C 0.135216346153846 10.1606805293006  0 9.90863264020164  0 9.68809073724008  C 0 9.29951690821256  0.302884615384615 9.05797101449276  0.908653846153846 8.96345305608066  L 9.05408653846154 7.81348456206679  L 12.7049278846154 0.645872715816004  C 12.9104567307692 0.215290905272  13.1754807692308 0  13.5 0  C 13.8245192307692 0  14.0895432692308 0.215290905272  14.2950721153846 0.645872715816004  L 17.9459134615385 7.81348456206679  L 26.0913461538462 8.96345305608066  Z " fill-rule="nonzero" fill="#a30014" stroke="none" transform="matrix(1 0 0 1 45 725 )" />
  </g>
</svg>