<?xml version="1.0" encoding="utf-8"?>
<svg version="1.1" xmlns:xlink="http://www.w3.org/1999/xlink" width="24px" height="21px" xmlns="http://www.w3.org/2000/svg">
  <g transform="matrix(1 0 0 1 -93 -729 )">
    <path d="M 23.7455357142857 6.969375  C 23.9151785714286 7.135625  24 7.3325  24 7.56  C 24 7.7875  23.9151785714286 7.984375  23.7455357142857 8.150625  L 16.8883928571429 14.870625  C 16.71875 15.036875  16.5178571428571 15.12  16.2857142857143 15.12  C 16.0535714285714 15.12  15.8526785714286 15.036875  15.6830357142857 14.870625  C 15.5133928571429 14.704375  15.4285714285714 14.5075  15.4285714285714 14.28  L 15.4285714285714 10.92  L 12.4285714285714 10.92  C 11.5535714285714 10.92  10.7700892857143 10.94625  10.078125 10.99875  C 9.38616071428572 11.05125  8.69866071428572 11.1453125  8.015625 11.2809375  C 7.33258928571428 11.4165625  6.73883928571429 11.6025  6.234375 11.83875  C 5.72991071428572 12.075  5.25892857142857 12.3790625  4.82142857142857 12.7509375  C 4.38392857142857 13.1228125  4.02678571428571 13.5646875  3.75 14.0765625  C 3.47321428571429 14.5884375  3.25669642857143 15.194375  3.10044642857143 15.894375  C 2.94419642857143 16.594375  2.86607142857143 17.38625  2.86607142857143 18.27  C 2.86607142857143 18.75125  2.88839285714286 19.289375  2.93303571428571 19.884375  C 2.93303571428571 19.936875  2.94419642857143 20.0396875  2.96651785714286 20.1928125  C 2.98883928571429 20.3459375  3 20.461875  3 20.540625  C 3 20.671875  2.96205357142857 20.78125  2.88616071428571 20.86875  C 2.81026785714286 20.95625  2.70535714285714 21  2.57142857142857 21  C 2.42857142857143 21  2.30357142857143 20.925625  2.19642857142857 20.776875  C 2.13392857142857 20.698125  2.07589285714286 20.601875  2.02232142857143 20.488125  C 1.96875 20.374375  1.90848214285714 20.243125  1.84151785714286 20.094375  C 1.77455357142857 19.945625  1.72767857142857 19.840625  1.70089285714286 19.779375  C 0.566964285714286 17.285625  0 15.3125  0 13.86  C 0 12.11875  0.236607142857143 10.661875  0.709821428571429 9.489375  C 2.15625 5.963125  6.0625 4.2  12.4285714285714 4.2  L 15.4285714285714 4.2  L 15.4285714285714 0.840000000000001  C 15.4285714285714 0.612499999999998  15.5133928571429 0.415624999999997  15.6830357142857 0.249374999999999  C 15.8526785714286 0.083124999999999  16.0535714285714 0  16.2857142857143 0  C 16.5178571428571 0  16.71875 0.083124999999999  16.8883928571429 0.249374999999999  L 23.7455357142857 6.969375  Z " fill-rule="nonzero" fill="#a30014" stroke="none" transform="matrix(1 0 0 1 93 729 )" />
  </g>
</svg>