<?xml version="1.0" encoding="utf-8"?>
<svg version="1.1" xmlns:xlink="http://www.w3.org/1999/xlink" width="34px" height="28px" xmlns="http://www.w3.org/2000/svg">
  <g transform="matrix(1 0 0 1 -284 -434 )">
    <path d="M 29.98730964467 4.41875  C 31.3248730964467 4.27291666666667  32.6624365482234 3.90833333333333  34 3.325  C 33.0363790186125 4.75416666666666  31.8714043993232 5.971875  30.505076142132 6.978125  C 30.5194585448393 7.18229166666667  30.5266497461929 7.48854166666666  30.5266497461929 7.896875  C 30.5266497461929 9.79270833333333  30.2533840947547 11.6848958333333  29.7068527918782 13.5734375  C 29.1603214890017 15.4619791666667  28.3297377326565 17.2739583333333  27.2151015228426 19.009375  C 26.1004653130288 20.7447916666667  24.7736886632826 22.2796875  23.2347715736041 23.6140625  C 21.6958544839256 24.9484375  19.840524534687 26.0130208333333  17.6687817258883 26.8078125  C 15.4970389170897 27.6026041666667  13.1742808798646 28  10.7005076142132 28  C 6.80287648054146 28  3.23604060913706 26.9427083333333  0 24.828125  C 0.503384094754653 24.8864583333333  1.06429780033841 24.915625  1.68274111675127 24.915625  C 4.91878172588833 24.915625  7.80245346869712 23.909375  10.3337563451777 21.896875  C 8.82360406091371 21.8677083333333  7.47165820642978 21.3973958333333  6.27791878172589 20.4859375  C 5.084179357022 19.5744791666667  4.26438240270728 18.4114583333333  3.81852791878173 16.996875  C 4.29314720812183 17.0697916666667  4.73181049069374 17.10625  5.13451776649746 17.10625  C 5.75296108291032 17.10625  6.36421319796954 17.0260416666667  6.96827411167513 16.865625  C 5.35744500846024 16.5302083333333  4.02347715736041 15.7171875  2.96637055837563 14.4265625  C 1.90926395939086 13.1359375  1.38071065989848 11.6375  1.38071065989848 9.93125  L 1.38071065989848 9.84375  C 2.35871404399323 10.3979166666667  3.40862944162437 10.696875  4.53045685279188 10.740625  C 3.58121827411167 10.0989583333333  2.8261421319797 9.26041666666667  2.26522842639594 8.225  C 1.70431472081218 7.18958333333333  1.4238578680203 6.06666666666666  1.4238578680203 4.85625  C 1.4238578680203 3.57291666666667  1.74027072758037 2.384375  2.37309644670051 1.290625  C 4.11336717428088 3.46354166666667  6.23117597292724 5.20260416666667  8.72652284263959 6.5078125  C 11.2218697123519 7.81302083333333  13.8934010152284 8.53854166666667  16.741116751269 8.684375  C 16.6260575296108 8.13020833333333  16.5685279187817 7.590625  16.5685279187817 7.065625  C 16.5685279187817 5.11145833333333  17.2480964467005 3.4453125  18.6072335025381 2.0671875  C 19.9663705583756 0.689062500000001  21.6095600676819 0  23.5368020304569 0  C 25.5503384094755 0  27.247461928934 0.743750000000001  28.6281725888325 2.23125  C 30.1958544839256 1.925  31.6700507614213 1.35625  33.0507614213198 0.525000000000001  C 32.5186125211506 2.20208333333333  31.497461928934 3.5  29.98730964467 4.41875  Z " fill-rule="nonzero" fill="#02a7f0" stroke="none" transform="matrix(1 0 0 1 284 434 )" />
  </g>
</svg>