<?xml version="1.0" encoding="utf-8"?>
<svg version="1.1" xmlns:xlink="http://www.w3.org/1999/xlink" width="34px" height="27px" xmlns="http://www.w3.org/2000/svg">
  <g transform="matrix(1 0 0 1 -140 -435 )">
    <path d="M 11.6146123814835 21.5981404958678  C 12.1266034578918 21.4307851239669  12.5216583007994 21.1363636363636  12.7997769102064 20.7148760330579  C 13.0652537646403 20.2933884297521  13.134783416992 19.8657024793388  13.0083658672616 19.4318181818182  C 12.8819483175311 18.9979338842975  12.5975088306377 18.6880165289256  12.1550474065811 18.5020661157025  C 11.7252277374977 18.3285123966942  11.2638036809816 18.3223140495868  10.7707752370329 18.4834710743802  C 10.2777467930842 18.6446280991736  9.89849414389292 18.9297520661157  9.63301728945901 19.3388429752066  C 9.35489868005205 19.7603305785124  9.27272727272727 20.1849173553719  9.38650306748466 20.6126033057851  C 9.50027886224205 21.0402892561983  9.77207659416248 21.353305785124  10.201896263246 21.551652892562  C 10.6317159323294 21.75  11.1026213050753 21.7654958677686  11.6146123814835 21.5981404958678  Z M 14.165086447295 18.8088842975207  C 14.3547127718907 18.7407024793388  14.4937720765942 18.6260330578512  14.5822643614055 18.4648760330579  C 14.6833984011898 18.3037190082645  14.7055214723926 18.1394628099174  14.6486335750139 17.9721074380165  C 14.5917456776352 17.8047520661157  14.4811303216211 17.6900826446281  14.3167875069716 17.6280991735537  C 14.139802937349 17.5661157024793  13.9596579289831 17.5692148760331  13.776352481874 17.6373966942149  C 13.5930470347648 17.7055785123967  13.4571481688046 17.8202479338843  13.3686558839933 17.9814049586777  C 13.1537460494516 18.3657024793388  13.2359174567764 18.6446280991736  13.6151701059677 18.8181818181818  C 13.7921546755903 18.8801652892562  13.9754601226994 18.8770661157025  14.165086447295 18.8088842975207  Z M 17.8343558282209 16.9121900826446  C 18.4348391894404 18.0340909090909  18.4506413831567 19.2148760330578  17.8817624093698 20.4545454545455  C 17.3128834355828 21.7190082644628  16.3141847927124 22.6487603305785  14.8856664807585 23.2438016528926  C 13.4571481688046 23.8388429752066  12.0412716118238 23.9132231404959  10.638036809816 23.4669421487603  C 9.28536902770032 23.0454545454545  8.35303959843837 22.2613636363636  7.84104852203012 21.1146694214876  C 7.32905744562186 19.9679752066116  7.37014314928425 18.8057851239669  7.96430563301729 17.6280991735537  C 8.55846811675033 16.4752066115702  9.51608105595836 15.6136363636364  10.8371444506414 15.0433884297521  C 12.1582078453244 14.4731404958678  13.4887525562372 14.3553719008264  14.8287785833798 14.6900826446281  C 16.2320133853876 15.0495867768595  17.2338724670013 15.7902892561983  17.8343558282209 16.9121900826446  Z M 21.2855549358617 22.3977272727273  C 23.1375720394125 20.9287190082645  23.9750883063767 19.2892561983471  23.798103736754 17.4793388429752  C 23.6843279419967 16.2892561983471  23.1217698456962 15.2355371900826  22.1104294478528 14.3181818181818  C 21.0990890500093 13.400826446281  19.7811860940695 12.7252066115702  18.1567205800335 12.2913223140496  C 16.5322550659974 11.8574380165289  14.7971741959472 11.7272727272727  12.9514779698829 11.900826446281  C 10.1323666108942 12.1859504132231  7.79680237962447 13.0630165289256  5.94478527607362 14.5320247933884  C 4.09276817252277 16.0010330578512  3.25525190555865 17.6404958677686  3.43223647518126 19.4504132231405  C 3.54601226993865 20.6404958677686  4.10857036623908 21.6942148760331  5.11991076408254 22.6115702479339  C 6.13125116192601 23.5289256198347  7.44915411786578 24.2045454545455  9.07361963190184 24.6384297520661  C 10.6980851459379 25.0723140495868  12.4331660159881 25.202479338843  14.2788622420524 25.0289256198347  C 17.0979736010411 24.7438016528926  19.4335378323108 23.8667355371901  21.2855549358617 22.3977272727273  Z M 28.9938650306748 15.3873966942149  C 29.4236846997583 16.0382231404959  29.6385945343001 16.7603305785124  29.6385945343001 17.5537190082645  C 29.6385945343001 18.396694214876  29.4047220672988 19.2613636363636  28.9369771332962 20.1477272727273  C 28.4692321992936 21.0340909090909  27.7802565532627 21.8832644628099  26.8700501952036 22.6952479338843  C 25.9598438371445 23.5072314049587  24.8947759806656 24.2355371900826  23.6748466257669 24.8801652892562  C 22.4549172708682 25.5247933884298  21.0263989589143 26.0392561983471  19.3892916899052 26.4235537190083  C 17.7521844208961 26.8078512396694  16.042387060792 27  14.2598996095929 27  C 12.4774121583938 27  10.7391708496003 26.7923553719008  9.04517568321249 26.3770661157025  C 7.35118051682469 25.9617768595041  5.83100948131623 25.3853305785124  4.48466257668712 24.6477272727273  C 3.138315672058 23.9101239669421  2.05428518311954 22.974173553719  1.23257110987172 21.8398760330579  C 0.410857036623908 20.7055785123967  0 19.4690082644628  0 18.1301652892562  C 0 16.7045454545455  0.439300985313255 15.1859504132231  1.31790295593977 13.5743801652893  C 2.19650492656628 11.9628099173554  3.4448782301543 10.3636363636364  5.06302286670385 8.77685950413223  C 7.19947945714817 6.68181818181818  9.35805911879532 5.21900826446281  11.5387618516453 4.38842975206611  C 13.7194645844953 3.55785123966942  15.2775608849228 3.60123966942149  16.2130507529281 4.51859504132232  C 17.0347648261759 5.31198347107438  17.1611823759063 6.60743801652892  16.5923034021194 8.40495867768595  C 16.5417363822272 8.57851239669421  16.5354155047407 8.70247933884297  16.5733407696598 8.77685950413223  C 16.6112660345789 8.85123966942149  16.6744748094441 8.89462809917355  16.7629670942554 8.90702479338843  C 16.8514593790667 8.91942148760331  16.9431121026213 8.91632231404959  17.0379252649191 8.89772727272727  C 17.132738427217 8.87913223140496  17.218070273285 8.85743801652892  17.2939208031233 8.83264462809917  L 17.4076965978806 8.79545454545455  C 19.1649005391337 8.06404958677686  20.719836400818 7.69834710743802  22.0725041829336 7.69834710743802  C 23.4251719650493 7.69834710743802  24.3922662204871 8.07644628099173  24.9737869492471 8.83264462809917  C 25.542665923034 9.61363636363636  25.542665923034 10.7169421487603  24.9737869492471 12.1425619834711  C 24.948503439301 12.3037190082645  24.9200594906116 12.4276859504132  24.888455103179 12.5144628099174  C 24.8568507157464 12.6012396694215  24.8852946644358 12.6787190082645  24.9737869492471 12.7469008264463  C 25.0622792340584 12.8150826446281  25.1381297638966 12.8615702479339  25.2013385387619 12.8863636363636  C 25.2645473136271 12.9111570247934  25.3720022308979 12.948347107438  25.5237032905745 12.9979338842975  C 26.2442833240379 13.2210743801653  26.8953337051497 13.5123966942149  27.4768544339096 13.8719008264463  C 28.0583751626696 14.2314049586777  28.5640453615914 14.7365702479339  28.9938650306748 15.3873966942149  Z M 26.3201338538762 4.73243801652893  C 27.0659973972857 4.96177685950413  27.7044060234244 5.36776859504132  28.2353597322922 5.9504132231405  C 28.7663134411601 6.53305785123967  29.1108012641755 7.2055785123967  29.2688232013385 7.96797520661157  C 29.4268451385016 8.73037190082644  29.3857594348392 9.45867768595041  29.1455660903514 10.1528925619835  C 29.044432050567 10.4380165289256  28.8579661647146 10.6487603305785  28.5861684327942 10.7851239669421  C 28.3143707008738 10.9214876033058  28.0330916527236 10.9462809917355  27.7423312883436 10.8595041322314  C 27.4515709239636 10.7603305785124  27.2366610894218 10.577479338843  27.0976017847183 10.3109504132231  C 26.9585424800149 10.0444214876033  26.9332589700688 9.76859504132231  27.0217512548801 9.48347107438017  C 27.274586354341 8.70247933884298  27.1228852946644 8.01446280991736  26.5666480758505 7.41942148760331  C 26.0104108570366 6.82438016528926  25.3340769659788 6.60743801652892  24.5376464026771 6.76859504132231  C 24.234244283324 6.83057851239669  23.9498047964306 6.78099173553719  23.6843279419967 6.6198347107438  C 23.4188510875627 6.45867768595041  23.2608291503997 6.22933884297521  23.2102621305075 5.93181818181818  C 23.1470533556423 5.63429752066116  23.1976203755345 5.35847107438016  23.361963190184 5.10433884297521  C 23.5263060048336 4.85020661157025  23.7601784718349 4.69214876033058  24.063580591188 4.6301652892562  C 24.8220858895706 4.46900826446281  25.5742703104666 4.50309917355372  26.3201338538762 4.73243801652893  Z M 27.723368655884 0.418388429752065  C 29.2530210076222 0.883264462809918  30.5677635248187 1.71694214876033  31.6675962074735 2.9194214876033  C 32.7674288901283 4.1095041322314  33.478527607362 5.48863636363636  33.8008923591746 7.05681818181818  C 34.1232571109872 8.625  34.0379252649191 10.1219008264463  33.5448968209704 11.547520661157  C 33.431121026213 11.8822314049587  33.2162111916713 12.1301652892562  32.9001673173452 12.2913223140496  C 32.5841234430192 12.452479338843  32.25543781372 12.4772727272727  31.9141104294479 12.3657024793388  C 31.5727830451757 12.254132231405  31.3199479457148 12.0433884297521  31.1556051310653 11.7334710743802  C 30.9912623164157 11.4235537190083  30.9596579289831 11.1012396694215  31.0607919687674 10.7665289256198  C 31.4147611080126 9.75  31.4779698828779 8.68388429752066  31.2504182933631 7.56818181818182  C 31.0228667038483 6.45247933884298  30.5171965049266 5.47314049586777  29.7334076965979 4.6301652892562  C 28.9496188882692 3.77479338842975  28.014129020264 3.18285123966942  26.9269380925823 2.85433884297521  C 25.8397471649005 2.52582644628099  24.7462353597323 2.47314049586777  23.6464026770775 2.69628099173554  C 23.2924335378323 2.77066115702479  22.9637479085332 2.71177685950413  22.6603457891801 2.51962809917355  C 22.3569436698271 2.32747933884297  22.1673173452315 2.05785123966942  22.0914668153932 1.71074380165289  C 22.0156162855549 1.36363636363636  22.0756646216769 1.0444214876033  22.2716118237591 0.75309917355372  C 22.4675590258412 0.461776859504132  22.7425171965049 0.278925619834711  23.0964863357501 0.204545454545454  C 24.6514221974345 -0.117768595041327  26.1937163041458 -0.0464876033057837  27.723368655884 0.418388429752065  Z " fill-rule="nonzero" fill="#d9001b" stroke="none" transform="matrix(1 0 0 1 140 435 )" />
  </g>
</svg>