<?xml version="1.0" encoding="utf-8"?>
<svg version="1.1" xmlns:xlink="http://www.w3.org/1999/xlink" width="67px" height="67px" xmlns="http://www.w3.org/2000/svg">
  <g transform="matrix(1 0 0 1 -43 -117 )">
    <path d="M 57.3610792311508 56.757747421627  C 51.0391720625 63.1723704930556  42.6111468134921 66.7028801914683  33.6236756190476 66.7028801914683  C 24.6390870863095 66.7028801914683  16.2082462420635 63.1723704265873  9.88654013988095 56.757747421627  C 9.61087302678571 56.4795998462302  9.46358688690476 56.0947251924603  9.48544184821429 55.7018727529762  C 9.82110945535714 49.5083464910714  13.9000706517857 47.6885549047619  21.2995063174603 44.387253735119  C 22.4017054375 43.8961211359127  23.5858269464286 43.3666419375  24.8628654910714 42.7774973779762  C 25.6812857123016 42.3981869811508  26.4126213541667 40.3298793005952  27.0210062797619 38.469193453373  C 23.7932476468254 35.8062439563492  22.0307078928571 31.1693786785714  22.0307078928571 25.2676090347222  C 22.0307078928571 16.2516459573413  28.276055796627 13.0526473402778  33.6237426190476 13.0526473402778  C 38.9714965079365 13.0526473402778  45.2168444117064 16.251578890873  45.2168444117064 25.2676090347222  C 45.2168444117064 31.1705854097222  43.4543716577381 35.8062439563492  40.2265460248016 38.469193453373  C 40.8322493551587 40.3298793005952  41.5635179970238 42.3981199146825  42.3875024751984 42.7774973779762  C 43.6615912251984 43.3666419375  44.8512100575397 43.896121202381  45.950660515873 44.387253735119  C 53.3502973144841 47.6914375664682  57.4265099156746 49.5110951527778  57.7593618611111 55.7018727529762  C 57.7812168224206 56.0947251924603  57.6365452113095 56.4795998462302  57.3610792311508 56.757747421627  Z M 22.4397839702381 46.9383140962302  C 15.2723724950397 50.1360388492064  12.7539605426587 51.4402284791667  12.3256441656746 55.2462712242063  C 18.0662504275794 60.8369768174603  25.6049945803571 63.9090693253968  33.6236085525794 63.9090693253968  C 41.6452393194444 63.9090693253968  49.1811007440476 60.8369768174603  54.9189584107143 55.2462712242063  C 54.4905749672619 51.4402955456349  51.9751127430556 50.1360389156746  44.8129304583333 46.9383140297619  C 43.7025525525794 46.4445669017857  42.501805139881 45.9097245128968  41.2167218759921 45.3149486299603  C 39.197755375 44.3817565446428  38.3192006597222 41.6560579583333  37.3888912361111 38.7719446517857  L 37.2605773293651 38.3791592787698  C 37.0668997380952 37.7844504623016  37.293292671627 37.132221547619  37.8143919513889 36.7858276259921  C 40.7857238373016 34.8037329930556  42.4227654126984 30.7123023521825  42.4227654126984 25.2676091676587  C 42.4227654126984 16.525972405754  35.6863519761905 15.8465924722222  33.6235415525794 15.8465924722222  C 31.5581836666667 15.8465924722222  24.8244517589286 16.525972405754  24.8244517589286 25.2676091676587  C 24.8244517589286 30.7108274880952  26.4614932678571 34.8022581289683  29.4355067490079 36.7858276259921  C 29.9538574335318 37.132221547619  30.1776358382937 37.7844504623016  29.9866398422619 38.3791592787698  L 29.8612086636905 38.7638999325397  C 28.928016578373 41.6532423630952  28.049528796627 44.3817566111111  26.0359255525794 45.3149486964286  C 24.7481606934524 45.9067748511905  23.5476144136905 46.4416172400794  22.4397839702381 46.9383140962302  Z M 57.3610122311508 56.757747421627  C 57.0935239702381 57.0305988730159  56.7334539394841 57.1752034176587  56.3650039236111 57.1752034176587  C 56.1986785505952 57.1752034176587  56.0322861111111 57.1453707371032  55.8712567956349 57.0852361765873  C 55.3529061111111 56.8886088571429  55.0009478660714 56.4058562430556  54.9707800525794 55.8547902162698  C 54.7388898621032 51.5712239811508  52.3461772876984 50.3023642886905  44.8129303918651 46.9383140297619  C 43.7025524861111 46.4445669017857  42.5018050734127 45.9097245128968  41.2167218095238 45.3149486299603  C 39.1977553085317 44.3817565446428  38.319200593254 41.6560579583333  37.3888911696429 38.7719446517857  L 37.2605772628968 38.3791592787698  C 37.066899671627 37.7844504623016  37.2932926051587 37.132221547619  37.8143918849206 36.7858276259921  C 40.7857237708333 34.8037329930556  42.4227653462302 30.7123023521825  42.4227653462302 25.2676091676587  C 42.4227653462302 16.525972405754  35.6863519097222 15.8465924722222  33.6235414861111 15.8465924722222  C 31.5581836001984 15.8465924722222  24.8244516924603 16.525972405754  24.8244516924603 25.2676091676587  C 24.8244516924603 30.7108274880952  26.4614932013889 34.8022581289683  29.4355066825397 36.7858276259921  C 29.9538573670635 37.132221547619  30.1776357718254 37.7844504623016  29.9866397757936 38.3791592787698  L 29.8612085972222 38.7638999325397  C 28.9280165119048 41.6532423630952  28.0495287301587 44.3817566111111  26.0359254861111 45.3149486964286  C 24.7481606269841 45.9067748511905  23.5476143472222 46.4416172400794  22.4397839037698 46.9383140962302  C 14.9039895456349 50.2996827599206  12.5083271765873 51.5683413194444  12.2737554573413 55.8547902827381  C 12.2464703055556 56.4059233759921  11.891830531746 56.8886759236111  11.3760943759921 57.0852362430556  C 10.8659225436508 57.2815954295635  10.2766439176587 57.1560971845238  9.8864730734127 56.7577474880952  C 3.69562840674603 50.4798182420635  0.287868291666667 42.1717939811508  0.287868291666667 33.3671399305556  C 0.287868291666667 14.9856689930556  15.2423387480159 0.0311985367063539  33.6236756190476 0.0311985367063539  C 52.0051465565476 0.0311985367063539  66.9595499464286 14.9856689930556  66.9595499464286 33.3671399305556  C 66.9595499464286 42.1717939811508  63.5490412361111 50.4798182420635  57.3610122311508 56.757747421627  Z M 45.2167102787698 25.2676761011905  C 45.2167103452381 31.1706524761905  43.4542375912698 35.8063110228175  40.2264789583333 38.4692605198413  C 40.8321822886905 40.3299463670635  41.5634509305556 42.3981869811508  42.3874354087302 42.7775644444444  C 43.6615241587302 43.3667090039683  44.8511429910714 43.8961882688492  45.9505934494048 44.3873208015873  C 52.0187555327381 47.0965276170635  55.8494018343254 48.8074468621032  57.2189550823413 52.7498482996032  C 61.7154393412698 47.2957024652778  64.1656048809524 40.5101489821429  64.1656048809524 33.3672070634921  C 64.1656048809524 16.5261064722222  50.4635023462302 2.82514360218254  33.6236084861111 2.82514360218254  C 16.7811670972222 2.82514360218254  3.08167909126984 16.526039405754  3.08167909126984 33.3672070634921  C 3.08167909126984 40.5101489821429  5.52909603571429 47.2930879365079  10.028261889881 52.7498482996032  C 11.3951335426587 48.8073798621032  15.231411234127 47.0939130882937  21.2993721845238 44.3873208015873  C 22.4015713045635 43.896188202381  23.5856928134921 43.3667090039683  24.8627313581349 42.7775644444444  C 25.6811515793651 42.398254047619  26.4124872212302 40.3299463670635  27.0208721468254 38.4692605198413  C 23.7931135138889 35.8063110228175  22.0305737599206 31.1694457450397  22.0305737599206 25.2676761011905  C 22.0305737599206 16.2517130238095  28.2759216636905 13.052714406746  33.6236084861111 13.052714406746  C 38.971362375 13.052714406746  45.2167102787698 16.2516459573413  45.2167102787698 25.2676761011905  Z " fill-rule="nonzero" fill="#a60014" stroke="none" transform="matrix(1 0 0 1 43 117 )" />
  </g>
</svg>