<?xml version="1.0" encoding="utf-8"?>
<svg version="1.1" xmlns:xlink="http://www.w3.org/1999/xlink" width="200px" height="204px" xmlns="http://www.w3.org/2000/svg">
  <defs>
    <mask fill="white" id="clip231">
      <path d="M 61 1246  L 61 1087  C 61 1078.675  67.675 1072  76 1072  L 216 1072  C 224.325 1072  231 1078.675  231 1087  L 231 1246  " fill-rule="evenodd" />
    </mask>
    <filter x="47px" y="1058px" width="200px" height="204px" filterUnits="userSpaceOnUse" id="filter232">
      <feOffset dx="1" dy="1" in="SourceAlpha" result="shadowOffsetInner" />
      <feGaussianBlur stdDeviation="7.5" in="shadowOffsetInner" result="shadowGaussian" />
      <feComposite in2="shadowGaussian" operator="atop" in="SourceAlpha" result="shadowComposite" />
      <feColorMatrix type="matrix" values="0 0 0 0 0.843137254901961  0 0 0 0 0.843137254901961  0 0 0 0 0.843137254901961  0 0 0 0.87843137254902 0  " in="shadowComposite" />
    </filter>
    <g id="widget233">
      <path d="M 61 1072  L 231 1072  L 231 1246  L 61 1246  L 61 1072  " fill-rule="nonzero" fill="#cccccc" stroke="none" mask="url(#clip231)" />
      <path d="M 73 1084  L 219 1084  L 219 1234  L 73 1234  L 73 1084  " fill-rule="nonzero" fill="#ffffff" stroke="none" mask="url(#clip231)" />
      <path d="M 162.15 1123.6  C 155.01 1123.6  149.4 1117.99  149.4 1110.85  C 149.4 1103.71  155.01 1098.1  162.15 1098.1  C 169.29 1098.1  174.9 1103.71  174.9 1110.85  C 174.9 1117.99  169.29 1123.6  162.15 1123.6  " fill-rule="nonzero" fill="#cccccc" stroke="none" mask="url(#clip231)" />
      <path d="M 78 1230  L 78 1152.45  L 112.25 1117.2  L 160.2 1145.4  L 187.6 1138.35  L 215 1145.4  L 215 1230  L 78 1230  " fill-rule="nonzero" fill="#169bd5" stroke="none" mask="url(#clip231)" />
    </g>
  </defs>
  <g transform="matrix(1 0 0 1 -47 -1058 )">
    <use xlink:href="#widget233" filter="url(#filter232)" />
    <use xlink:href="#widget233" />
  </g>
</svg>