<?xml version="1.0" encoding="utf-8"?>
<svg version="1.1" xmlns:xlink="http://www.w3.org/1999/xlink" width="200px" height="204px" xmlns="http://www.w3.org/2000/svg">
  <defs>
    <mask fill="white" id="clip276">
      <path d="M 61 1386  L 61 1227  C 61 1218.675  67.675 1212  76 1212  L 216 1212  C 224.325 1212  231 1218.675  231 1227  L 231 1386  " fill-rule="evenodd" />
    </mask>
    <filter x="47px" y="1198px" width="200px" height="204px" filterUnits="userSpaceOnUse" id="filter277">
      <feOffset dx="1" dy="1" in="SourceAlpha" result="shadowOffsetInner" />
      <feGaussianBlur stdDeviation="7.5" in="shadowOffsetInner" result="shadowGaussian" />
      <feComposite in2="shadowGaussian" operator="atop" in="SourceAlpha" result="shadowComposite" />
      <feColorMatrix type="matrix" values="0 0 0 0 0.843137254901961  0 0 0 0 0.843137254901961  0 0 0 0 0.843137254901961  0 0 0 0.87843137254902 0  " in="shadowComposite" />
    </filter>
    <g id="widget278">
      <path d="M 61 1212  L 231 1212  L 231 1386  L 61 1386  L 61 1212  " fill-rule="nonzero" fill="#cccccc" stroke="none" mask="url(#clip276)" />
      <path d="M 73 1224  L 219 1224  L 219 1374  L 73 1374  L 73 1224  " fill-rule="nonzero" fill="#ffffff" stroke="none" mask="url(#clip276)" />
      <path d="M 162.15 1263.6  C 155.01 1263.6  149.4 1257.99  149.4 1250.85  C 149.4 1243.71  155.01 1238.1  162.15 1238.1  C 169.29 1238.1  174.9 1243.71  174.9 1250.85  C 174.9 1257.99  169.29 1263.6  162.15 1263.6  " fill-rule="nonzero" fill="#cccccc" stroke="none" mask="url(#clip276)" />
      <path d="M 78 1370  L 78 1292.45  L 112.25 1257.2  L 160.2 1285.4  L 187.6 1278.35  L 215 1285.4  L 215 1370  L 78 1370  " fill-rule="nonzero" fill="#169bd5" stroke="none" mask="url(#clip276)" />
    </g>
  </defs>
  <g transform="matrix(1 0 0 1 -47 -1198 )">
    <use xlink:href="#widget278" filter="url(#filter277)" />
    <use xlink:href="#widget278" />
  </g>
</svg>