<?xml version="1.0" encoding="utf-8"?>
<svg version="1.1" xmlns:xlink="http://www.w3.org/1999/xlink" width="100px" height="100px" xmlns="http://www.w3.org/2000/svg">
  <g transform="matrix(1 0 0 1 -275 -1221 )">
    <path d="M 275 1221  L 375 1221  L 375 1321  L 275 1321  L 275 1221  " fill-rule="nonzero" fill="#cccccc" stroke="none" />
    <path d="M 282 1228  L 368 1228  L 368 1314  L 282 1314  L 282 1228  " fill-rule="nonzero" fill="#ffffff" stroke="none" />
    <path d="M 334.5 1251  C 330.3 1251  327 1247.7  327 1243.5  C 327 1239.3  330.3 1236  334.5 1236  C 338.7 1236  342 1239.3  342 1243.5  C 342 1247.7  338.7 1251  334.5 1251  " fill-rule="nonzero" fill="#cccccc" stroke="none" />
    <path d="M 285 1312  L 285 1267.45  L 305.25 1247.2  L 333.6 1263.4  L 349.8 1259.35  L 366 1263.4  L 366 1312  L 285 1312  " fill-rule="nonzero" fill="#169bd5" stroke="none" />
  </g>
</svg>