<?xml version="1.0" encoding="utf-8"?>
<svg version="1.1" xmlns:xlink="http://www.w3.org/1999/xlink" width="38px" height="38px" xmlns="http://www.w3.org/2000/svg">
  <g transform="matrix(1 0 0 1 -9 -26 )">
    <path d="M 32.5331494146825 32.1909612242063  C 28.947590125 35.8291056527778  24.1675161031746 37.8314842876984  19.0701443809524 37.8314842876984  C 13.9744076011905 37.8314842876984  9.19273667460318 35.8291056150794  5.60729142261905 32.1909612242063  C 5.45094291071429 32.0332058829365  5.36740748809524 31.814918765873  5.37980283928571 31.5921069345238  C 5.57018148214286 28.0793606964286  7.88362216071429 27.0472400952381  12.080317015873 25.174860327381  C 12.705444875 24.8963075099206  13.3770361785714 24.596005875  14.1013266964286 24.2618641845238  C 14.5655053293651 24.0467329146825  14.9802927083333 22.8736628869048  15.3253468452381 21.8183485257937  C 13.4946777698413 20.3080189603175  12.4950283571429 17.6781550714286  12.4950283571429 14.3308827361111  C 12.4950283571429 9.21735143849206  16.0371659742063 7.40299401388889  19.0701823809524 7.40299401388889  C 22.1032368253968 7.40299401388889  25.6453744424603 9.21731340079365  25.6453744424603 14.3308827361111  C 25.6453744424603 17.6788394861111  24.6457630297619 20.3080189603175  22.8150559543651 21.8183485257937  C 23.1585891865079 22.8736628869048  23.5733385654762 24.0466948769841  24.0406730456349 24.2618641845238  C 24.7632905456349 24.596005875  25.437999734127 24.896307547619  26.0615686507937 25.174860327381  C 30.2583775813492 27.0488750376984  32.5702593551587 28.0809196388889  32.7590410555556 31.5921069345238  C 32.771436406746 31.814918765873  32.6893838511905 32.0332058829365  32.5331494146825 32.1909612242063  Z M 12.7270416547619 26.6217303829365  C 8.66194260912698 28.4353653174603  7.23358956150794 29.1750549583333  6.99066385515873 31.3337060674603  C 10.246530093254 34.504554015873  14.5222357321429 36.2469348412698  19.070106343254 36.2469348412698  C 23.6196879722222 36.2469348412698  27.8937586309524 34.504554015873  31.1480659642857 31.3337060674603  C 30.9051022202381 29.1750929960317  29.4784221527778 28.4353653551587  25.4162889166667 26.6217303452381  C 24.786522343254 26.3416946607143  24.105501422619 26.0383512162698  23.3766482281746 25.701015640873  C 22.23156275 25.1717425178571  21.7332779861111 23.6258239166667  21.2056398055556 21.9900581607143  L 21.1328647539683 21.7672843670635  C 21.0230177619048 21.4299868293651  21.1514197242063 21.0600659523809  21.4469685694444 20.8636037281746  C 23.1322015793651 19.7394306527778  24.0606729206349 17.4189177519841  24.0606729206349 14.3308828115079  C 24.0606729206349 9.3729395734127  20.2400205238095 8.98761961111111  19.070068343254 8.98761961111111  C 17.8986713333333 8.98761961111111  14.0795398035714 9.3729395734127  14.0795398035714 14.3308828115079  C 14.0795398035714 17.4180812619048  15.0080111071429 19.7385941626984  16.6947650218254 20.8636037281746  C 16.9887549623016 21.0600659523809  17.1156740575397 21.4299868293651  17.0073479702381 21.7672843670635  L 16.9362078988095 21.985495484127  C 16.4069347757937 23.6242270119048  15.9086879742064 25.1717425555556  14.766644343254 25.7010156785714  C 14.0362702440476 26.0366782738095  13.3553633988095 26.340021718254  12.7270416547619 26.6217303829365  Z M 32.5331114146825 32.1909612242064  C 32.3814016547619 32.3457127936508  32.1771828313492 32.4277273115079  31.9682111805556 32.4277273115079  C 31.8738773869048 32.4277273115079  31.7795055555556 32.4108072837302  31.6881754960317 32.3767011150794  C 31.3941855555556 32.2651811428571  31.1945674464286 31.9913811527778  31.177457343254 31.6788362420635  C 31.0459375337302 29.2493509146825  29.6888766706349 28.5296991488095  25.4162888789683 26.6217303452381  C 24.7865223055556 26.3416946607143  24.1055013849206 26.0383512162698  23.3766481904762 25.701015640873  C 22.2315627123016 25.1717425178571  21.7332779484127 23.6258239166667  21.2056397678571 21.9900581607143  L 21.1328647162698 21.7672843670635  C 21.0230177242064 21.4299868293651  21.1514196865079 21.0600659523809  21.446968531746 20.8636037281746  C 23.1322015416667 19.7394306527778  24.0606728829365 17.4189177519841  24.0606728829365 14.3308828115079  C 24.0606728829365 9.3729395734127  20.2400204861111 8.98761961111111  19.0700683055556 8.98761961111111  C 17.8986712956349 8.98761961111111  14.079539765873 9.3729395734127  14.079539765873 14.3308828115079  C 14.079539765873 17.4180812619048  15.0080110694444 19.7385941626984  16.694764984127 20.8636037281746  C 16.9887549246032 21.0600659523809  17.1156740198413 21.4299868293651  17.0073479325397 21.7672843670635  L 16.9362078611111 21.985495484127  C 16.4069347380952 23.6242270119048  15.9086879365079 25.1717425555556  14.7666443055556 25.7010156785714  C 14.0362702063492 26.0366782738095  13.3553633611111 26.340021718254  12.7270416170635 26.6217303829365  C 8.45300899603175 28.528178281746  7.09427511507937 29.2477159722222  6.96123443849207 31.6788362797619  C 6.94575927777778 31.9914192281746  6.7446203015873 32.2652191805556  6.45211322817461 32.3767011527778  C 6.16276203968254 32.4880690496032  5.82854431150794 32.4168909404762  5.60725338492064 32.1909612619048  C 2.0960280515873 28.6303446746032  0.163268583333333 23.9183309146825  0.163268583333333 18.9246465277778  C 0.163268583333333 8.49933465277778  8.64490854365079 0.0176946924603201  19.0701443809524 0.0176946924603201  C 29.4954562559524 0.0176946924603201  37.9770581785714 8.49933465277778  37.9770581785714 18.9246465277778  C 37.9770581785714 23.9183309146825  36.0427398055556 28.6303446746032  32.5331114146825 32.1909612242064  Z M 25.6452983670635 14.3309207738095  C 25.6452984047619 17.6788775238095  24.6456869920635 20.3080569980159  22.8150179166667 21.8183865634921  C 23.1585511488095 22.8737009246032  23.5733005277778 24.0467329146825  24.0406350079365 24.2619022222222  C 24.7632525079365 24.5960439126984  25.4379616964286 24.8963455853175  26.0615306130952 25.1748983650794  C 29.5031747797619 26.7114634246032  31.6757801448413 27.6818355337302  32.4525416884921 29.9178244087302  C 35.0027864920635 26.8244282638889  36.3924326190476 22.9759053928571  36.3924326190476 18.9246846031746  C 36.3924326190476 9.37301561111111  28.6210908829365 1.60232025198413  19.0701063055556 1.60232025198413  C 9.51767686111111 1.60232025198413  1.74781799206349 9.3729775734127  1.74781799206349 18.9246846031746  C 1.74781799206349 22.9759053928571  3.13590521428572 26.8229453968254  5.68767092261905 29.9178244087302  C 6.46291156150794 27.6817975337302  8.63871084920635 26.7099805575397  12.0802409404762 25.1748983650794  C 12.7053687996032 24.8963455476191  13.3769601031746 24.5960439126984  14.1012506210317 24.2619022222222  C 14.5654292539683 24.046770952381  14.9802166329365 22.8737009246032  15.3252707698413 21.8183865634921  C 13.4946016944444 20.3080569980159  12.494952281746 17.678193109127  12.494952281746 14.3309207738095  C 12.494952281746 9.21738947619048  16.0370898988095 7.4030320515873  19.0701063055556 7.4030320515873  C 22.10316075 7.4030320515873  25.6452983670635 9.21735143849207  25.6452983670635 14.3309207738095  Z " fill-rule="nonzero" fill="#666666" stroke="none" transform="matrix(1 0 0 1 9 26 )" />
  </g>
</svg>