<?xml version="1.0" encoding="utf-8"?>
<svg version="1.1" xmlns:xlink="http://www.w3.org/1999/xlink" width="94px" height="67px" xmlns="http://www.w3.org/2000/svg">
  <g transform="matrix(1 0 0 1 -316 -2522 )">
    <path d="M 51.4511201629328 63.4698924731183  C 49.1218601493551 65.8232974910394  47.6381534283775 67  47 67  C 46.3618465716225 67  44.8781398506449 65.8232974910394  42.5488798370672 63.4698924731183  C 40.2196198234895 61.1164874551971  39.0549898167006 59.6195937873357  39.0549898167006 58.9792114695341  C 39.0549898167006 57.9545997610514  40.0521045485404 57.0900836320191  42.04633401222 56.3856630824373  C 44.0405634758995 55.6812425328554  45.6917854718262 55.3290322580645  47 55.3290322580645  C 48.3082145281738 55.3290322580645  49.9594365241005 55.6812425328554  51.95366598778 56.3856630824373  C 53.9478954514596 57.0900836320191  54.9450101832994 57.9545997610514  54.9450101832994 58.9792114695341  C 54.9450101832994 59.6195937873357  53.7803801765105 61.1164874551971  51.4511201629328 63.4698924731183  Z M 64.3976578411405 50.3820788530466  C 61.9886286490156 52.7835125448029  60.4969450101833 53.984229390681  59.9226069246436 53.984229390681  C 59.8587915818058 53.984229390681  59.2206381534284 53.5839904420549  58.0081466395112 52.7835125448029  C 56.795655125594 51.9830346475508  55.1763408010862 51.1825567502987  53.1502036659878 50.3820788530466  C 51.1240665308893 49.5816009557945  49.0739986422268 49.1813620071685  47 49.1813620071685  C 44.9260013577733 49.1813620071685  42.8759334691107 49.5816009557945  40.8497963340122 50.3820788530466  C 38.8236591989138 51.1825567502987  37.2123217922607 51.9830346475508  36.015784114053 52.7835125448029  C 34.8192464358452 53.5839904420549  34.173116089613 53.984229390681  34.0773930753564 53.984229390681  C 33.5030549898167 53.984229390681  32.0113713509844 52.7835125448029  29.6023421588595 50.3820788530466  C 27.1933129667346 47.9806451612903  25.9887983706721 46.4917562724014  25.9887983706721 45.9154121863799  C 25.9887983706721 45.4991636798088  26.1483367277665 45.1309438470729  26.4674134419552 44.810752688172  C 28.9562118126273 42.3452807646356  32.0831636116769 40.4081242532855  35.8482688391039 38.9992831541219  C 39.6133740665309 37.5904420549582  43.3306177868296 36.8860215053763  47 36.8860215053763  C 50.6693822131704 36.8860215053763  54.3866259334691 37.5904420549582  58.1517311608961 38.9992831541219  C 61.9168363883231 40.4081242532855  65.0437881873727 42.3452807646356  67.5325865580448 44.810752688172  C 67.8516632722335 45.1309438470729  68.0112016293279 45.4991636798088  68.0112016293279 45.9154121863799  C 68.0112016293279 46.4917562724014  66.8066870332654 47.9806451612903  64.3976578411405 50.3820788530466  Z M 77.3920570264766 37.3182795698925  C 74.9989816700611 39.7197132616487  73.5312287847929 40.9204301075269  72.9887983706721 40.9204301075269  C 72.6378139850645 40.9204301075269  72.2708757637475 40.7923536439665  71.887983706721 40.5362007168459  C 67.5485403937543 37.1741935483871  63.5281737949762 34.7007168458781  59.826883910387 33.115770609319  C 56.1255940257977 31.5308243727599  51.8499660556687 30.7383512544803  47 30.7383512544803  C 44.2878479293958 30.7383512544803  41.5677189409369 31.0905615292712  38.8396130346232 31.794982078853  C 36.1115071283096 32.4994026284349  33.7343856076035 33.3479091995221  31.7082484725051 34.3405017921147  C 29.6821113374067 35.3330943847073  27.8713509843856 36.3256869772999  26.275967413442 37.3182795698925  C 24.6805838424983 38.3108721624851  23.4202308214528 39.1593787335723  22.4949083503055 39.8637992831541  C 21.5695858791582 40.568219832736  21.0750169721656 40.9204301075269  21.0112016293279 40.9204301075269  C 20.4687712152071 40.9204301075269  19.0010183299389 39.7197132616487  16.6079429735234 37.3182795698925  C 14.2148676171079 34.9168458781362  13.0183299389002 33.4279569892473  13.0183299389002 32.8516129032258  C 13.0183299389002 32.4673835125448  13.1778682959946 32.1151732377539  13.4969450101833 31.794982078853  C 17.7087576374745 27.568458781362  22.8139850644942 24.2864994026284  28.8126272912424 21.9491039426523  C 34.8112695179905 19.6117084826762  40.8737270875764 18.4430107526882  47 18.4430107526882  C 53.1262729124236 18.4430107526882  59.1887304820095 19.6117084826762  65.1873727087576 21.9491039426523  C 71.1860149355058 24.2864994026284  76.2912423625255 27.568458781362  80.5030549898167 31.794982078853  C 80.8221317040054 32.1151732377539  80.9816700610998 32.4673835125448  80.9816700610998 32.8516129032258  C 80.9816700610998 33.4279569892473  79.7851323828921 34.9168458781362  77.3920570264766 37.3182795698925  Z M 90.3864562118126 24.3025089605735  C 87.9774270196877 26.7039426523298  86.5016972165648 27.9046594982079  85.959266802444 27.9046594982079  C 85.6082824168364 27.9046594982079  85.2572980312288 27.7605734767025  84.9063136456212 27.4724014336918  C 79.1948404616429 22.4454002389486  73.2679904955872 18.6591397849462  67.1257637474542 16.1136200716846  C 60.9835369993211 13.5681003584229  54.2749490835031 12.2953405017921  47 12.2953405017921  C 39.7250509164969 12.2953405017921  33.0164630006789 13.5681003584229  26.8742362525458 16.1136200716846  C 20.7320095044128 18.6591397849462  14.8051595383571 22.4454002389486  9.09368635437882 27.4724014336918  C 8.74270196877122 27.7605734767025  8.39171758316361 27.9046594982079  8.04073319755601 27.9046594982079  C 7.49830278343517 27.9046594982079  6.02257298031229 26.7039426523298  3.61354378818737 24.3025089605735  C 1.20451459606246 21.9010752688172  0 20.4121863799283  0 19.8358422939068  C 0 19.4195937873357  0.159538357094365 19.0513739545998  0.478615071283096 18.7311827956989  C 6.44534962661236 12.7756272401434  13.5448065173116 8.16487455197133  21.7769857433809 4.8989247311828  C 30.0091649694501 1.63297491039426  38.4168363883231 0  47 0  C 55.5831636116769 0  63.9908350305499 1.63297491039426  72.2230142566191 4.8989247311828  C 80.4551934826884 8.16487455197133  87.5546503733876 12.7756272401434  93.5213849287169 18.7311827956989  C 93.8404616429056 19.0513739545998  94 19.4195937873357  94 19.8358422939068  C 94 20.4121863799283  92.7954854039375 21.9010752688172  90.3864562118126 24.3025089605735  Z " fill-rule="nonzero" fill="#000000" stroke="none" transform="matrix(1 0 0 1 316 2522 )" />
  </g>
</svg>