<?xml version="1.0" encoding="utf-8"?>
<svg version="1.1" xmlns:xlink="http://www.w3.org/1999/xlink" width="31px" height="31px" xmlns="http://www.w3.org/2000/svg">
  <g transform="matrix(1 0 0 1 -347 -2576 )">
    <path d="M 24.158203125 17.6998697916667  C 24.4138454861111 17.4442274305556  24.5416666666667 17.1414930555556  24.5416666666667 16.7916666666667  L 24.5416666666667 14.2083333333333  C 24.5416666666667 13.8585069444444  24.4138454861111 13.5557725694444  24.158203125 13.3001302083333  C 23.9025607638889 13.0444878472222  23.5998263888889 12.9166666666667  23.25 12.9166666666667  L 18.0833333333333 12.9166666666667  L 18.0833333333333 7.75  C 18.0833333333333 7.40017361111111  17.9555121527778 7.09743923611111  17.6998697916667 6.841796875  C 17.4442274305556 6.58615451388889  17.1414930555556 6.45833333333333  16.7916666666667 6.45833333333333  L 14.2083333333333 6.45833333333333  C 13.8585069444444 6.45833333333333  13.5557725694444 6.58615451388889  13.3001302083333 6.841796875  C 13.0444878472222 7.09743923611111  12.9166666666667 7.40017361111111  12.9166666666667 7.75  L 12.9166666666667 12.9166666666667  L 7.75 12.9166666666667  C 7.40017361111111 12.9166666666667  7.09743923611111 13.0444878472222  6.841796875 13.3001302083333  C 6.58615451388889 13.5557725694444  6.45833333333333 13.8585069444444  6.45833333333333 14.2083333333333  L 6.45833333333333 16.7916666666667  C 6.45833333333333 17.1414930555556  6.58615451388889 17.4442274305556  6.841796875 17.6998697916667  C 7.09743923611111 17.9555121527778  7.40017361111111 18.0833333333333  7.75 18.0833333333333  L 12.9166666666667 18.0833333333333  L 12.9166666666667 23.25  C 12.9166666666667 23.5998263888889  13.0444878472222 23.9025607638889  13.3001302083333 24.158203125  C 13.5557725694444 24.4138454861111  13.8585069444444 24.5416666666667  14.2083333333333 24.5416666666667  L 16.7916666666667 24.5416666666667  C 17.1414930555556 24.5416666666667  17.4442274305556 24.4138454861111  17.6998697916667 24.158203125  C 17.9555121527778 23.9025607638889  18.0833333333333 23.5998263888889  18.0833333333333 23.25  L 18.0833333333333 18.0833333333333  L 23.25 18.0833333333333  C 23.5998263888889 18.0833333333333  23.9025607638889 17.9555121527778  24.158203125 17.6998697916667  Z M 28.9212239583333 7.7197265625  C 30.3070746527778 10.0945095486111  31 12.6879340277778  31 15.5  C 31 18.3120659722222  30.3070746527778 20.9054904513889  28.9212239583333 23.2802734375  C 27.5353732638889 25.6550564236111  25.6550564236111 27.5353732638889  23.2802734375 28.9212239583333  C 20.9054904513889 30.3070746527778  18.3120659722222 31  15.5 31  C 12.6879340277778 31  10.0945095486111 30.3070746527778  7.7197265625 28.9212239583333  C 5.34494357638889 27.5353732638889  3.46462673611111 25.6550564236111  2.07877604166667 23.2802734375  C 0.692925347222222 20.9054904513889  0 18.3120659722222  0 15.5  C 0 12.6879340277778  0.692925347222222 10.0945095486111  2.07877604166667 7.7197265625  C 3.46462673611111 5.34494357638889  5.34494357638889 3.46462673611111  7.7197265625 2.07877604166667  C 10.0945095486111 0.69292534722222  12.6879340277778 0  15.5 0  C 18.3120659722222 0  20.9054904513889 0.69292534722222  23.2802734375 2.07877604166667  C 25.6550564236111 3.46462673611111  27.5353732638889 5.34494357638889  28.9212239583333 7.7197265625  Z " fill-rule="nonzero" fill="#000000" stroke="none" transform="matrix(1 0 0 1 347 2576 )" />
  </g>
</svg>