<?xml version="1.0" encoding="utf-8"?>
<svg version="1.1" xmlns:xlink="http://www.w3.org/1999/xlink" width="38px" height="38px" xmlns="http://www.w3.org/2000/svg">
  <g transform="matrix(1 0 0 1 -799 -2857 )">
    <path d="M 29.61328125 21.6966145833333  C 29.9266493055556 21.3832465277778  30.0833333333333 21.0121527777778  30.0833333333333 20.5833333333333  L 30.0833333333333 17.4166666666667  C 30.0833333333333 16.9878472222222  29.9266493055556 16.6167534722222  29.61328125 16.3033854166667  C 29.2999131944445 15.9900173611111  28.9288194444445 15.8333333333333  28.5 15.8333333333333  L 22.1666666666667 15.8333333333333  L 22.1666666666667 9.5  C 22.1666666666667 9.07118055555555  22.0099826388889 8.70008680555555  21.6966145833333 8.38671875  C 21.3832465277778 8.07335069444444  21.0121527777778 7.91666666666667  20.5833333333333 7.91666666666667  L 17.4166666666667 7.91666666666667  C 16.9878472222222 7.91666666666667  16.6167534722222 8.07335069444444  16.3033854166667 8.38671875  C 15.9900173611111 8.70008680555555  15.8333333333333 9.07118055555555  15.8333333333333 9.5  L 15.8333333333333 15.8333333333333  L 9.5 15.8333333333333  C 9.07118055555556 15.8333333333333  8.70008680555556 15.9900173611111  8.38671875 16.3033854166667  C 8.07335069444444 16.6167534722222  7.91666666666667 16.9878472222222  7.91666666666667 17.4166666666667  L 7.91666666666667 20.5833333333333  C 7.91666666666667 21.0121527777778  8.07335069444444 21.3832465277778  8.38671875 21.6966145833333  C 8.70008680555556 22.0099826388889  9.07118055555556 22.1666666666667  9.5 22.1666666666667  L 15.8333333333333 22.1666666666667  L 15.8333333333333 28.5  C 15.8333333333333 28.9288194444444  15.9900173611111 29.2999131944444  16.3033854166667 29.61328125  C 16.6167534722222 29.9266493055556  16.9878472222222 30.0833333333333  17.4166666666667 30.0833333333333  L 20.5833333333333 30.0833333333333  C 21.0121527777778 30.0833333333333  21.3832465277778 29.9266493055556  21.6966145833333 29.61328125  C 22.0099826388889 29.2999131944444  22.1666666666667 28.9288194444444  22.1666666666667 28.5  L 22.1666666666667 22.1666666666667  L 28.5 22.1666666666667  C 28.9288194444445 22.1666666666667  29.2999131944445 22.0099826388889  29.61328125 21.6966145833333  Z M 35.4518229166667 9.462890625  C 37.1506076388889 12.3739149305556  38 15.5529513888889  38 19  C 38 22.4470486111111  37.1506076388889 25.6260850694444  35.4518229166667 28.537109375  C 33.7530381944445 31.4481336805556  31.4481336805556 33.7530381944444  28.537109375 35.4518229166667  C 25.6260850694445 37.1506076388889  22.4470486111111 38  19 38  C 15.5529513888889 38  12.3739149305556 37.1506076388889  9.462890625 35.4518229166667  C 6.55186631944444 33.7530381944444  4.24696180555556 31.4481336805556  2.54817708333333 28.537109375  C 0.849392361111111 25.6260850694444  0 22.4470486111111  0 19  C 0 15.5529513888889  0.849392361111111 12.3739149305556  2.54817708333333 9.462890625  C 4.24696180555556 6.55186631944444  6.55186631944444 4.24696180555555  9.462890625 2.54817708333333  C 12.3739149305556 0.849392361111108  15.5529513888889 0  19 0  C 22.4470486111111 0  25.6260850694445 0.849392361111108  28.537109375 2.54817708333333  C 31.4481336805556 4.24696180555555  33.7530381944445 6.55186631944444  35.4518229166667 9.462890625  Z " fill-rule="nonzero" fill="#ffffff" stroke="none" transform="matrix(1 0 0 1 799 2857 )" />
  </g>
</svg>