<?xml version="1.0" encoding="utf-8"?>
<svg version="1.1" xmlns:xlink="http://www.w3.org/1999/xlink" width="88px" height="85px" xmlns="http://www.w3.org/2000/svg">
  <g transform="matrix(1 0 0 1 -142 -258 )">
    <path d="M 63.9375 74.6093257718967  L 60.1298076923077 52.0604914933838  L 76.3125 36.1531190926276  L 53.9951923076923 32.8323881537492  L 44 12.3724007561437  L 34.0048076923077 32.8323881537492  L 11.6875 36.1531190926276  L 27.8701923076923 52.0604914933838  L 24.0096153846154 74.6093257718967  L 44 63.9508506616257  L 63.9375 74.6093257718967  Z M 85.0384615384615 30.4757403906742  C 87.0128205128205 30.7971014492754  88 31.6183574879227  88 32.9395085066163  C 88 33.7250577609746  87.5416666666667 34.5820205839109  86.625 35.5103969754253  L 67.4278846153846 54.4706994328923  L 71.9759615384615 81.2507876496534  C 72.011217948718 81.5007351396766  72.0288461538462 81.8578029825667  72.0288461538462 82.3219911783239  C 72.0288461538462 84.1073303927746  71.3060897435898 85  69.8605769230769 85  C 69.1907051282051 85  68.4855769230769 84.7857592942659  67.7451923076923 84.3572778827977  L 44 71.7170762444864  L 20.2548076923077 84.3572778827977  C 19.4791666666667 84.7857592942659  18.7740384615385 85  18.1394230769231 85  C 17.3990384615385 85  16.84375 84.7411258139046  16.4735576923077 84.2233774417139  C 16.1033653846154 83.7056290695232  15.9182692307692 83.0718336483932  15.9182692307692 82.3219911783239  C 15.9182692307692 82.1077504725898  15.9535256410256 81.7506826296996  16.0240384615385 81.2507876496534  L 20.5721153846154 54.4706994328923  L 1.32211538461538 35.5103969754253  C 0.440705128205128 34.5463137996219  0 33.6893509766856  0 32.9395085066163  C 0 31.6183574879227  0.987179487179487 30.7971014492754  2.96153846153846 30.4757403906742  L 29.5096153846154 26.5658475110271  L 41.4086538461538 2.19596723377441  C 42.0785256410256 0.731989077924801  42.9423076923077 0  44 0  C 45.0576923076923 0  45.9214743589744 0.731989077924801  46.5913461538462 2.19596723377441  L 58.4903846153846 26.5658475110271  L 85.0384615384615 30.4757403906742  Z " fill-rule="nonzero" fill="#d9001b" stroke="none" transform="matrix(1 0 0 1 142 258 )" />
  </g>
</svg>